<svg width="32" height="32" viewBox="0 0 32 32" fill="none" xmlns="http://www.w3.org/2000/svg">
<mask id="mask0" mask-type="alpha" maskUnits="userSpaceOnUse" x="0" y="0" width="32" height="32">
<rect width="32" height="32" fill="#C4C4C4"/>
</mask>
<g mask="url(#mask0)">
<path fill-rule="evenodd" clip-rule="evenodd" d="M25.4478 25.6169C26.6308 24.493 27.5 22.5304 27.5 19C27.5 15.3482 26.6503 13.4007 25.5186 12.3143C24.3668 11.2086 22.4123 10.5 19.0803 10.5C15.6556 10.5 13.6602 11.214 12.4916 12.3237C11.3496 13.4081 10.5 15.3479 10.5 19C10.5 22.8309 11.2741 24.7376 12.3205 25.7647C13.3763 26.8009 15.2744 27.5 18.9197 27.5C22.2218 27.5 24.2396 26.7648 25.4478 25.6169ZM18.9197 30C26.146 30 30 26.8116 30 19C30 11.029 26.3065 8 19.0803 8C11.6934 8 8 11.029 8 19C8 27.1304 11.2117 30 18.9197 30Z" fill="black"/>
<path fill-rule="evenodd" clip-rule="evenodd" d="M6.31072 23.0224L6.24823 23.1928C4.05625 22.3889 2.604 20.943 1.79369 18.6731L4.14816 17.8326C4.55893 18.9832 5.15421 19.7698 6.02864 20.3235C6.07115 21.2709 6.16228 22.1718 6.31072 23.0224ZM21.512 6.12017C20.6267 4.60855 19.3485 3.55519 17.6831 2.89211L16.7583 5.21477C17.2943 5.4282 17.7645 5.69075 18.1748 6.0148C18.4733 6.00482 18.7752 6 19.0803 6C19.9156 6 20.7279 6.03772 21.512 6.12017ZM20.4584 8.03975L19.7922 8.29813C19.7536 8.1986 19.7135 8.10158 19.6719 8.007C19.9392 8.01342 20.2014 8.0243 20.4584 8.03975ZM3.68953 15.9144L1.21658 16.2812C1.07079 15.2982 1 14.2071 1 13C1 11.7983 1.08395 10.7089 1.25184 9.72528L3.7162 10.1459C3.57618 10.9662 3.5 11.9122 3.5 13C3.5 14.1125 3.56545 15.0778 3.68953 15.9144ZM4.2219 8.27146L1.8972 7.3518C2.76995 5.14569 4.27943 3.6977 6.42562 2.87091L7.32433 5.20379C5.8143 5.7855 4.83152 6.73049 4.2219 8.27146ZM12.0803 2C10.8932 2 9.80153 2.07822 8.80524 2.2426L9.21221 4.70925C10.0476 4.57142 10.9999 4.5 12.0803 4.5C13.1463 4.5 14.0852 4.573 14.9076 4.7135L15.3286 2.2492C14.34 2.08031 13.2569 2 12.0803 2Z" fill="black"/>
</g>
<path d="M19 14L19 19.5" stroke="black" stroke-width="2.5" stroke-linecap="round"/>
<path d="M19 19.5L23 21.5" stroke="black" stroke-width="2.5" stroke-linecap="round"/>
</svg>
