<?xml version="1.0" encoding="UTF-8"?>
<svg width="480px" height="472px" viewBox="0 0 480 472" version="1.1" xmlns="http://www.w3.org/2000/svg" xmlns:xlink="http://www.w3.org/1999/xlink">
    <title>InstructorsTSAs_Color</title>
    <g id="FAQs-Test" stroke="none" stroke-width="1" fill="none" fill-rule="evenodd">
        <g id="InstructorsTSAs_Color" transform="translate(1.000000, 1.000000)">
            <path d="M321.79806,16.4905172 C321.560304,16.8233759 321.6374,17.2859507 321.970259,17.5237069 C322.303117,17.7614631 322.765692,17.6843673 323.003448,17.3515086 C323.241204,17.0186499 323.164109,16.5560752 322.83125,16.318319 C322.498391,16.0805628 322.035817,16.1576586 321.79806,16.4905172 L321.79806,16.4905172 Z" id="Path" fill="#070607" fill-rule="nonzero"></path>
            <path d="M232.467672,321.240948 C232.446229,320.430485 232.038024,319.679289 231.369672,319.22036 C230.70132,318.761432 229.853635,318.650263 229.089547,318.921336 C228.051293,317.118319 224.789655,316.809375 224.435129,319.326509 C224.435129,319.432866 224.404741,319.539224 224.394612,319.650647 C224.015631,319.978197 223.751229,320.418276 223.639978,320.906681 C223.320905,322.172845 223.052478,323.439009 222.81444,324.710237 C222.210057,321.911171 221.598922,319.112105 220.981034,316.313039 C220.393534,313.669289 217.08125,314.145366 216.245582,316.161099 C214.879423,317.269964 213.86719,318.753987 213.333405,320.430603 C212.198922,318.374353 208.775216,318.673168 208.608082,321.539763 C208.306775,326.330421 208.820532,331.137475 210.127478,335.75625 C210.384088,338.156897 210.640697,340.559231 210.897306,342.963254 C210.986477,343.778053 211.436397,344.5099 212.123191,344.957297 C212.809984,345.404693 213.661233,345.520465 214.442565,345.272737 C214.518534,345.627263 214.584375,345.981789 214.660345,346.336315 C214.798359,347.273681 215.539702,348.006764 216.478556,348.134267 C216.691272,348.893966 216.903987,349.653664 217.131897,350.408297 C217.284666,351.081192 217.727253,351.65205 218.340867,351.967651 C218.954481,352.283252 219.676269,352.311268 220.3125,352.044181 C221.166637,352.308684 222.096353,352.132228 222.794181,351.573168 C223.022091,352.337931 223.255065,353.092565 223.488039,353.872522 C223.591609,354.220532 223.763816,354.544281 223.994504,354.824677 C224.151509,355.467888 224.303448,356.106034 224.460453,356.744181 C225.128987,359.443642 229.747953,358.9625 229.433944,356.070582 C229.302263,354.83143 229.167205,353.590589 229.028772,352.34806 C230.002282,352.017275 230.642862,351.086271 230.603879,350.058836 C230.603879,348.843319 230.629203,347.632866 230.644397,346.417349 C231.422508,345.996019 231.899574,345.174841 231.880172,344.290194 C231.92069,342.679634 231.966272,341.069073 232.006789,339.458513 C232.518989,338.997826 232.808594,338.339297 232.80194,337.650431 C232.916739,332.177227 232.805316,326.707399 232.467672,321.240948 Z" id="Path" stroke="#070607" fill="#FFC1A9" fill-rule="nonzero" stroke-linecap="round"></path>
            <path d="M70.4898707,384.407328 L65.4252155,389.21875 C64.766536,389.200682 64.1250121,389.430185 63.6272629,389.861961 L63.4601293,389.998707 C63.132709,389.790756 62.7618948,389.660798 62.3762931,389.618858 C62.4087331,389.321216 62.4205788,389.021688 62.4117457,388.722414 C62.3560345,386.934591 60.2542026,385.4 58.603125,386.539547 C58.0966595,386.86875 57.6357759,387.208082 57.1546336,387.552478 C56.3438256,387.377855 55.5001849,387.632287 54.9211207,388.226078 L43.6927802,398.801078 C41.3123922,401.039655 44.6044181,404.149353 47.0860991,402.51347 C46.9682627,403.224679 47.0893708,403.95489 47.4304957,404.589978 C47.42793,404.898495 47.4499464,405.206726 47.4963362,405.511746 C47.5566085,405.983966 47.7871158,406.417969 48.1446121,406.732328 C48.2496629,407.766631 48.9300037,408.652838 49.9020474,409.021552 C49.5525862,409.472306 49.203125,409.928125 48.8891164,410.414332 C47.4862069,412.440194 49.7804957,414.542026 51.7607759,414.076078 C51.537931,415.757543 53.037069,417.383297 54.5716595,417.114871 C55.0199235,417.520754 55.6150289,417.725044 56.2180696,417.680055 C56.8211103,417.635066 57.3793155,417.344736 57.7623922,416.876832 C58.0460129,416.562823 58.3397629,416.253879 58.6335129,415.944935 C59.5274613,416.298332 60.5465108,416.071654 61.2063578,415.372629 C61.849569,414.764871 62.4775862,414.141918 63.1056034,413.518966 C63.8719923,413.645117 64.6515608,413.387784 65.1922414,412.830172 C65.9671336,412.090733 66.7116379,411.310776 67.4612069,410.561207 L71.7205819,406.301832 C72.6606029,405.414961 72.714729,403.93777 71.8421336,402.984483 C71.7742927,402.776143 71.6807176,402.577083 71.5635776,402.391918 C71.0976293,400.943427 69.5984914,399.859591 68.018319,401.009267 L67.9372845,401.070043 C67.9045982,400.964849 67.8657009,400.861687 67.8207974,400.761099 C67.866811,400.37311 67.8410592,399.979965 67.7448276,399.601293 C68.1052334,398.752251 67.956322,397.772571 67.3599138,397.068966 L67.5017241,396.901832 C68.1823083,396.210031 68.3961307,395.184475 68.0487069,394.278341 L74.0857759,387.977909 C76.3294181,385.627909 72.8601293,382.158621 70.4898707,384.407328 Z" id="Path" stroke="#070607" fill="#FFC1A9" fill-rule="nonzero" stroke-linecap="round"></path>
            <line x1="173.575862" y1="114.289009" x2="173.575862" y2="171.772845" id="Path" stroke="#070607" fill="#FFBBBA" fill-rule="nonzero" stroke-linecap="round"></line>
            <line x1="191.286961" y1="108.292457" x2="213.870259" y2="137.196444" id="Path" stroke="#070607" fill="#FFBBBA" fill-rule="nonzero" stroke-linecap="round"></line>
            <line x1="201.330172" y1="92.516056" x2="239.163147" y2="100.817026" id="Path" stroke="#070607" fill="#FFBBBA" fill-rule="nonzero" stroke-linecap="round"></line>
            <line x1="201.887284" y1="83.0451509" x2="261.57931" y2="75.6153017" id="Path" stroke="#070607" fill="#FFBBBA" fill-rule="nonzero" stroke-linecap="round"></line>
            <line x1="186.009591" y1="60.7353448" x2="204.774138" y2="28.8735991" id="Path" stroke="#070607" fill="#FFBBBA" fill-rule="nonzero" stroke-linecap="round"></line>
            <line x1="176.878017" y1="58.1625" x2="182.069289" y2="0.187392241" id="Path" stroke="#070607" fill="#FFBBBA" fill-rule="nonzero" stroke-linecap="round"></line>
            <line x1="158.685776" y1="62.4826509" x2="124.98556" y2="14.115194" id="Path" stroke="#070607" fill="#FFBBBA" fill-rule="nonzero" stroke-linecap="round"></line>
            <line x1="147.214332" y1="77.2511853" x2="98.6139009" y2="56.6025862" id="Path" stroke="#070607" fill="#FFBBBA" fill-rule="nonzero" stroke-linecap="round"></line>
            <line x1="145.77597" y1="86.6309267" x2="98.1834052" y2="88.6669181" id="Path" stroke="#070607" fill="#FFBBBA" fill-rule="nonzero" stroke-linecap="round"></line>
            <line x1="160.752155" y1="112.43028" x2="148.875539" y2="138.49806" id="Path" stroke="#070607" fill="#FFBBBA" fill-rule="nonzero" stroke-linecap="round"></line>
            <line x1="147.958836" y1="101.992026" x2="126.778448" y2="109.031897" id="Path" stroke="#070607" fill="#FFBBBA" fill-rule="nonzero" stroke-linecap="round"></line>
            <line x1="193.940841" y1="70.0340517" x2="228.172845" y2="47.9369612" id="Path" stroke="#070607" fill="#FFBBBA" fill-rule="nonzero" stroke-linecap="round"></line>
            <line x1="165.340733" y1="56.6025862" x2="162.742565" y2="39.7068966" id="Path" stroke="#070607" fill="#FFBBBA" fill-rule="nonzero" stroke-linecap="round"></line>
            <line x1="180.509375" y1="115.099353" x2="186.141272" y2="128.966379" id="Path" stroke="#070607" fill="#FFBBBA" fill-rule="nonzero" stroke-linecap="round"></line>
            <line x1="152.344828" y1="107.735345" x2="119.844935" y2="138.928556" id="Path" stroke="#070607" fill="#FFBBBA" fill-rule="nonzero" stroke-linecap="round"></line>
            <line x1="139.779418" y1="59.6363147" x2="151.909267" y2="68.7375" id="Path" stroke="#070607" fill="#FFBBBA" fill-rule="nonzero" stroke-linecap="round"></line>
            <line x1="196.539009" y1="102.533944" x2="244.202478" y2="130.262931" id="Path" stroke="#070607" fill="#FFBBBA" fill-rule="nonzero" stroke-linecap="round"></line>
            <path d="M478.103448,221.163362 C472.875641,226.981767 466.381223,231.521621 459.121121,234.432759 C455.564946,236.282544 451.567828,237.116664 447.568642,236.843534 C445.354912,236.40228 443.309115,235.349554 441.663254,233.804741 C440.650323,232.113147 440.99472,228.096875 442.919289,227.078879 C445.563039,225.67597 447.477478,228.152586 448.171336,230.325323 C450.16681,236.570043 448.252371,245.240733 442.265948,248.669504 C440.643984,249.558848 438.828104,250.03543 436.978448,250.05722 C431.295905,250.244612 425.557651,250.05722 419.870043,250.05722 L334.267241,250.05722 L334.267241,295.639116 L250.700431,295.639116 L250.700431,363.505496 L149.913793,363.505496 L149.913793,419.723168 L35.9590517,419.723168 L35.9590517,449.098168 C35.6855603,451.549461 38.6331897,460.782328 37.0023707,461.293858 C36.4199353,461.48125 35.8780172,461.060884 35.4221983,460.787392 C33.9028017,459.93653 32.3834052,459.232543 30.8184267,458.488039 C27.9872845,457.161099 25.394181,455.09472 22.4414871,454.071659 C23.1809267,454.821228 23.5354526,456.436853 23.778556,457.389009 C24.7509698,461.228017 26.0221983,465.776078 25.247306,469.772091 C23.9051724,470.243103 21.1955819,467.037177 20.4713362,466.393966 C18.3808522,464.5601 16.41321,462.590766 14.5811422,460.498707 C13.8822198,459.693427 13.1123922,457.789116 11.9272629,458.386746 C10.883944,458.893211 10.0584052,460.625323 9.11637931,461.425539 C7.66282328,462.651185 6.03706897,463.633728 4.52273707,464.78847 C3.33266925,465.683225 2.24101958,466.701872 1.26616379,467.827263 C0.835668103,468.333728 0.222844828,468.789547 0,469.346659" id="Path" stroke="#070607" stroke-linecap="round"></path>
            <path d="M75.3164871,310.49375 C76.3294181,310.696336 77.3423491,310.924246 78.3552802,311.147091 C86.7322198,293.319504 98.6594828,274.934806 104.519289,256.114547 C108.135453,244.519864 111.246839,232.785057 113.853448,220.910129 C115.945151,211.368319 121.151616,196.387069 111.513578,189.175 C110.013158,188.050888 108.263581,187.305537 106.41347,187.002263 C98.7506466,183.841918 89.8469828,188.288685 85.8509698,195.490625 C81.221875,203.832112 81.3383621,214.629957 80.6039871,223.928664 C80.4351652,226.065948 80.2984195,228.201545 80.19375,230.335453 C73.7143678,256.094289 68.3002514,282.092852 63.9514009,308.331142 C69.3047414,308.979418 70.0087284,309.404849 75.3164871,310.49375 Z" id="Path" stroke="#070607" fill="#ED3730" fill-rule="nonzero" stroke-linecap="round"></path>
            <path d="M88.4643319,201.244073 C88.4643319,201.244073 98.2543103,250.538362 85.759806,296.120259 L101.207004,268.264655 L101.966703,203.943534 L95.5548491,190.431034 L88.4643319,201.244073 Z" id="Path" fill="#070607" fill-rule="nonzero"></path>
            <path d="M210.18319,152.506897 C188.863454,155.33736 167.784841,159.755895 147.123168,165.725647 C135.464332,169.102083 123.9625,172.984986 112.617672,177.374353 C105.415733,180.154849 97.0134698,182.226293 91.487931,187.974677 C84.0226293,195.753987 89.1429957,208.506789 91.9336207,217.263578 C92.4755388,218.965302 96.4664871,232.260022 97.0387931,232.103017 C109.310453,228.714763 121.703664,225.792457 134.152586,223.10819 C134.152586,223.062608 134.193103,223.017026 134.213362,222.961315 C136.907872,215.825791 138.314034,208.268524 138.366379,200.641379 L139.055172,200.241272 C165.82694,190.821013 192.149641,180.244325 218.023276,168.511207 C215.497701,163.129167 212.884339,157.794397 210.18319,152.506897 Z" id="Path" stroke="#070607" fill="#ED3730" fill-rule="nonzero" stroke-linecap="round"></path>
            <path d="M76.8561422,328.301078 C78.0665948,320.99278 76.3496767,317.639978 79.2365302,308.822414 C79.2861097,308.691647 79.279411,308.546199 79.2180216,308.420543 C79.1566322,308.294886 79.0460169,308.200207 78.9123922,308.158944 L65.1264009,303.676724 C64.8528367,303.59191 64.5608663,303.736781 64.462931,304.005927 C64.1387931,304.937823 63.8095905,305.874784 63.4803879,306.806681 C59.9756466,306.300216 56.5215517,308.675539 54.7134698,311.704203 C51.6493534,316.824569 52.1811422,323.41875 48.6358836,328.301078 C46.853125,330.767565 44.3157328,332.297091 41.6669181,333.679741 C39.9246767,334.591379 37.7266164,335.776509 37.174569,337.832759 C36.6984914,339.615517 37.7266164,341.322306 39.2561422,342.193427 C40.4024609,342.786821 41.6917537,343.048188 42.9786638,342.94806 C40.83125,344.006573 38.612931,345.029634 37.4480603,347.253017 C36.4351293,349.172522 36.6427802,351.573168 38.5420259,352.864655 C41.4390086,354.839871 45.2932112,353.659806 48.5801724,351.790948 C48.8501156,352.426745 49.2424761,353.00324 49.7349138,353.487608 C53.0877155,356.855603 58.5423491,353.786422 61.6773707,351.699784 C69.7247491,346.304979 75.2103944,337.848629 76.8561422,328.301078 Z" id="Path" stroke="#070607" fill="#FFC1A9" fill-rule="nonzero" stroke-linecap="round"></path>
            <path d="M67.4612069,315.208944 C68.5298491,320.136853 65.6126078,325.61681 60.9328664,327.485668" id="Path" stroke="#070607" stroke-linecap="round"></path>
            <path d="M66.1393319,424.418103 L66.0633621,423.987608 L65.4809267,420.629741 L64.7161638,416.213362 L64.4173491,414.471121 C64.2943545,413.971392 64.2063538,413.463695 64.1539871,412.951724 C64.1742943,412.814035 64.1742943,412.674112 64.1539871,412.536422 C63.9784268,412.634238 63.7824612,412.689733 63.581681,412.698491 C63.3576056,412.678218 63.1321573,412.678218 62.9080819,412.698491 C62.5757194,412.812735 62.2617864,412.97482 61.9761853,413.179634 C61.7867463,413.310991 61.5733783,413.403909 61.3481681,413.453125 C60.8973944,413.493036 60.4434807,413.479435 59.9959052,413.412608 C59.8135776,413.372091 59.6363147,413.412608 59.4539871,413.361961 C59.3263235,413.324752 59.1959274,413.297657 59.0640086,413.280927 C58.8131302,413.256519 58.5663656,413.200359 58.3296336,413.113793 C58.0206897,413.032759 57.8231681,412.79472 57.5192888,412.708621 C57.42422,412.695053 57.332898,412.662315 57.2508621,412.612392 C57.1602796,412.531874 57.0618735,412.460615 56.9571121,412.399677 C56.8105595,412.343986 56.6737945,412.265346 56.5519397,412.166703 C56.459315,412.066924 56.3537001,411.980047 56.237931,411.908405 C56.0729166,411.801664 55.9170636,411.681386 55.7719828,411.548815 C55.5562454,411.371097 55.3714188,411.158889 55.225,410.920797 C55.1540948,410.80431 55.0983836,410.672629 55.0224138,410.561207 C54.946444,410.449784 54.8046336,410.394073 54.7134698,410.29278 C54.622306,410.191487 54.5564655,409.99903 54.4349138,409.872414 C54.3133621,409.745797 54.2424569,409.674892 54.1512931,409.568534 C53.9932078,409.371074 53.8541546,409.159102 53.7359914,408.935453 C53.5846552,408.731149 53.4855509,408.492951 53.447306,408.241595 C53.4361025,407.891905 53.4632764,407.542042 53.5283405,407.198276 C53.5759264,406.692928 53.5759264,406.184227 53.5283405,405.678879 C53.5293495,405.482349 53.4968061,405.287088 53.4321121,405.101509 C53.2599138,404.655819 53.5131466,404.296228 53.5131466,403.840409 C53.5131466,403.546659 53.5992457,403.283297 53.594181,402.994612 L53.594181,402.108297 C53.619534,401.855699 53.619534,401.601197 53.594181,401.348599 C53.5480167,401.197407 53.522463,401.040677 53.5182112,400.882651 C53.5154726,400.769882 53.5001844,400.657769 53.4726293,400.548384 C53.4169181,400.30528 53.3460129,400.082435 53.2751078,399.839332 C53.1875624,399.584991 53.0702616,399.34189 52.9256466,399.115086 C52.7939655,398.877047 52.7230603,398.608621 52.6065733,398.360453 C52.3786638,397.853987 52.1001078,397.347522 51.9127155,396.841056 C51.8519397,396.694181 51.7405172,396.623276 51.6544181,396.48653 C51.568319,396.349784 51.553125,396.238362 51.4619612,396.121875 C51.3707974,396.005388 51.2897629,396.010453 51.1884698,395.919289 C51.0871767,395.828125 51.0567888,395.721767 50.9858836,395.640733 C50.870181,395.497195 50.7394432,395.366457 50.5959052,395.250754 C50.5148707,395.189978 50.3983836,395.159591 50.3072198,395.09375 C50.2232242,395.027594 50.1497895,394.949036 50.0894397,394.860776 C49.9742367,394.66375 49.8210159,394.491592 49.6386853,394.35431 C49.4603387,394.26385 49.2758709,394.186001 49.0866379,394.121336 C48.8817133,394.05871 48.6676478,394.03107 48.453556,394.040302 C48.3660084,394.020362 48.2741963,394.032964 48.1952586,394.075754 C48.1142241,394.13653 48.1446121,394.2125 48.0939655,394.273276 C48.043319,394.334052 47.9673491,394.339116 47.8863147,394.389763 C47.7652728,394.48622 47.6365383,394.572608 47.5014009,394.64806 C47.2405631,394.782187 47.0001186,394.952715 46.7872845,395.154526 C46.1896552,395.716703 45.5717672,396.253556 44.958944,396.800539 L30.8943966,409.467241 L35.4525862,413.843103 L61.7128233,438.882759 C65.3941006,435.033313 67.0358651,429.668462 66.1393319,424.418103 Z" id="Path" fill="#BEBF24" fill-rule="nonzero"></path>
            <path d="M242.014547,348.650862 C240.662284,347.637931 239.213793,346.77694 237.810884,345.850108 C236.845963,345.223977 235.91448,344.547764 235.020259,343.824246 C234.63028,343.500108 234.245366,343.165841 233.890841,342.811315 C233.627478,342.547953 233.384375,342.112392 233.034914,341.990841 C232.685453,341.869289 232.234698,342.168103 231.91056,342.314978 C231.524254,342.526523 231.180748,342.808198 230.897629,343.145582 C230.79143,343.249145 230.691641,343.359083 230.598815,343.474784 L230.426616,343.697629 C230.356531,343.814583 230.28046,343.927844 230.198707,344.036961 C230.069476,344.153678 229.934234,344.263562 229.793534,344.366164 C229.697442,344.472577 229.609411,344.586002 229.530172,344.705496 C229.331823,344.895875 229.114612,345.065571 228.881897,345.211961 C228.608405,345.424677 228.375431,345.682974 228.10194,345.89569 C227.910916,346.015251 227.711139,346.120219 227.50431,346.209698 C227.090254,346.339174 226.65269,346.375493 226.222953,346.316056 C225.602217,346.336835 224.981296,346.280697 224.374353,346.148922 C224.019704,346.083259 223.669548,345.995297 223.32597,345.88556 C223.09806,345.794397 222.870151,345.682974 222.647306,345.586746 C222.424461,345.490517 222.338362,345.379095 222.171228,345.323384 C221.922713,345.284284 221.6785,345.221535 221.441918,345.135991 C221.35675,345.072139 221.267037,345.014586 221.173491,344.963793 C221.084631,344.937545 220.998209,344.903655 220.915194,344.8625 C220.722144,344.735775 220.551073,344.57839 220.408728,344.396552 C220.302371,344.234483 220.277047,344.067349 220.16056,343.890086 C220.044073,343.712823 219.750323,343.500108 219.57306,343.267134 C219.395797,343.034159 219.27931,342.877155 219.147629,342.679634 C219.015948,342.482112 218.924784,342.208621 218.752586,341.980711 C218.682167,341.885062 218.60606,341.793733 218.524677,341.70722 C218.433513,341.610991 218.438578,341.540086 218.372737,341.428664 C218.306897,341.317241 218.094181,341.11972 217.987823,340.922198 C217.871003,340.691475 217.737268,340.469713 217.587716,340.258728 C217.385406,339.938569 217.153072,339.638399 216.893858,339.362284 C216.812823,339.291379 216.706466,339.210345 216.63556,339.134375 C216.564655,339.058405 216.463362,338.850754 216.346875,338.724138 C215.966129,338.360304 215.532386,338.056342 215.060453,337.822629 C214.588223,337.579395 214.137533,337.296443 213.713254,336.976832 C213.521441,336.793475 213.316634,336.624213 213.100431,336.470366 C212.842923,336.328532 212.577429,336.201704 212.30528,336.090517 C212.219181,336.05 212.143211,335.994289 212.057112,335.943642 C211.665235,335.769919 211.23974,335.685166 210.811207,335.695474 C210.557974,335.695474 210.264224,335.695474 210.147737,335.953772 C210.078065,336.212526 210.078065,336.485104 210.147737,336.743858 C210.269289,337.473168 210.355388,338.212608 210.451616,338.946983 L213.728448,363.925862 L249.687505,363.925862 C249.691983,357.906673 246.845941,352.240889 242.014547,348.650862 L242.014547,348.650862 Z" id="Path" fill="#BEBF24" fill-rule="nonzero"></path>
            <path d="M231.343319,215.485884 C228.46153,214.376724 225.321444,214.194397 222.22694,214.077909 C207.53944,213.525862 192.85194,214.169073 178.199892,215.303556 C164.773491,216.346875 150.850754,216.924246 137.586422,219.051401 C126.150431,220.884806 112.318858,220.874677 101.880603,226.091272 C94.2025862,229.7125 89.1936422,236.438362 89.0265086,245.12931 C88.7935345,257.411099 93.3466595,269.262392 95.6105603,281.184591 C97.378125,290.407328 97.5503233,299.827586 97.1755388,309.182004 C96.8108836,318.227478 97.23125,326.032112 91.8677802,333.664547 C79.4644397,351.299677 69.9175647,371.305065 55.1996767,387.223276 C56.9897176,389.128218 58.6818059,391.122887 60.2693966,393.199569 C64.609806,396.132004 68.4690733,399.849461 72.4853448,403.141487 C72.8252171,403.416871 73.101629,403.762385 73.2956897,404.154418 C84.0732759,393.17931 101.799569,375.341595 110.409483,367.374892 C120.356466,358.207866 134.213362,348.782543 140.331466,336.450108 C140.513793,336.085453 140.685991,335.720797 140.837931,335.351078 C147.011746,322.005711 148.044935,305.621552 148.627371,291.065733 C148.829957,286.03653 149.017349,280.865517 149.098384,275.643858 L199.744935,256.307004 C202.034159,275.436207 204.419612,294.48944 207.083621,313.537608 L208.891703,327.176724 C211.34806,327.039978 213.799353,326.781681 216.240517,326.437284 L219.157759,325.870043 C222.105388,325.231897 225.047953,324.619073 228.010776,324.188578 C228.552694,324.072091 229.089547,323.955603 229.631466,323.849246 C229.8681,323.801312 230.109242,323.779235 230.350647,323.783405 C231.247091,323.63653 232.143534,323.489655 233.039978,323.352909 C233.333728,319.037823 233.605532,314.721049 233.855388,310.402586 C235.308944,284.998276 238.828879,259.705388 238.818772,234.225108 C238.813685,227.296659 238.945366,218.40819 231.343319,215.485884 Z" id="Path" stroke="#070607" fill="#78C3C0" fill-rule="nonzero" stroke-linecap="round"></path>
            <path d="M396.841056,184.459806 C396.841056,184.459806 401.176401,204.921013 401.181466,204.926078 C400.983944,204.115733 412.257866,197.83556 413.483513,197.202478 C416.491918,195.652694 422.599892,192.644289 425.810884,195.004418 C426.975754,195.85528 427.750647,197.116379 428.525539,198.331897 C429.914785,200.573196 431.887948,202.39404 434.233405,203.599138 C438.558621,205.746552 443.380172,204.89569 447.528125,202.743211 L441.232759,184.657328 C440.958477,183.8669 440.263686,183.297367 439.434806,183.183513 L439.434806,183.183513 C436.600389,182.775818 434.229326,180.822719 433.286315,178.118858 C432.896151,176.966148 433.064963,175.697494 433.74298,174.68692 C434.420998,173.676347 435.530904,173.039095 436.745474,172.963039 L436.745474,172.963039 L434.040948,165.062177 L396.841056,184.459806 Z" id="Path" stroke="#070607" fill="#03523C" fill-rule="nonzero" stroke-linecap="round"></path>
            <path d="M297.725754,122.964763 C299.695905,126.636638 302.405496,129.255065 306.234375,129.250007 C310.539332,129.250007 314.008621,125.87694 316.920797,122.706466 C321.823384,117.368319 327.835129,110.586746 328.209914,102.95431 C328.594828,95.1851293 329.15194,87.1627155 329.055711,79.2669181 C328.949353,70.7279095 329.491272,60.1478448 327.131142,51.9633621 C325.611746,46.6606681 322.309591,41.6061422 317.320905,39.2358836 C312.259584,36.9128332 306.328556,37.579416 301.909159,40.9679957 C299.280603,43.0394397 297.447198,45.9364224 295.770797,48.8384698 C286.249246,65.2935345 288.852478,85.6585129 292.326832,103.334159 C293.243534,107.907543 294.453987,116.877047 297.725754,122.964763 Z" id="Path" stroke="#070607" fill="#E0A882" fill-rule="nonzero" stroke-linecap="round"></path>
            <path d="M373.305603,116.487069 C367.876293,105.442744 362.460489,94.4001078 357.05819,83.3591595 C354.941164,79.0542026 352.778556,73.5590517 349.577694,69.9428879 C345.976724,65.8911638 343.327909,68.1955819 338.237931,69.193319 C336.445043,69.5478448 334.591379,69.5427802 332.823815,69.9884698 C329.359591,70.8545259 326.563901,73.3412716 323.920151,75.7419181 C299.442672,97.950431 274.423276,119.019397 249.520366,140.675862 C243.260453,144.064116 242.070259,151.266056 243.295905,157.804526 C244.698815,165.295151 246.633513,172.719935 248.320043,180.149784 C250.553556,190.020797 265.281573,253.080819 265.387931,253.323922 C272.23028,253.891164 278.312931,253.622737 285.08944,254.68125 C285.12555,254.51471 285.145898,254.34514 285.150216,254.174784 C285.909914,228.851509 286.666236,203.538362 287.419181,178.235345 C306.067241,166.779095 324.391164,154.299784 343.76347,144.226185 C354.602846,138.574639 364.342331,131.02731 372.520582,121.941703 C373.229634,121.146552 373.964009,120.270366 374.075431,119.211853 C374.171659,118.269828 373.736099,117.342996 373.305603,116.487069 Z" id="Path" stroke="#070607" fill="#FF6B31" fill-rule="nonzero" stroke-linecap="round"></path>
            <path d="M398.588362,183.674784 L398.532651,183.674784 L360.547737,202.029095 C364.261818,190.636997 367.975898,179.243211 371.689978,167.847737 C375.685991,155.61153 380.472091,143.030927 380.892457,130.029957 C381.262177,118.675 378.537392,105.75 368.737284,98.715194 C356.268103,89.7456897 340.831034,94.1570043 327.713578,98.8924569 C325.940948,99.5306034 324.330388,101.627371 324.259483,103.526616 L323.125,132.724353 C323.097996,133.427321 323.174792,134.130428 323.352909,134.810991 C322.592945,135.615216 322.165867,136.677483 322.157651,137.783944 C322.476724,169.139224 322.998384,201.178233 322.962931,232.796875 C322.962931,235.795151 322.962931,238.874461 324.041703,241.670151 C325.940948,246.628448 330.884052,250.087608 335.882866,251.404418 C342.527694,253.151724 349.258621,251.343642 355.077909,247.950323 C361.277047,244.334159 366.96972,239.846875 372.535776,235.288685 C377.958333,230.899318 383.19181,226.285417 388.236207,221.446983 C394.06056,215.875862 401.358728,207.448276 406.671552,201.385884 C404.665948,194.609375 400.781358,190.431034 398.588362,183.674784 Z" id="Path" stroke="#070607" fill="#FF6B31" fill-rule="nonzero" stroke-linecap="round"></path>
            <path d="M278.647198,157.546228 C279.582067,159.110347 279.894813,160.968741 279.523384,162.752694" id="Path" stroke="#070607" fill="#FFFFFF" fill-rule="nonzero" stroke-linecap="round"></path>
            <path d="M320.364763,12.2817888 C316.777556,14.3439698 315.140179,18.6481743 316.449784,22.5731681 L314.930388,23.4544181 C314.287048,23.8236395 314.06483,24.644483 314.434052,25.2878233 C314.803273,25.9311636 315.624117,26.1533809 316.267457,25.7841595 L317.700754,24.9586207 C320.460148,28.7398604 325.717591,29.6583327 329.595574,27.0366391 C333.473557,24.4149455 334.580415,19.1939155 332.09981,15.2242013 C329.619206,11.2544872 324.441336,9.96067327 320.385022,12.2969828 L320.364763,12.2817888 Z" id="Path" stroke="#070607" fill="#E0A882" fill-rule="nonzero" stroke-linecap="round"></path>
            <path d="M94.3292026,160.184914 C98.4151053,159.549176 102.383603,161.878603 103.820366,165.756034 L105.567672,165.487608 C106.041742,165.414326 106.518896,165.599524 106.819395,165.97344 C107.119894,166.347355 107.198085,166.853182 107.024514,167.300379 C106.850943,167.747577 106.451979,168.068205 105.977909,168.141487 L104.347091,168.39472 C104.5509,173.068917 101.019916,177.066569 96.3563297,177.441568 C91.6927437,177.816567 87.5683546,174.434485 87.0226694,169.787778 C86.4769841,165.141071 89.7056195,160.895487 94.3292026,160.179849 L94.3292026,160.184914 Z" id="Path" stroke="#070607" fill="#FFC1A9" fill-rule="nonzero" stroke-linecap="round"></path>
            <path d="M98.1935345,164.86972 C98.5865315,164.981605 98.8144176,165.390893 98.7025323,165.78389 C98.5906471,166.176887 98.1813591,166.404773 97.7883621,166.292888 C97.3953651,166.181003 97.1674791,165.771715 97.2793643,165.378718 C97.3912496,164.985721 97.8005375,164.757835 98.1935345,164.86972 Z" id="Path" fill="#070607" fill-rule="nonzero"></path>
            <path d="M242.014547,348.650862 C239.315086,346.650323 235.572306,344.776401 233.348922,342.259267 C231.32306,339.970043 232.128341,335.467565 232.361315,332.550323 C232.964009,325.150862 233.429957,317.781789 233.855388,310.377263 C235.308944,284.972953 238.828879,259.680065 238.81875,234.199784 C238.81875,227.296659 238.945366,218.40819 231.343319,215.485884 C228.46153,214.376724 225.321444,214.194397 222.22694,214.077909 C207.53944,213.525862 192.85194,214.169073 178.199892,215.303556 C164.773491,216.346875 150.850754,216.924246 137.586422,219.051401 C126.150431,220.884806 112.318858,220.874677 101.880603,226.091272 C94.2025862,229.7125 89.1936422,236.438362 89.0265086,245.12931 C88.7935345,257.411099 93.3466595,269.262392 95.6105603,281.184591 C97.378125,290.407328 97.5503233,299.827586 97.1755388,309.182004 C96.8108836,318.227478 97.23125,326.032112 91.8677802,333.664547 C78.6996767,352.403772 68.752694,373.781681 52.419181,390.120259 L30.8943966,409.467241 L35.4525862,413.843103 L61.7128233,438.882759 C65.3946185,435.023824 67.0293181,429.648105 66.1190733,424.39278 L64.2096983,413.38222 C64.2096983,413.38222 97.4540948,379.302155 110.394289,367.374892 C120.341272,358.207866 134.198168,348.782543 140.316272,336.450108 C140.498599,336.085453 140.670797,335.720797 140.822737,335.351078 C146.996552,322.005711 148.029741,305.621552 148.612177,291.065733 C148.814763,286.03653 149.002155,280.865517 149.08319,275.643858 L199.729741,256.307004 C202.018966,275.436207 204.404418,294.48944 207.068427,313.537608 L210.411099,338.962177 L213.728448,363.925862 L249.687505,363.925862 C249.691983,357.906673 246.845941,352.240889 242.014547,348.650862 L242.014547,348.650862 Z" id="Path" stroke="#070607" stroke-linecap="round"></path>
            <path d="M48.7979526,393.852909 C51.7573016,395.707783 53.5759275,398.935177 53.6296336,402.427371 C53.6296336,404.220259 53.1738147,406.013147 53.4321121,407.785776 C54.0696223,411.283419 57.2644001,413.721192 60.80625,413.412608 C62.2800647,413.235345 63.758944,412.561746 65.197306,412.906142" id="Path" stroke="#070607" stroke-linecap="round"></path>
            <path d="M66.7318966,410.895474 C67.6711736,410.295978 68.722094,409.892838 69.8213362,409.710345 C70.7518472,409.521145 71.6945089,409.3976 72.6423491,409.340625 C73.4982759,409.289978 74.6378233,409.533082 74.7139369,410.389009 C74.7180013,410.694957 74.6297393,410.995048 74.4605603,411.25 C73.6559809,412.650424 72.2794411,413.629174 70.6924569,413.929203 C69.1730603,414.207759 67.5878233,413.81778 66.078556,413.422737 C65.843771,413.387405 65.6240516,413.285456 65.4454741,413.128987 C65.2298733,412.793819 65.172463,412.380835 65.2884698,411.999569 C65.6269223,409.53409 65.1427129,407.025814 63.9108836,404.86347 C63.5259698,404.2 62.9891164,403.516272 62.2294181,403.409914 C61.6768086,403.364021 61.1331184,403.570698 60.7505388,403.972091 C59.8946121,404.822953 59.8186422,406.230927 60.2440733,407.360345 C60.7437193,408.463811 61.4483717,409.462355 62.3205819,410.302909 C63.0600216,411.10819 64.0324353,412.668103 65.0605603,412.941595 C65.5063572,412.175735 66.0704323,411.48517 66.7318966,410.895474 L66.7318966,410.895474 Z" id="Path" stroke="#070607" stroke-linecap="round"></path>
            <path d="M208.440948,335.624569 C211.930032,335.428063 215.280625,337.014684 217.339547,339.838362 C218.382866,341.296983 219.041272,343.029095 220.277047,344.325647 C222.819459,346.813409 226.838012,346.956067 229.550431,344.654849 C230.644397,343.641918 231.459806,342.254203 232.847522,341.722414" id="Path" stroke="#070607" stroke-linecap="round"></path>
            <path d="M232.923491,339.159698 C233.344985,338.128608 233.970299,337.19322 234.761961,336.409591 C235.410356,335.717195 236.1077,335.072321 236.848599,334.479957 C237.522198,333.943103 238.590841,333.467026 239.147953,334.13556 C239.326796,334.382177 239.427377,334.67686 239.436638,334.981358 C239.592469,336.588712 239.037336,338.183794 237.917241,339.347091 C236.823276,340.461315 235.319073,341.048815 233.865517,341.605927 C233.6526,341.712486 233.413254,341.754724 233.176724,341.727478 C232.786746,341.651509 232.57403,341.251401 232.396767,340.90194 C231.246232,338.693999 229.400439,336.926523 227.14472,335.872737 C226.445797,335.553664 225.625323,335.31056 224.93653,335.660022 C224.456775,335.93951 224.130515,336.422375 224.050216,336.971767 C223.847629,338.161961 224.597198,339.35722 225.594935,340.01056 C226.640348,340.624737 227.794074,341.032238 228.993319,341.210884 C230.061961,341.443858 231.758621,342.152909 232.751293,341.778125 C232.671037,340.901686 232.729146,340.018078 232.923491,339.159698 L232.923491,339.159698 Z" id="Path" stroke="#070607" stroke-linecap="round"></path>
            <path d="M47.7141164,352.165733 C50.7443885,350.184348 52.8758325,347.092663 53.6498922,343.555819" id="Path" stroke="#070607" stroke-linecap="round"></path>
            <path d="M42.7001078,343.135453 C45.2475418,342.092368 47.4637478,340.376821 49.1119612,338.172091" id="Path" stroke="#070607" stroke-linecap="round"></path>
            <path d="M220.211207,163.978341 C219.625086,164.943726 219.865944,166.196187 220.768319,166.875323" id="Path" stroke="#070607" stroke-linecap="round"></path>
            <path d="M244.116379,154.684698 C245.541248,153.934602 247.082143,153.429531 248.674569,153.190625 C250.114624,152.917679 251.585613,152.84609 253.045366,152.977909 C254.662396,153.21189 256.249858,153.617669 257.780819,154.188362 C258.714534,154.455464 259.611182,154.838283 260.449892,155.327909" id="Path" stroke="#070607" stroke-linecap="round"></path>
            <path d="M248.456789,146.282435 C251.110668,145.411315 253.794935,144.535129 256.560237,144.357866 C259.373319,144.182595 262.184712,144.726398 264.729526,145.938039" id="Path" stroke="#070607" stroke-linecap="round"></path>
            <path d="M199.765194,256.307004 L149.118642,275.643858 C149.118642,275.643858 133.200431,279.406897 130.161638,271.465517 C135.732268,274.134104 142.055699,274.789178 148.055065,273.319181 L199.765194,256.307004 Z" id="Path" fill="#070607" fill-rule="nonzero"></path>
            <path d="M98.1935345,171.418319 C98.3150862,174.178556 100.660022,174.198815 100.624569,171.418319" id="Path" stroke="#070607" stroke-linecap="round"></path>
            <path d="M321.463793,23.7076509 C321.585345,26.4678879 323.93028,26.4932112 323.894828,23.7076509" id="Path" stroke="#070607" stroke-linecap="round"></path>
            <polygon id="Path" fill="#070607" fill-rule="nonzero" points="322.365302 147.725862 287.419181 178.245474 322.365302 156.589009"></polygon>
            <polygon id="Path" fill="#070607" fill-rule="nonzero" points="55.5440733 387.116918 73.9439655 403.663147 71.9181034 405.51681 53.5992457 389.056681"></polygon>
            <polygon id="Path" fill="#070607" fill-rule="nonzero" points="208.516918 324.462069 233.136207 321.985453 233.146336 324.73556 208.648599 327.207112"></polygon>
            <line x1="33.9331897" y1="406.782974" x2="55.6251078" y2="427.54806" id="Path" stroke="#070607" fill="#FFFFFF" fill-rule="nonzero" stroke-linecap="round"></line>
            <line x1="219.719935" y1="359.934914" x2="249.181034" y2="360.188147" id="Path" stroke="#070607" fill="#FFFFFF" fill-rule="nonzero" stroke-linecap="round"></line>
            <path d="M376.942026,58.1675647 C376.637447,57.8494111 376.233896,57.644064 375.797414,57.5851293 C371.816595,56.4962284 370.514978,53.3460129 369.152586,49.8767241 C361.839224,31.2185345 337.655496,30.7728448 320.997845,32.7176724 C312.387931,33.7306034 302.613147,35.3563578 296.869828,42.5836207 C296.712823,42.7760776 296.565948,42.9837284 296.419073,43.18125 L296.500108,43.2420259 C291.202478,49.9982759 287.788901,60.3706897 285.357866,68.4893319 C285.555388,67.8258621 299.614871,68.5855603 300.830388,68.5501078 C300.72403,70.9507543 299.18944,94.6887931 303.641272,94.6887931 C313.537608,96.6741379 323.420438,98.7 333.289763,100.766379 L341.19569,97.4237069 C342.937931,96.6893319 344.295259,94.5165948 343.864763,92.5920259 L343.803987,92.3185345 C344.671731,90.8058908 345.515841,89.2864943 346.336315,87.7603448 C350.700087,80.98661 353.963332,73.5643947 356.004741,65.7696121 C357.757112,65.4454741 359.514547,65.1010776 361.287177,64.7161638 C363.059806,64.33125 364.690625,63.9969828 366.397414,63.6576509 C367.536961,63.4196121 378.552586,60.4314655 376.942026,58.1675647 Z" id="Path" stroke="#000000" fill="#123EF5" fill-rule="nonzero"></path>
            <path d="M103.607651,147.097845 C103.04009,145.838267 102.155315,144.74757 101.039871,143.932435 C100.324555,143.315875 99.5069708,142.829095 98.6240302,142.494073 C101.551401,139.404634 99.712931,132.800323 94.2684267,133.408082 C93.9809898,133.439675 93.6964888,133.493866 93.4175647,133.570151 C93.5676257,131.693037 92.7763557,129.863818 91.3056034,128.687823 C92.9161638,125.360345 90.9206897,120.275431 86.1143319,120.812284 C83.9997158,120.961181 82.2272017,122.466997 81.7384698,124.529741 C78.0108836,125.461638 77.1802802,129.670366 78.6996767,132.466056 C77.7134524,133.095252 76.8373983,133.882331 76.1065733,134.795797 L75.7571121,135.231358 C74.1007186,137.493849 73.2970898,140.26888 73.4881466,143.066379 C73.8517601,145.069467 74.6448257,146.97006 75.8128233,148.6375 C73.9439655,150.744397 74.171875,154.345366 76.1622845,156.295259 C74.310223,158.443824 73.4708667,161.284722 73.8578664,164.094828 C74.759375,169.802694 79.6923491,174.168427 85.6331897,173.504957 C90.6522629,172.947845 95.0230603,168.399784 95.1344828,163.314871 C95.2914871,163.314871 95.4484914,163.284483 95.6105603,163.259159 L98.3809267,162.570366 C100.094855,161.885773 101.601142,160.766967 102.751724,159.323922 L104.169828,156.994181 C104.9399,155.267972 105.233695,153.367048 105.02069,151.488901 L104.975108,151.098922 C104.886511,149.666699 104.414182,148.284698 103.607651,147.097845 L103.607651,147.097845 Z" id="Path" fill="#070607" fill-rule="nonzero"></path>
            <path d="M332.798491,21.9502155 C333.10352,21.1589183 333.31431,20.3344558 333.426509,19.4938578 L333.456897,19.240625 C333.456897,19.078556 333.487284,18.9114224 333.497414,18.7341595 C333.540496,18.2049342 333.540496,17.673083 333.497414,17.1438578 C333.469891,16.86373 333.307949,16.614451 333.063188,16.4754509 C332.818427,16.3364507 332.521382,16.3250701 332.266703,16.4449353 C331.311905,13.8938251 329.254824,11.9112081 326.670259,11.0510776 C326.475509,10.9880182 326.263553,11.0062205 326.082406,11.1015608 C325.901259,11.1969011 325.766254,11.3613103 325.707974,11.5575431 C325.585481,11.5354424 325.459261,11.5477139 325.343319,11.5929957 C322.386316,11.246492 319.475137,12.5371147 317.746336,14.9609914 C317.709825,15.0009243 317.675987,15.0432215 317.645043,15.0876078 L317.553879,15.1939655 C317.540207,15.2130837 317.528338,15.2334295 317.518427,15.2547414 C317.380752,15.4502024 317.253943,15.6530957 317.138578,15.8625 C316.654663,15.9365767 316.162887,15.7914085 315.796776,15.4664116 C315.430665,15.1414146 315.228215,14.6703181 315.244397,14.1810345 C315.244397,13.1427802 313.608513,13.1377155 313.628585,14.1810345 C313.63105,15.203599 314.110559,16.1664801 314.925262,16.7844623 C315.739965,17.4024445 316.796455,17.6046746 317.781789,17.33125 C317.946082,17.3392296 318.106686,17.2808282 318.227478,17.169181 C318.600609,17.0120809 318.94341,16.790974 319.240409,16.5158405 C319.498284,16.2893089 319.561728,15.9128726 319.392349,15.6143319 C321.590409,13.5479526 325.373707,14.7280172 325.469935,18.3188578 C325.479052,18.640764 325.676772,18.9271515 325.974551,19.0497664 C326.27233,19.1723813 326.614381,19.1082525 326.847522,18.8860991 C328.046157,17.8529095 328.863254,18.5383261 329.298815,20.9423491 L328.741703,21.884375 C328.496917,22.2627392 328.310795,22.6759656 328.189655,23.1100216 C327.953723,23.9418775 328.263403,24.8324612 328.964547,25.3384698 C330.868858,26.6856681 332.580711,24.6446121 333.391056,23.1454741 C333.515359,22.9118828 333.519376,22.6326812 333.401845,22.3956105 C333.284314,22.1585397 333.059663,21.992703 332.798491,21.9502155 Z M326.720905,16.5209052 C326.79011,16.6049015 326.881287,16.6680238 326.984267,16.7032328 C327.075431,16.7792026 327.16153,16.8602371 327.257759,16.9311422 L327.288147,16.9311422 C327.151401,16.9665948 327.01972,17.0071121 326.888039,17.052694 C326.862716,16.875431 326.80194,16.7133621 326.741164,16.5209052 L326.720905,16.5209052 Z" id="Shape" fill="#070607" fill-rule="nonzero"></path>
            <g id="Group" transform="translate(395.043103, 153.965517)" fill="#070607" fill-rule="nonzero">
                <path d="M60.8011853,69.8213362 L36.6782328,1.70172414 C35.7007543,-1.05851293 31.6135776,0.972413793 32.5859914,3.72758621 L56.7241379,71.837069 C57.6914871,74.5922414 61.7887931,72.5613147 60.8011853,69.8213362 Z" id="Path"></path>
                <path d="M23.4797414,61.5355603 L4.71012931,24.4977371 C3.38318966,21.884375 -0.552047414,24.1887931 0.769827586,26.8021552 L19.5445043,63.8146552 C20.871444,66.4533405 24.8168103,64.1489224 23.4797414,61.5355603 Z" id="Path"></path>
            </g>
            <g id="Group" transform="translate(240.571121, 248.674569)" fill-rule="nonzero">
                <path d="M44.5689655,5.51034483 L23.8545259,2.61336207 C24.6800647,2.70959052 26.7515086,15.4522629 26.9237069,16.7943966 C27.3542026,20.1522629 28.1088362,26.9237069 24.7914871,29.1318966 C23.5962284,29.9371767 22.1426724,30.2359914 20.7397629,30.5550647 C18.1625244,31.0882004 15.7794072,32.3139036 13.8467672,34.1003233 C10.3521552,37.437931 9.51648707,42.2594828 10.1242457,46.8936422 L29.2686422,47.1318067 C30.1043603,47.1405338 30.8747728,46.6810238 31.2641164,45.9414871 L31.2641164,45.9414871 C32.6125195,43.4197618 35.252112,41.8578727 38.1115302,41.8897629 C39.3278827,41.9162718 40.4625789,42.507491 41.1812386,43.489196 C41.8998982,44.4709009 42.1206127,45.7312027 41.7783405,46.8987069 L41.7783405,46.8987069 L50.1400862,47.1012931 L44.5689655,5.51034483 Z" id="Path" stroke="#070607" fill="#03523C" stroke-linecap="round"></path>
                <path d="M68.3728448,45.3033405 L5.91045259,44.1283405 C2.97295259,44.0726293 2.97295259,48.630819 5.91045259,48.6865302 L68.3728448,49.8615302 C71.3052802,49.9172414 71.3052802,45.3590517 68.3728448,45.3033405 Z" id="Path" fill="#070607"></path>
                <path d="M64.9947198,43.2774784 L2.53232759,42.1024784 C-0.400107759,42.0467672 -0.400107759,46.6049569 2.53232759,46.6606681 L64.9947198,47.8356681 C67.9271552,47.8913793 67.9271552,43.3331897 64.9947198,43.2774784 Z" id="Path" fill="#070607"></path>
                <path d="M53.1788793,5.50021552 C42.0554601,5.22993775 31.011052,3.55200455 20.3092672,0.506465517 C17.4834787,-0.29375 16.2575431,4.10237069 19.0988147,4.90258621 C30.1963068,8.04987892 41.6470322,9.78220743 53.1788793,10.0584052 C56.1163793,10.1293103 56.1163793,5.57112069 53.1788793,5.50021552 Z" id="Path" fill="#070607"></path>
            </g>
            <path d="M285.140086,254.184914 L264.425647,251.287931 C265.251185,251.384159 267.322629,264.126832 267.494828,265.468966 C267.925323,268.826832 268.679957,275.598276 265.362608,277.806466 C264.167349,278.611746 262.713793,278.91056 261.310884,279.229634 C258.733645,279.762769 256.350528,280.988473 254.417888,282.774892 C250.923276,286.1125 250.087608,290.934052 250.695366,295.568211 L269.839763,295.806376 C270.675481,295.815103 271.445893,295.355593 271.835237,294.616056 L271.835237,294.616056 C273.18364,292.094331 275.823233,290.532442 278.682651,290.564332 C279.899003,290.590841 281.0337,291.18206 281.752359,292.163765 C282.471019,293.14547 282.691733,294.405772 282.349461,295.573276 L282.349461,295.573276 L290.711207,295.775862 L285.140086,254.184914 Z" id="Path" stroke="#070607" stroke-linecap="round"></path>
            <path d="M285.140086,254.184914 L264.425647,251.287931 C265.251185,251.384159 267.322629,264.126832 267.494828,265.468966 C267.925323,268.826832 268.679957,275.598276 265.362608,277.806466 C264.167349,278.611746 262.713793,278.91056 261.310884,279.229634 C258.733645,279.762769 256.350528,280.988473 254.417888,282.774892 C250.923276,286.1125 250.087608,290.934052 250.695366,295.568211 L269.839763,295.806376 C270.675481,295.815103 271.445893,295.355593 271.835237,294.616056 L271.835237,294.616056 C273.18364,292.094331 275.823233,290.532442 278.682651,290.564332 C279.899003,290.590841 281.0337,291.18206 281.752359,292.163765 C282.471019,293.14547 282.691733,294.405772 282.349461,295.573276 L282.349461,295.573276 L290.711207,295.775862 L285.140086,254.184914 Z" id="Path"></path>
            <circle id="Oval" stroke="#070607" fill="#F8B416" fill-rule="nonzero" stroke-linecap="round" cx="171.869073" cy="86.3371767" r="18.2530172"></circle>
            <path d="M365.668103,63.8146552 C364.199353,64.1134698 362.735668,64.4122845 361.271983,64.7262931 C354.363793,66.2203664 347.597414,67.1320043 340.937392,68.7273707 C336.191518,69.7875558 331.576819,71.367118 327.176724,73.4375 C326.898168,73.5742457 326.604418,73.7413793 326.300539,73.9439655 C325.682651,82.1740302 325.875108,90.5256466 325.976401,97.4591595 C326.022091,98.08764 325.962174,98.7193346 325.799138,99.3280172 C325.419289,100.472629 324.365841,101.232328 323.378233,101.926185 C314.566131,108.121524 306.358725,115.135126 298.865302,122.873599 C296.155711,125.674353 293.922198,128.88028 291.572198,131.989978 C290.44278,133.509375 289.282974,134.957866 288.02694,136.350647 C286.927909,137.571228 285.494612,139.495797 283.884052,140.022522 C282.364655,140.528987 281.250431,139.141272 280.034914,138.503125 C279.607631,138.287198 279.19784,138.038275 278.809267,137.758621 C275.213362,135.135129 269.73847,135.114871 265.732328,136.74569 C261.06778,138.670259 257.993534,142.823276 253.87597,145.603772 C251.971659,146.885129 249.793858,147.68028 247.767996,148.71347 C247.005863,149.02211 246.3071,149.468494 245.706681,150.03028 C244.931789,150.850754 244.562069,152.025754 243.842888,152.912069 C243.344979,153.506759 242.883263,154.130836 242.460237,154.780927 C242.085453,155.373491 242.120905,156.042026 241.953772,156.695366 C241.761691,157.21732 241.724752,157.783705 241.847414,158.326185 C242.222198,159.870905 243.270582,161.218103 244.329095,162.377909 C249.515302,168.004741 256.783082,171.620905 264.466164,171.777909 C268.517888,171.858944 272.569612,170.927047 275.704634,168.31875 C277.629203,166.728448 279.381573,164.484806 279.756358,161.967672 C286.537931,161.506789 294.950323,158.0375 301.296336,155.555819 C308.365191,152.790011 315.092944,149.221362 321.347306,144.920043 C332.702263,137.125539 345.475323,130.541487 354.576509,119.951293 C364.91347,107.927802 366.047953,95.175 365.855496,79.5505388 C365.799784,74.7137931 365.946659,69.178125 365.668103,63.8146552 Z" id="Path" stroke="#070607" fill="#E0A882" fill-rule="nonzero" stroke-linecap="round"></path>
            <path d="M225.883621,141.303879 C220.510022,145.077047 216.260776,150.298707 210.314871,153.256466 C210.188004,153.313358 210.090106,153.419906 210.044131,153.551124 C209.998157,153.682343 210.00815,153.826692 210.071767,153.950323 L216.534267,166.92597 C216.663419,167.182389 216.972789,167.289996 217.23319,167.169073 L219.922522,165.907974 C222.029418,168.749246 226.131789,169.564655 229.545366,168.734052 C235.349461,167.331142 239.674677,162.332328 245.635776,161.430819 C248.644181,160.975 251.515841,161.71444 254.357112,162.631142 C256.231034,163.238901 258.611422,163.973276 260.470151,162.924892 C262.075647,162.018319 262.571983,160.088685 262.121228,158.366703 C261.73979,157.134578 261.022467,156.033162 260.049784,155.186099 C262.313685,155.971121 264.607974,156.837177 266.998491,156.112931 C269.069935,155.484914 270.645043,153.656573 270.234806,151.402802 C269.611853,147.948707 266.071659,146.024138 262.435237,144.990948 C262.701226,144.348753 262.837218,143.660184 262.835345,142.965086 C262.891056,138.21444 256.87931,136.472198 253.2125,135.702371 C243.720167,133.752137 233.843306,135.776564 225.883621,141.303879 L225.883621,141.303879 Z" id="Path" stroke="#070607" fill="#FFC1A9" fill-rule="nonzero" stroke-linecap="round"></path>
            <path d="M320.278664,18.359375 C320.055288,18.6921625 320.137711,19.1423285 320.464508,19.3743814 C320.791304,19.6064343 321.243483,19.5358808 321.484052,19.2153017 C321.707428,18.8825142 321.625004,18.4323482 321.298208,18.2002953 C320.971411,17.9682424 320.519233,18.0387959 320.278664,18.359375 L320.278664,18.359375 Z" id="Path" fill="#070607" fill-rule="nonzero"></path>
        </g>
    </g>
</svg>