<?xml version="1.0" encoding="UTF-8"?>
<svg width="181px" height="299px" viewBox="0 0 181 299" version="1.1" xmlns="http://www.w3.org/2000/svg" xmlns:xlink="http://www.w3.org/1999/xlink">
    <!-- Generator: Sketch 57.1 (83088) - https://sketch.com -->
    <title>Group 13</title>
    <desc>Created with Sketch.</desc>
    <defs>
        <rect id="path-1" x="0" y="0" width="273" height="331"></rect>
    </defs>
    <g id="Engineering-Immersion-ðŸŽ" stroke="none" stroke-width="1" fill="none" fill-rule="evenodd">
        <g id="EI---1440" transform="translate(-966.000000, -834.000000)">
            <g id="Group-13" transform="translate(920.000000, 816.000000)">
                <mask id="mask-2" fill="white">
                    <use xlink:href="#path-1"></use>
                </mask>
                <g id="path-1"></g>
                <g id="courses-tfzeroadvanced-web" mask="url(#mask-2)" fill-rule="nonzero">
                    <g transform="translate(46.000000, 18.000000)">
                        <polygon id="Path" fill="#FFFFFF" points="59.283334 137 24 137 28.716666 123 64 123"></polygon>
                        <path d="M60.0617577,137 L24,137 L28.9382337,122 L65,122 L60.0617577,137 Z M24.8777705,136.370713 L59.5979756,136.370713 L64.1222295,122.629287 L29.4020244,122.629287 L24.8777705,136.370713 Z" id="Shape" fill="#000000"></path>
                        <polygon id="Rectangle" fill="#000000" transform="translate(132.281656, 30.807703) rotate(-155.971030) translate(-132.281656, -30.807703) " points="122.662683 22.2600426 141.903124 22.2572345 141.900628 39.3553627 122.660187 39.3581707"></polygon>
                        <polygon id="Path" fill="#FFFFFF" points="137.884002 43 120 35.0045652 127.11599 19 145 26.9954348"></polygon>
                        <polygon id="Path" fill="#000000" points="41.0375369 52 40 35 50 44.3439446"></polygon>
                        <polygon id="Path" fill="#070607" points="114.470471 13 112.292154 17.3382465 116 20.4697604 111.662197 18.2925067 108.530385 22 110.707846 17.6626094 107 14.5302396 111.337803 16.7074933"></polygon>
                        <polygon id="Rectangle" fill="#FFFFFF" transform="translate(54.612623, 171.182789) rotate(-155.971030) translate(-54.612623, -171.182789) " points="44.9936504 162.635129 64.2340921 162.632321 64.2315961 179.730449 44.9911544 179.733257"></polygon>
                        <path d="M59.8842249,183 L42,175.006074 L49.1157751,159 L67,166.995421 L59.8842249,183 Z M42.8204832,174.689743 L59.570311,182.178708 L66.1795503,167.311802 L49.4297225,159.821309 L42.8204832,174.689743 Z" id="Shape" fill="#000000"></path>
                        <circle id="Oval" fill="#FFFFFF" cx="141.5" cy="160.5" r="8.5"></circle>
                        <path d="M140.999249,170 C136.028785,169.999585 131.999725,165.969966 132,160.999502 C132.000275,156.029038 136.029781,152 141.000245,152 C145.970709,152 150,156.029528 150,161 C149.994273,165.968475 145.967733,169.994684 140.999249,170 Z M140.999249,152.626799 C136.374961,152.627227 132.626536,156.376219 132.626816,161.000506 C132.627096,165.624794 136.375974,169.373192 141.000262,169.373192 C145.624549,169.373192 149.373201,165.624288 149.373201,161 C149.367949,156.377493 145.621756,152.631637 140.999249,152.626799 L140.999249,152.626799 Z" id="Shape" fill="#070607"></path>
                        <circle id="Oval" fill="#FFFFFF" cx="63" cy="232" r="14"></circle>
                        <path d="M62.5,247 C54.4918711,247 48,240.508129 48,232.5 C48,224.491871 54.4918711,218 62.5,218 C70.5081289,218 77,224.491871 77,232.5 C76.9905799,240.504224 70.5042237,246.99058 62.5,247 Z M62.5,218.631904 C54.8408618,218.631904 48.6319035,224.840862 48.6319035,232.5 C48.6319035,240.159138 54.8408618,246.368096 62.5,246.368096 C70.1591382,246.368096 76.3680965,240.159138 76.3680965,232.5 C76.3596973,224.844344 70.1556564,218.640303 62.5,218.631904 Z" id="Shape" fill="#070607"></path>
                        <circle id="Oval" fill="#FFFFFF" cx="32" cy="86" r="5"></circle>
                        <path d="M31.5055104,91 C28.5159713,91.0030374 26.0714811,88.6174899 26.0015343,85.6287323 C25.9315874,82.6399747 28.2618029,80.1426805 31.2482113,80.0058635 C34.2346197,79.8690464 36.7834079,82.1428176 36.9870234,85.1254514 C37.1906389,88.1080852 34.9745047,90.7071511 31.9972099,90.9774678 L31.9964102,90.9774678 C31.8322141,90.9919078 31.6680714,91 31.5055104,91 Z M31.5095358,80.6717742 C31.3671046,80.6717742 31.2230561,80.6782107 31.0773904,80.6910838 C28.461391,80.9256593 26.5118323,83.2069187 26.6877835,85.8275447 C26.8637347,88.4481708 29.1007519,90.4483331 31.7246291,90.3310903 C34.3485064,90.2138474 36.3982225,88.0221408 36.3397496,85.3962655 C36.2812767,82.7703902 34.136031,80.6720991 31.5095358,80.6717742 Z" id="Shape" fill="#070607"></path>
                        <circle id="Oval" fill="#FFFFFF" cx="126" cy="59" r="2"></circle>
                        <path d="M126.495338,61 C125.158882,60.9972141 124.060864,59.9439677 124.002431,58.6087411 C123.943998,57.2735146 124.945808,56.1283674 126.27691,56.0088337 C127.649933,55.8943524 128.85955,56.9057631 128.990051,58.2774024 C129.049134,58.9377707 128.843364,59.5945499 128.418042,60.1031429 C127.992721,60.6117358 127.38272,60.930445 126.722336,60.9891032 L126.722336,60.9891032 C126.646673,60.9953226 126.570226,61 126.495338,61 Z M126.499231,56.6376072 C126.444629,56.6376072 126.389242,56.6407255 126.333847,56.6454029 C125.310968,56.7392791 124.55657,57.6426367 124.646518,58.6659043 C124.73889,59.6888469 125.64236,60.4436377 126.665382,60.352534 L126.666166,60.352534 C127.657775,60.2635334 128.403731,59.4098772 128.359034,58.4152515 C128.314337,57.4206259 127.494818,56.637325 126.499223,56.6376072 L126.499231,56.6376072 Z" id="Shape" fill="#000000"></path>
                        <path d="M155.01772,65.4151354 C144.099226,67.4034254 123.57206,68.1363908 123,83.1264584 C122.985024,86.7427923 123.981437,90.2930138 125.879532,93.3856327 C130.897444,101.901827 145.020969,108.429284 153.289898,100.245855 C161.731076,91.8918867 157.519739,77.5095021 161.909438,67.4263732 C162.342677,66.4312219 162.809965,63.7376553 164.000773,63.4269126 C166.815533,62.6924034 169.630629,61.9591769 172.44606,61.2272333 C173.46045,60.9630262 175.890432,60.8033769 176.656903,60.1306316 C177.537757,59.3575055 176.556283,58.5207992 175.583241,58.2531984 C174.831155,58.1529618 174.103417,57.9201174 173.434698,57.565758 C172.597477,56.9584034 172.410127,55.8279316 171.988741,54.8902045 C171.281776,53.3547223 169.869073,52.2496282 168.193716,51.9215254 C166.949179,51.6893779 165.528872,51.8688171 164.547422,51.0782001 C163.756436,50.4410091 163.510521,49.363852 162.93447,48.5316258 C162.41307,47.7846839 161.634839,47.2500587 160.744374,47.0270837 C159.396232,46.6950607 160.162098,49.5104989 160.18304,50.2888883 C160.214454,51.456304 160.286355,52.6343557 160.245399,53.8025124 C160.230724,54.2203477 159.810805,60.0130294 159.821012,60.7145584 C157.565001,61.0610997 157.267489,65.0054434 155.01772,65.4151354 Z" id="Path" fill="#000000"></path>
                        <path d="M138.983165,94.7894938 C141.989586,95.143024 144.87966,93.478878 146.166439,90.6532624 C147.424755,87.967776 147.257704,84.9590594 146.540493,82.1427593 C146.876712,81.7184551 147.213778,81.2948528 147.547141,80.8680703 C147.767255,80.5863476 147.368903,80.1968612 147.146639,80.4813656 C146.886236,80.8146824 146.62249,81.1451397 146.360357,81.4769748 C146.281409,81.2020111 146.199471,80.9285292 146.111881,80.6586435 C145.971353,80.2256045 145.760687,79.6445942 145.573227,79.014728 C146.679448,77.7737072 147.811878,76.5582148 148.970518,75.3682509 C150.103449,76.388522 150.49918,78.3600352 150.640649,79.8438131 C150.675025,80.2044868 151.223689,80.1947642 151.189087,79.8321754 C151.03287,78.1934331 150.532456,76.1299794 149.349763,74.9862168 C150.192106,74.1325132 151.047473,73.2922525 151.915863,72.4654349 C152.17567,72.2190066 151.774437,71.8329777 151.515352,72.0787041 C150.634756,72.9139619 149.768977,73.7646789 148.918017,74.630855 C148.269394,74.1977946 147.487894,74.0289877 146.725375,74.1572357 C145.598201,74.3182292 144.721546,75.2494897 144.598436,76.4166588 C144.507539,77.2662492 144.613813,78.1259624 144.908484,78.9248152 C143.402702,80.6264918 141.947889,82.3754009 140.544046,84.1715425 C140.324251,84.4534646 140.722569,84.8430116 140.944548,84.558256 C142.285782,82.8377407 143.675949,81.1614452 145.115051,79.5293696 C145.311582,80.0745049 145.523935,80.612032 145.688609,81.1413356 C145.7773,81.4264118 145.860823,81.716075 145.939177,82.0103251 C142.884651,85.8540107 139.714572,89.5946784 136.42894,93.2323282 C136.124871,93.0290111 135.839388,92.7975328 135.576032,92.540764 C134.179912,91.1632251 133.463742,89.2073252 133.628316,87.2214516 C133.792891,85.235578 134.820494,83.4335136 136.423011,82.3205139 C136.713826,82.1165463 136.425346,81.6349721 136.132263,81.8405254 C134.193349,83.1305322 133.015657,85.3423492 133.000149,87.722648 C132.984945,90.1029469 134.133996,92.3307428 136.056095,93.6472651 C135.485194,94.2763774 134.911017,94.9023412 134.333564,95.5251566 C134.089522,95.7881966 134.489394,96.1756293 134.734075,95.9118701 C135.336819,95.2621802 135.93568,94.6087497 136.530658,93.9515786 C137.286049,94.3963074 138.119806,94.681166 138.983165,94.7894938 Z M147.085429,74.6929777 C147.584159,74.6698443 148.079442,74.7887571 148.517036,75.0366931 C147.454041,76.1262302 146.41442,77.2389184 145.398173,78.3747579 C144.96316,76.6227061 144.919688,74.7542252 147.085446,74.6929777 L147.085429,74.6929777 Z M146.108269,82.690009 C146.829083,85.8150161 146.826823,89.2658964 144.780899,91.8648148 C142.858311,94.2504943 139.589007,94.9409389 136.912523,93.5265379 C140.083792,90.0115158 143.149046,86.3993395 146.108286,82.690009 L146.108269,82.690009 Z" id="Shape" fill="#FFFFFF"></path>
                        <path d="M133.892086,96 C133.846097,95.9996375 133.800308,95.9939956 133.755643,95.9831883 C133.540183,95.9303839 133.368965,95.7694265 133.305217,95.5597564 C133.246493,95.3638014 133.301573,95.1518801 133.448645,95.0079158 C133.952561,94.4881824 134.454143,93.9659001 134.953391,93.4410691 C133.030667,92.0401922 131.928126,89.7978877 132.003642,87.4419859 C132.079159,85.086084 133.323107,82.9168885 135.331714,81.638499 C135.458258,81.5499389 135.616132,81.516485 135.768409,81.5459621 C135.920687,81.5754393 136.05401,81.6652621 136.137195,81.7944208 C136.23028,81.9235822 136.266633,82.084281 136.238039,82.2401981 C136.209445,82.3961151 136.118316,82.5340891 135.98525,82.6229369 C134.418849,83.6675322 133.419497,85.3579206 133.269564,87.2164796 C133.115417,89.0401624 133.811921,90.8338153 135.161937,92.0897616 C135.351699,92.2671322 135.553467,92.4315827 135.765849,92.5819763 C138.9963,89.1547872 142.153886,85.5930707 145.15564,81.9885823 C145.089726,81.7608142 145.020756,81.5345822 144.947882,81.3113968 C144.832369,80.9567561 144.693598,80.5975242 144.553252,80.2352457 C143.197344,81.7225997 141.88951,83.2359477 140.662288,84.7386196 C140.542047,84.8975758 140.342289,84.9776482 140.143654,84.9465125 C139.925952,84.9096159 139.744295,84.7619206 139.666101,84.5582399 C139.586749,84.3603194 139.622672,84.135527 139.759905,83.9712484 C141.12511,82.297396 142.584127,80.6189524 144.096629,78.9802593 C143.821379,78.206451 143.728577,77.3809844 143.825267,76.5665319 C143.97375,75.292919 144.977719,74.2798391 146.265748,74.1039054 C147.030664,73.9854898 147.813863,74.1175836 148.495355,74.4799489 C149.383015,73.6254472 150.196286,72.8641863 150.974588,72.15796 C151.095108,72.0488597 151.255128,71.99223 151.418511,72.0008596 C151.581894,72.0094892 151.734861,72.0826502 151.842868,72.2038208 C151.948694,72.3114572 152.005316,72.4570506 151.999607,72.6068487 C151.993897,72.7566468 151.926353,72.8976405 151.812633,72.9971438 C151.049012,73.688086 150.267568,74.4187702 149.431852,75.225892 C150.471117,76.5820326 151.077259,78.2125537 151.173016,79.9096203 C151.190415,80.0582722 151.145449,80.2074782 151.048543,80.3226466 C150.951636,80.437815 150.811206,80.5089436 150.659809,80.5195423 C150.496553,80.5433428 150.330619,80.4990059 150.201894,80.3971885 C150.073169,80.2953712 149.993293,80.145281 149.981466,79.9829943 C149.946607,78.5564057 149.463351,77.1756777 148.59843,76.0314777 C147.577426,77.0373185 146.533942,78.1088868 145.490468,79.2232609 C145.602103,79.5687362 145.718386,79.8943278 145.820724,80.1847684 L145.982745,80.6464149 C146.010651,80.7274351 146.037788,80.8099829 146.064145,80.8910031 L146.488984,80.3758495 C146.583086,80.2581597 146.721562,80.1831075 146.872774,80.1678389 C147.023987,80.1525702 147.175019,80.1983896 147.291366,80.2948293 C147.420196,80.3939203 147.503379,80.5397746 147.522318,80.6997834 C147.541257,80.8597922 147.494373,81.0206107 147.392147,81.1462843 C147.112276,81.488696 146.829316,81.8280526 146.546389,82.1689367 L146.466547,82.2652411 C147.301484,85.5044127 147.152638,88.3140336 146.023877,90.6161557 C144.649328,93.4845212 141.576693,95.1735166 138.379171,94.8183707 L138.379171,94.8183707 C137.540718,94.7201495 136.727695,94.4709224 135.980576,94.0830953 C135.427826,94.6639765 134.872491,95.242309 134.314571,95.8180927 C134.204928,95.933177 134.05223,95.9989232 133.892086,96 L133.892086,96 Z M136.831786,93.1796777 C139.367134,94.2456769 142.311434,93.5482523 144.078815,91.4630617 C145.714585,89.4773658 146.194467,86.7731724 145.508384,83.4193995 C142.729857,86.7303752 139.814956,90.0092889 136.831786,93.1796777 L136.831786,93.1796777 Z M144.419925,77.3782026 C144.450042,77.8210458 144.533583,78.2587724 144.668782,78.6821218 L144.647073,78.599574 C144.53975,78.198783 144.463799,77.790459 144.419891,77.3782026 L144.419925,77.3782026 Z M146.682875,75.2488224 C146.173576,75.2088845 145.674681,75.4063078 145.334722,75.7823152 C144.98551,76.4244265 144.912871,77.1780127 145.133152,77.8734809 C145.952587,77.0082778 146.7728,76.1705878 147.58061,75.3711376 C147.291349,75.2770987 146.987163,75.2356624 146.682875,75.2488477 L146.682875,75.2488224 Z" id="Shape" fill="#FFFFFF"></path>
                        <path d="M166.395008,64.8669474 C166.736754,64.3908403 166.945504,63.8322907 167,63.248748 C167.032868,61.3143579 163.196175,63.4717789 162.777647,62.8525871 C162.707186,62.7483409 162.675751,62.4420488 162.607673,62.2909046 C162.051429,61.0557272 161.299526,59.7806327 160.620095,58.5921753 C159.906608,57.451044 159.091607,56.3766218 158.185006,55.3819781 C157.165226,54.1928051 155.891066,53.2481975 154.456834,52.6180716 C152.604139,51.7586454 150.45946,51.7972647 148.638908,52.7228352 C146.568467,53.8560566 143.983362,56.5720556 144,59.0780949 C144.143746,61.3674497 144.778683,63.5990288 145.861724,65.6211079 C147.224081,68.3120447 149.215804,70.6344032 151.667707,72.3909094 C153.036326,73.4002795 154.549341,74.1974771 156.155712,74.7556098 C157.65293,75.3662709 159.372012,74.8000892 160.213324,73.4192314 C160.507546,72.9184152 160.658882,72.3465389 160.650885,71.7657461 C161.687096,71.5025982 162.45416,70.6283616 162.580326,69.5667284 C162.712125,68.8137206 162.652789,68.0396743 162.407756,67.3155537 C163.771924,67.367557 165.070338,66.7281486 165.860775,65.6151025 C166.056438,65.378755 166.23497,65.1287338 166.395008,64.8669474 Z" id="Path" fill="#FFFFFF"></path>
                        <path d="M156.983842,75.9998097 C156.500192,75.997011 156.020176,75.9157614 155.562539,75.7590564 C153.900803,75.1813295 152.335541,74.3560621 150.919517,73.3110731 C148.389117,71.493439 146.333109,69.092325 144.925403,66.3108285 C143.812198,64.2069326 143.156089,61.8910248 143.000083,59.5152114 C142.982225,56.7157345 145.841989,53.8865532 147.877213,52.771163 C149.812872,51.7869374 152.091647,51.7426302 154.064006,52.6508704 C155.565512,53.3118952 156.899527,54.3022451 157.967511,55.5487669 L158.043966,55.6378111 C158.950038,56.6363298 159.763867,57.7150197 160.475469,58.8606448 L160.718847,59.2871239 C161.349934,60.3884814 162.002857,61.5273316 162.507565,62.6505619 C162.550352,62.7583229 162.583501,62.8696742 162.606622,62.9833048 C162.619751,63.0511642 162.637737,63.1179904 162.66044,63.1832662 C163.078594,63.1308165 163.491474,63.0424881 163.894526,62.9192558 C164.890685,62.6661818 166.021019,62.3771675 166.620899,62.8520845 C166.885709,63.0756974 167.025615,63.414125 166.996118,63.759725 C166.940964,64.4104739 166.712824,65.0345712 166.335391,65.5672004 C166.164515,65.8465333 165.973957,66.1133051 165.765168,66.3654849 C164.976837,67.4367796 163.766062,68.116387 162.442024,68.230765 C162.601134,68.8873808 162.621856,69.5699904 162.502871,70.2350709 C162.355573,71.3482741 161.598799,72.2854596 160.542534,72.6627424 C160.438362,74.5489902 158.870371,76.0192382 156.983825,75.9998097 L156.983842,75.9998097 Z M150.97958,52.6412505 C150.004575,52.6328322 149.043179,52.8708785 148.184565,53.3335371 C145.987086,54.5364364 143.62501,57.2406504 143.639764,59.5120632 C143.794632,61.7890539 144.427259,64.0077598 145.496419,66.0233494 C146.858359,68.7129107 148.846888,71.0346625 151.293953,72.792393 C152.657937,73.799028 154.16523,74.5947406 155.765356,75.1528846 C157.142968,75.7223185 158.729647,75.2059678 159.509707,73.9343655 C159.779586,73.4756844 159.917794,72.9513142 159.909104,72.4190179 L159.906761,72.1581297 L160.161846,72.103456 C161.089169,71.8650992 161.771523,71.0757029 161.874118,70.1225754 C161.999702,69.409245 161.943081,68.6756981 161.70952,67.9901627 L161.551166,67.5106141 L162.051972,67.573102 C163.598121,67.7605659 164.819691,66.5076762 165.272915,65.9562127 C165.462616,65.7287322 165.635226,65.4874928 165.789329,65.2344748 L165.789329,65.2329137 C166.10495,64.797091 166.300531,64.2858059 166.356651,63.7503755 C166.361904,63.462931 166.258153,63.3816924 166.223793,63.353575 C165.875879,63.0755058 164.820432,63.3426385 164.05206,63.5394777 C163.101114,63.7831849 162.411557,63.9581511 162.124491,63.5316721 C162.053994,63.4061799 162.006194,63.269203 161.983296,63.1270573 C161.970108,63.0541355 161.950531,62.9825187 161.924792,62.9130372 C161.432556,61.8179242 160.788213,60.6931413 160.16493,59.6058426 L159.919992,59.1793635 C159.22826,58.068264 158.437688,57.0220164 157.557915,56.0533796 L157.482244,55.9643354 C156.479065,54.7926915 155.225466,53.8620748 153.814322,53.2414311 C152.919304,52.8526402 151.955167,52.6485991 150.97958,52.6415124 L150.97958,52.6412505 Z" id="Shape" fill="#000000"></path>
                        <path d="M160.312009,73 C155.736337,72.9342897 151.659855,69.9444319 150.019318,65.4509218 C149.959029,65.2765228 150.044562,65.0837358 150.210361,65.02032 C150.37616,64.9569043 150.55944,65.0468739 150.619729,65.2212729 C152.20946,69.5810978 156.230149,72.4218161 160.668352,72.3208798 C160.754706,72.3101845 160.841177,72.339841 160.904942,72.4020213 C160.968706,72.4642017 161.003355,72.5526567 160.999743,72.6440384 C161.006487,72.8293934 160.86949,72.9855987 160.693304,72.993443 C160.566203,72.9983608 160.439102,73 160.312009,73 Z" id="Path" fill="#000000"></path>
                        <path d="M162.509304,68 C159.585938,67.9411751 157.002897,66.1181395 156.016326,63.4174442 C155.960382,63.2506337 156.052851,63.0709092 156.222862,63.0160184 C156.392874,62.9611275 156.576047,63.0518563 156.631991,63.2186668 C157.54739,65.7135264 159.964318,67.3728421 162.666781,67.3617859 L162.676323,67.3617859 C162.853373,67.3622433 162.997376,67.5018513 163,67.6755498 C163.002554,67.8492484 162.862773,67.9929282 162.685813,67.9984653 C162.627215,68 162.567866,68 162.509304,68 Z" id="Path" fill="#000000"></path>
                        <path d="M162.650096,66 C162.640326,66.0001873 162.630552,65.9996517 162.62086,65.9983401 C162.537539,65.9904122 162.460676,65.9482475 162.407254,65.881162 C162.353833,65.8140765 162.328249,65.7275917 162.336155,65.6408154 C162.433981,64.7958101 162.313104,63.9389238 161.986054,63.15897 C160.782969,60.350885 159.126121,57.7787929 157.08769,55.5547423 C157.009637,55.4700674 156.98102,55.3483658 157.012668,55.2356938 C157.044317,55.1230219 157.131395,55.0365921 157.240951,55.0091126 C157.350506,54.9816331 157.465802,55.0173019 157.543206,55.1026205 C159.631394,57.3799921 161.328843,60.0139074 162.561607,62.8896248 C162.933848,63.7729132 163.072783,64.7437809 162.964037,65.7017763 C162.948808,65.8706133 162.812872,65.9997188 162.650096,66 Z" id="Path" fill="#000000"></path>
                        <path d="M163.675194,63.9349197 C163.642982,63.934766 163.610959,63.9292756 163.580125,63.9186197 C163.197202,63.7830426 162.789378,63.7680252 162.399615,63.8751497 C162.316026,63.8993074 162.227447,63.8839031 162.153926,63.8324235 C162.080405,63.780944 162.028159,63.6977419 162.009013,63.6016497 C161.988849,63.5059274 162.002826,63.4049681 162.047862,63.3210401 C162.092899,63.237112 162.165294,63.1771104 162.24908,63.1542697 C162.751497,63.0191064 163.276218,63.037847 163.770273,63.2085997 C163.924036,63.262434 164.020194,63.4367698 163.996396,63.618566 C163.972598,63.8003621 163.836009,63.9348897 163.675194,63.9349197 L163.675194,63.9349197 Z" id="Path" fill="#000000"></path>
                        <path d="M90.4164021,22 C93.4690383,22.0003617 96.0990265,24.0112811 96.7057961,26.8089437 L98.0121825,26.8089437 C98.558213,26.8104602 99,27.2248189 99,27.7354326 C99,28.2460462 98.558213,28.6604049 98.0121825,28.6619215 L96.7930249,28.6619215 C96.4121726,31.8698539 93.3856906,34.2212011 89.9435366,33.9834549 C86.5013826,33.7457087 83.8771619,31.004073 84.0044399,27.7786265 C84.1317179,24.5531799 86.9648806,21.9998638 90.4164108,22 L90.4164021,22 Z" id="Path" fill="#FFFFFF"></path>
                        <path d="M90.458523,34 C87.0910837,33.9996746 84.2889403,31.3958906 84.02078,28.0179562 C83.7526198,24.6400219 86.1084382,21.6215828 89.4331201,21.0832881 C92.757802,20.5449933 95.9355736,22.6674963 96.7338443,25.9596012 L97.7363764,25.9596012 C98.1874374,25.9584312 98.6047332,26.1999167 98.8305999,26.5928189 C99.0564667,26.9857211 99.0564667,27.4701346 98.8305999,27.8630368 C98.6047332,28.255939 98.1874374,28.4974245 97.7363764,28.4962546 L96.840768,28.4962546 C96.3579391,31.6662928 93.6454587,34.0053993 90.458523,34 L90.458523,34 Z M90.458523,21.6265248 C87.3187169,21.6265248 84.7415134,24.126121 84.6256376,27.2835944 C84.5097619,30.4410679 86.8967358,33.125076 90.0279834,33.3582063 C93.1592311,33.5913367 95.9127323,31.2900517 96.2598765,28.1497969 L96.290206,27.8704904 L97.7363429,27.8704904 C98.088992,27.8704904 98.3748706,27.5828072 98.3748706,27.2279321 C98.3748706,26.8730569 98.088992,26.5853738 97.7363429,26.5853738 L96.2310292,26.5853738 L96.1802176,26.3335378 C95.6237807,23.5974967 93.2337525,21.6313145 90.458523,21.6265248 L90.458523,21.6265248 Z" id="Shape" fill="#070607"></path>
                        <path d="M91.5,27 C91.7789094,27.0093673 92,27.2304579 92,27.5 C92,27.7695421 91.7789094,27.9906327 91.5,28 C91.2210906,27.9906327 91,27.7695421 91,27.5 C91,27.2304579 91.2210906,27.0093673 91.5,27 L91.5,27 Z" id="Path" fill="#070607"></path>
                        <path d="M92.3019452,32.9998785 C91.6661283,32.9989355 91.034386,32.9149161 90.4295442,32.7508562 C88.9657347,32.3779593 87.7424006,31.5284006 87.0345242,30.3931449 C86.9823296,30.3062289 86.9897299,30.2025797 87.0539202,30.1214834 C87.1181104,30.0403872 87.2292662,29.9942559 87.3452559,30.0005748 C87.4612457,30.0068937 87.564317,30.0646956 87.6154026,30.1520718 C88.961333,32.2097267 91.9959413,33.0261936 94.5225464,32.0104515 C94.6807629,31.9398563 94.8774064,31.9899654 94.9617618,32.1223733 C95.0461172,32.2547813 94.986241,32.4193478 94.8280245,32.489943 C94.0484752,32.8301933 93.1811239,33.0052841 92.3019452,32.9998785 L92.3019452,32.9998785 Z" id="Path" fill="#070607"></path>
                        <path d="M70.9943584,81.9656093 C71.0218457,78.859473 71.1405941,66.3181668 65.8662612,67.0290542 C62.972382,67.4193965 61.2810824,70.3579663 60.1459479,72.9925848 C57.5775176,78.696581 55.7927208,84.7085982 54.8381715,90.8716191 C54.4802257,93.470447 53.671669,95.7795611 54.1444913,98.4034244 C55.9619517,108.486837 66.0692855,103.031093 69.0710821,96.9604127 C69.6543838,95.6351457 70.0156879,94.2265326 70.1410999,92.7887435 C70.6427333,89.2005967 70.9276478,85.5866061 70.9943584,81.9656093 L70.9943584,81.9656093 Z" id="Path" fill="#FFFFFF"></path>
                        <path d="M59.4674301,104 C59.2204716,104 58.973794,103.983392 58.7291366,103.949846 C57.0468235,103.717313 54.8814458,102.537915 54.1218166,98.2413311 C53.8848922,96.4144913 53.9942187,94.5595168 54.4441065,92.7729436 C54.5675438,92.113339 54.6948175,91.4324464 54.7884976,90.7409222 C55.7096181,84.6540407 57.4391247,78.7165576 59.931439,73.0849461 C60.9440256,70.6896841 62.6438295,67.455467 65.6945874,67.0344707 C66.5642301,66.8992689 67.4483053,67.1660703 68.0969123,67.7594584 C70.0885591,69.5057557 71.0638166,74.303882 70.996764,82.0185902 L70.6843848,82.0277113 L70.996764,82.0307489 C70.9368114,85.6025204 70.6610056,89.1674381 70.1708478,92.7061004 C70.0473613,94.1528926 69.6891705,95.5700903 69.110256,96.9023778 C67.4005161,100.425348 63.1574001,104 59.4674301,104 Z M66.1471629,67.6256837 C66.0243107,67.626182 65.901627,67.6348131 65.7799217,67.6515242 C63.0446307,68.0284422 61.4598425,71.0711585 60.5059291,73.3281191 C58.0358163,78.9083588 56.3211834,84.7916158 55.4071733,90.8229952 C55.3111712,91.5312008 55.1824084,92.2197293 55.0574567,92.8869362 C54.6246925,94.6001817 54.5156556,96.3788345 54.735924,98.1319033 C55.2860244,101.241496 56.6963413,103.039466 58.8152281,103.334311 C62.2873235,103.805461 66.8207006,100.191279 68.547965,96.6318165 C69.0960204,95.359293 69.4350945,94.007066 69.5521721,92.6270398 C70.0387583,89.1125428 70.3125297,85.5719909 70.3719971,82.0246402 L70.3727543,82.0124815 C70.4382841,74.4877637 69.5338903,69.8492102 67.6847114,68.2260182 C67.2668117,67.8390885 66.7173749,67.6245629 66.1471629,67.6256837 L66.1471629,67.6256837 Z" id="Shape" fill="#000000"></path>
                        <path d="M74.083372,29.3404959 C72.9862954,28.541314 71.5599397,28.3489034 70.2901096,28.8287975 C70.2922939,28.0690503 70.1036069,27.3209101 69.7413476,26.6529665 C69.2868664,25.6924123 68.2872982,25.1108817 67.2270903,25.1902172 C67.051074,24.6403968 66.7276392,24.1493051 66.2919335,23.7703089 C65.0622557,22.7348419 63.2624139,22.7442992 62.0436989,23.7926314 C60.7054585,24.8259497 59.5307992,26.0550555 58.5593466,27.4384868 C56.802612,29.8681121 55.658609,32.6855963 55.2245148,35.6516086 C54.8423929,37.8991253 54.9489934,40.2025221 55.5370688,42.405193 C56.3133254,44.7719288 59.6091786,46.5147971 61.9195343,46.9286575 C63.9286637,47.2258221 65.9630947,46.584796 67.4383726,45.1897343 C68.4950654,44.2540014 69.3175092,43.0836973 69.8396755,41.7727776 C70.7988693,41.7170543 71.7215029,41.3854431 72.4965028,40.8178658 C73.8781318,39.7141653 74.8326572,38.1645961 75.1965009,36.4347095 C75.7768355,34.2730072 76.8397671,31.5708349 74.82356,29.8767255 C74.5899174,29.6806014 74.342559,29.5014025 74.083372,29.3404959 Z" id="Path" fill="#FFFFFF"></path>
                        <path d="M63.3724435,47 C63.0124279,47.0003418 62.6530977,46.9687283 62.2987184,46.905529 C60.021417,46.49822 56.4239181,44.7404362 55.555448,42.1045302 C54.9513819,39.8219807 54.8385098,37.4380507 55.224231,35.1090164 C55.674811,32.0505855 56.8586607,29.145303 58.6755583,26.6391234 C59.682548,25.2100047 60.9006572,23.940697 62.288605,22.8742163 C63.6461505,21.7121253 65.6513425,21.7081809 67.0134865,22.864922 C67.4377505,23.2307224 67.7673664,23.692864 67.9744794,24.2122928 C69.0877206,24.2473122 70.0927843,24.8853319 70.5946821,25.8756112 C70.9176204,26.463212 71.1138476,27.1114807 71.1708091,27.7789407 C72.4586445,27.4675021 73.8187761,27.724317 74.9027952,28.4836001 L74.9035678,28.4836001 C75.1791141,28.6557995 75.4427613,28.8462001 75.6927365,29.0535216 C77.6870267,30.7245781 76.9577313,33.2768523 76.3722722,35.3273435 C76.3038481,35.5673887 76.2369866,35.8012434 76.1755595,36.0304553 C75.7994038,37.8618703 74.7816879,39.5004219 73.3042483,40.6533483 C72.5208065,41.2229873 71.5982174,41.5727718 70.6327575,41.6662001 C70.080226,42.9669572 69.2429453,44.1283727 68.1820695,45.0656183 C66.8694623,46.2731509 65.1588998,46.9611194 63.3724435,47 Z M64.7354039,22.6403689 C63.9854031,22.6563274 63.2611397,22.9157225 62.6726982,23.3791288 C61.3366975,24.4079609 60.1637856,25.6312025 59.1933746,27.0077502 C57.4357977,29.4311846 56.2908378,32.2409569 55.8555608,35.1988645 C55.4829065,37.431181 55.5867542,39.7166536 56.1603353,41.9063223 C56.8647509,44.0450882 59.9529844,45.8415884 62.4106694,46.2798758 C64.3596387,46.5649991 66.3320941,45.9426243 67.7606564,44.5917782 C68.8010077,43.6763289 69.6095322,42.5290798 70.1203756,41.2434745 L70.197342,41.0545096 L70.4010516,41.0452153 C71.3161444,40.9936191 72.1963454,40.6777277 72.9341489,40.1361233 C74.2894291,39.0674409 75.2198669,37.5543623 75.5597689,35.866338 C75.62275,35.6340309 75.6903927,35.3970724 75.7595894,35.1539319 C76.3232765,33.1824212 76.9616032,30.946086 75.2829821,29.5398624 C75.0563579,29.3510849 74.8168253,29.1782339 74.566118,29.0225604 C73.962776,28.6508725 72.4101084,27.8532868 71.011382,28.5207774 L70.5573194,28.736052 L70.5549842,28.2358509 C70.558292,27.5177909 70.3799426,26.8104687 70.0363952,26.1791607 C69.6418019,25.3124625 68.7442917,24.78487 67.7917434,24.8596643 L67.5328396,24.8875387 L67.4527568,24.6412859 C67.2923318,24.1378522 66.9955883,23.6882442 66.5951727,23.3419258 C66.0823146,22.8893275 65.4206314,22.6397225 64.7354039,22.6403689 L64.7354039,22.6403689 Z" id="Shape" fill="#000000"></path>
                        <path d="M68,25 C63.4165828,26.3888393 60.2218042,30.3823126 60,35" id="Path" fill="#FFFFFF"></path>
                        <path d="M60.3093992,35 L60.3010501,35 C60.2190218,34.9978692 60.1412212,34.9639024 60.0847787,34.9055786 C60.0283361,34.8472548 59.9978795,34.7693561 60.0001149,34.6890344 C60.1951541,30.2153358 63.2375879,26.3432062 67.6036472,25.0119585 C67.767945,24.9656009 67.9395844,25.0581041 67.9874902,25.2188265 C68.035396,25.3795489 67.9415194,25.5479373 67.7775508,25.5953992 C63.6677887,26.8485338 60.8035104,30.4928026 60.6186084,34.7038403 C60.6149305,34.8684704 60.4775642,35 60.3093992,35 L60.3093992,35 Z" id="Path" fill="#000000"></path>
                        <path d="M71,28 C68.6493814,28.8485375 67.0429791,31.2581409 67,34" id="Path" fill="#FFFFFF"></path>
                        <path d="M66.308531,35 C66.1386331,35.0002264 66.0006183,34.8532998 66,34.6715464 C66.0585903,31.6323395 67.903774,28.9636152 70.6031114,28.013979 C70.7657973,27.9617975 70.9372898,28.060215 70.9866264,28.2340738 C71.0359629,28.4079325 70.9445557,28.5917302 70.7822091,28.6451072 C68.3395852,29.5036685 66.6697774,31.9183712 66.6170619,34.6683107 C66.6167728,34.850418 66.4795081,34.9983403 66.3092871,35 L66.308531,35 Z" id="Path" fill="#000000"></path>
                        <path d="M70,42 C71.0768566,39.1624006 71.7532443,36.1186558 72,33" id="Path" fill="#FFFFFF"></path>
                        <path d="M70.3169578,42 C70.2702821,42.0003468 70.2241724,41.9900468 70.1823409,41.9699202 C70.1062866,41.9353558 70.04749,41.8728265 70.0189025,41.7961062 C69.9903151,41.7193858 69.994282,41.6347679 70.0299294,41.5608917 C71.291109,38.9503648 72.0816708,36.1487547 72.3671533,33.2781873 C72.3842444,33.1087633 72.5394231,32.9848831 72.7137547,33.0014931 C72.8880862,33.018103 73.0155548,33.1689133 72.9984637,33.3383373 C72.7054043,36.278672 71.8955026,39.1483586 70.6039948,41.8225464 C70.5516557,41.9306464 70.4398875,41.9997409 70.3169578,42 Z" id="Path" fill="#000000"></path>
                        <path d="M72,37 C72.9143756,36.1978309 73.6044264,35.1627548 74,34" id="Path" fill="#FFFFFF"></path>
                        <path d="M71.3716767,37 C71.2628373,37.0002618 71.1594318,36.9648655 71.0892908,36.9033361 C70.9557897,36.7878203 70.9740772,36.6141899 71.1301559,36.5153449 C72.1128269,35.8931275 72.8536812,35.0886863 73.276583,34.1846918 C73.3454746,34.0423168 73.55549,33.9666296 73.7496289,34.0142114 C73.9438936,34.0641159 74.0467144,34.2209604 73.9793393,34.3646154 C73.5132404,35.3612937 72.6965386,36.2482255 71.6131875,36.9342376 C71.545917,36.9768122 71.4602289,37.0001442 71.3716767,37 L71.3716767,37 Z" id="Path" fill="#000000"></path>
                        <path d="M56.9737611,94.3069022 C62.7253177,94.8291746 74.3795955,95.0481363 76.1594814,97.2719756 C77.8633435,99.4008453 76.4233062,111.309958 76.5786227,114.376021 C77.1392494,125.443114 77.9459304,138.546623 69.6305105,147.15253 C67.7340137,149.248925 65.310013,150.789889 62.6150942,151.612309 C59.820792,152.226757 56.9167232,152.109255 54.180366,151.271031 C50.2921228,150.248086 46.2905486,148.169216 44.7406445,144.434911 C43.5660538,141.60493 44.0260174,138.390076 44.5055939,135.361057 C46.7464962,121.207394 50.3989756,107.706589 54.6160637,94 C55.395941,94.1447364 56.1829735,94.2471846 56.9737611,94.3069022 Z" id="Path" fill="#FFFFFF"></path>
                        <path d="M58.8487954,151.999768 C57.0504626,151.974018 55.2628031,151.722552 53.5292083,151.251224 C50.0418965,150.356025 45.5175741,148.42485 43.7723645,144.316133 C42.5145696,141.35357 43.0688351,137.9304 43.5150475,135.180546 C45.4818139,123.034931 48.5423385,110.800606 53.7468767,94.2723892 L53.8323886,94 L54.1169077,94.0596805 C54.8928913,94.2004873 55.6760912,94.299589 56.4630272,94.3565451 L56.4630272,94.3565451 C57.6625123,94.4636641 59.1162069,94.557012 60.6833968,94.6580058 C68.5481105,95.1645208 74.6753916,95.6878823 76.0785533,97.4002146 C77.3651126,98.9733319 77.0152878,105.072887 76.7338846,109.974272 C76.6227156,111.917688 76.5263194,113.596379 76.5721827,114.480864 L76.5993934,114.996554 C77.1762257,126.07403 77.8307587,138.631257 69.4584154,147.098126 C67.5049619,149.215237 65.0019539,150.76801 62.218715,151.589368 C61.1180879,151.868592 59.985375,152.006454 58.8487954,151.999768 L58.8487954,151.999768 Z M54.2708241,94.7268698 C49.1269306,111.08985 46.0951617,123.230852 44.1431681,135.278506 C43.7101747,137.950322 43.1714803,141.275556 44.3600553,144.074378 C46.0049888,147.945911 50.3419695,149.785267 53.6901291,150.645269 C56.402505,151.467939 59.2852439,151.584459 62.0570217,150.983456 C64.7280471,150.190642 67.1289085,148.696063 69.0013273,146.6605 C77.1801056,138.389502 76.5333238,125.979178 75.9627319,115.028718 L75.9363024,114.51149 C75.8888854,113.594875 75.9860885,111.900893 76.0987768,109.939143 C76.3444198,105.654442 76.7160131,99.1784286 75.5825977,97.7950823 C74.2431793,96.159243 66.3816073,95.6527279 60.6414305,95.2824117 C59.0687985,95.1814094 57.6096274,95.0880954 56.4055071,94.980951 L56.4055071,94.980951 C55.4718714,94.8982568 54.781561,94.8156216 54.2708241,94.7268698 L54.2708241,94.7268698 Z" id="Shape" fill="#000000"></path>
                        <path d="M73.0148004,262.375707 C73.2750351,261.724207 73.5334625,261.070887 73.7900825,260.415749 C76.647276,253.089045 79.3359596,245.679619 82.8055416,238.614277 C84.6064258,234.947017 86.7280893,231.251037 90.0832538,228.936581 C95.5412825,225.171552 103.217209,225.737382 109.440056,226.762236 C115.000296,227.563145 119.749313,231.204791 121.985971,236.382705 C125.26919,243.567126 129.17054,250.728879 131.927327,258.129979 C134.30105,264.502679 136.971863,271.397493 136.971863,278.320865 C137.088958,280.867438 136.880054,283.536256 135.586827,285.729408 C135.310572,286.237141 134.93068,286.680488 134.472043,287.0304 C133.056156,288.031202 130.912695,288.355852 129.370602,289.236996 C127.466759,290.222409 125.355384,290.734268 123.213856,290.729571 C108.901767,291.569826 94.5595286,290.297664 80.2788987,289.026648 C75.7783181,288.626066 67.9988261,287.277717 68,281.460639 C68.0013935,274.617994 70.5433647,268.562874 73.0148004,262.375707 Z" id="Path" fill="#FFFFFF"></path>
                        <path d="M113.185925,292 C101.919527,292 90.6308322,290.995034 79.6327873,290.014805 C69.1914529,289.087142 67,285.192518 67,282.089494 C67.0015368,275.433536 69.4182873,269.392916 71.7543093,263.553294 L72.0649542,262.777154 C72.325615,262.121586 72.587057,261.466017 72.8438801,260.807427 C73.3590716,259.485506 73.8706687,258.162043 74.3786715,256.837038 C76.6747029,250.869093 79.0499344,244.700151 81.9180527,238.854349 C83.7442748,235.135978 85.9072757,231.368132 89.3390242,229.001052 C95.0891004,225.032208 103.331289,225.82536 109.028308,226.762294 C114.725848,227.575837 119.592484,231.309856 121.876399,236.620235 C122.972899,239.019778 124.160128,241.462616 125.308921,243.825061 C127.627248,248.596328 130.025549,253.531478 131.880978,258.513039 L132.147031,259.227336 C134.519189,265.589534 136.972084,272.169744 136.972084,278.932385 C137.122791,282.203928 136.666049,284.626672 135.534951,286.543835 C135.237442,287.095045 134.824823,287.575011 134.325417,287.950789 C133.434711,288.508477 132.472681,288.94175 131.465789,289.238691 C130.674491,289.486199 129.906433,289.803345 129.17053,290.186448 C127.216236,291.20603 125.045511,291.734909 122.843757,291.727913 C119.631116,291.918054 116.409289,292 113.185925,292 Z M100.868401,226.632427 C96.9468395,226.632427 92.903022,227.309617 89.6958069,229.523586 C86.3824766,231.808686 84.270988,235.493084 82.4824556,239.135697 C79.6266402,244.955217 77.2575558,251.111773 74.9661348,257.065821 C74.4555678,258.390832 73.9434585,259.715325 73.4298066,261.0393 C73.1729835,261.69793 72.9128293,262.355536 72.6493439,263.012117 L72.338699,263.789811 C69.9180938,269.839701 67.6320558,275.555636 67.630519,282.089451 C67.6297549,287.233325 74.1872089,288.895388 79.6881544,289.383957 C93.8111321,290.642478 108.414702,291.93965 122.806814,291.097031 C124.911691,291.105901 126.987704,290.604736 128.859079,289.635967 C129.62833,289.232587 130.432005,288.899357 131.260453,288.64028 C132.210573,288.360477 133.119279,287.954389 133.962487,287.432779 C134.388196,287.108068 134.739574,286.695226 134.992853,286.222179 C136.05859,284.414791 136.486889,282.103365 136.342329,278.946231 C136.341556,272.284084 133.909429,265.759538 131.557258,259.449896 L131.290441,258.7356 C129.446542,253.781892 127.055161,248.860655 124.742981,244.103302 C123.59266,241.737775 122.403894,239.290294 121.304296,236.883017 C119.103162,231.767954 114.415158,228.171268 108.926795,227.386868 C106.265137,226.918512 103.570311,226.666217 100.868401,226.632427 Z" id="Shape" fill="#000000"></path>
                        <path d="M136.457485,281.550311 C131.725157,270.989105 122.348177,263.116864 110.981082,260.162146 C100.077962,257.195726 87.9855795,260.079351 79.1523122,266.862483 C74.0114874,270.764817 69.9897225,275.908059 67.4795275,281.790248 C66.2545129,284.730434 67.4140669,288.561971 70.5291087,289.867782 C80.7760418,296.724901 94.8749205,298.342581 107.054706,297.943597 C113.63121,297.796926 120.124448,296.467486 126.2118,294.021329 C130.834,292.100431 139.20853,287.857881 136.457485,281.550311 Z" id="Path" fill="#FFFFFF"></path>
                        <path d="M103.664394,299 C93.4393381,299 80.4135729,297.404121 70.6321551,290.733652 C67.2772754,289.308103 66.2848573,285.160349 67.4960264,282.198768 C69.9993361,276.205005 74.0195906,270.965431 79.1617318,266.994922 C88.2669462,259.870244 100.462219,257.255456 110.984335,260.174075 C122.34953,263.168179 131.723973,271.187954 136.438735,281.950149 C137.147167,283.496828 137.186593,285.267002 136.547725,286.843667 C135.355752,289.802173 131.846583,292.532054 126.118512,294.958095 C120.051174,297.447757 113.577045,298.79917 107.020036,298.94472 C105.94396,298.980048 104.82106,299 103.664394,299 Z M102.169241,259.627713 C87.2701502,259.746819 73.8691314,268.712136 68.0778086,282.435086 C66.9802399,285.120455 67.8652021,288.875371 70.9330299,290.185836 C81.7337065,297.543765 96.5086998,298.670083 106.998543,298.315564 C113.478557,298.173299 119.876861,296.838501 125.872904,294.378043 C131.442109,292.021057 134.836897,289.406268 135.964409,286.608874 C136.538703,285.187191 136.500937,283.591666 135.860021,282.198726 L135.860021,282.198726 C131.220939,271.611675 121.997962,263.722973 110.817011,260.778654 C107.99948,260.0072 105.090542,259.620084 102.169241,259.627713 L102.169241,259.627713 Z" id="Shape" fill="#000000"></path>
                        <path d="M47.9644704,150.035776 C54.6726276,154.17857 61.8891052,156.625768 69.4284859,152.926364 C74.3940578,150.489975 79.6514241,144.854073 80.3709239,139.229168 C79.4364221,146.535255 81.18684,153.994719 82.7901346,161.087637 C83.3661806,163.636053 87.1805885,169.826829 86.3631059,172.088786 C78.6253913,193.514183 73.9894678,215.927409 72.5948316,238.654044 C72.5313032,238.645565 87.6298161,241.462719 95.3629149,242 C105.268118,241.773062 115.11301,239.90898 124.763861,237.719997 C125.726747,237.490558 126.686151,237.248324 127.64593,237.007336 C128.908519,218.476884 126.787969,199.871961 121.387111,182.094768 C119.885203,177.185709 118.137372,172.35464 116.150186,167.619711 C118.386072,162.127696 120.044852,156.41985 121.099982,150.587505 C121.127395,150.451691 121.094616,150.310703 121.010053,150.200711 C123.59052,130.711133 119.998346,110.905426 110.734629,93.5464235 C108.010014,88.4644504 104.811235,83.6490995 101.180594,79.1640547 C100.880916,78.7929799 100.411026,79.1149805 100.38838,79.5002232 C92.2818332,81.3707692 84.0508526,82.6590564 75.7589637,83.3551421 C75.3625798,83.3883783 75.21727,84.1625093 75.1701899,84.2372483 L74.5510142,85.2199955 C61.2323148,96.2953349 51.3852599,110.944859 46.1793427,127.428706 C44.8172362,131.637515 43.8160376,135.953797 43.1865124,140.331142 C42.8029683,142.243848 43.014009,144.227546 43.791496,146.017746 C44.7906064,147.709386 46.2331396,149.098358 47.9644704,150.035776 Z" id="Path" fill="#000000"></path>
                        <path d="M155.496817,53.1427455 C153.879403,51.0469671 151.495036,49.4333557 149.689985,47.4622773 C147.527731,45.1009592 145.51361,42.6048951 143.209352,40.3747193 C137.01405,34.3785492 127.908696,28.5452999 119.073307,30.3251298 C99.4476758,34.3713751 80.4063017,40.8419494 62.3911296,49.5866724 C61.9982678,49.7413862 61.644536,49.9805161 61.3551663,50.2870046 C60.7313861,51.0549649 61.0490934,52.1854745 61.3988361,53.1096837 C63.3979512,58.3924157 65.5221661,63.6257874 67.7714807,68.8097987 C69.8801716,73.6733173 72.8623101,78.1707254 75.2092303,82.9966266 C75.1932084,83.0611014 86.2964148,82.1886693 90.8953527,81.4661032 C93.6741568,80.9060923 99.7843983,79.3619617 100.098171,79.2515319 C100.165869,79.1603527 100.204204,79.1060769 100.193679,79.1200751 C101.152435,77.8434985 101.824674,75.8191388 102.666325,74.3796075 C107.479668,66.1467853 112.898517,57.5661171 120.262217,51.3473621 C121.753521,50.0879369 124.028219,48.2757592 126.109168,48.2485618 C128.39614,48.2186702 130.44152,50.30957 132.26016,51.5682557 C135.608114,53.8854121 138.725624,56.135918 141.390277,59.2623661 C141.502805,59.4222402 141.657298,59.5482454 141.836877,59.6266154 C143.208089,60.0716153 146.964112,57.9455969 148.26842,57.4533756 C150.80517,56.4960366 153.329723,55.5048795 155.811247,54.4120212 C156.179196,54.2522197 155.974428,53.7618086 155.496817,53.1427455 Z" id="Path" fill="#000000"></path>
                        <path d="M74.8835766,55.0928981 C75.1471719,51.5386496 74.962749,47.9660118 74.3345013,44.4562196 C74.3156869,44.2189283 74.226724,43.9922102 74.0785487,43.8039357 C73.9212777,43.6648174 73.7292259,43.5692441 73.5220358,43.5269908 C67.5782792,41.8347666 59.2808372,44.656577 53.4384491,45.8356968 C52.2327524,51.819624 51.7823106,57.9267857 52.0973138,64.0190212 C52.3891103,70.7349602 54.3431119,89.2209801 65.5045753,84.1220578 C68.9746237,82.5368141 69.546783,79.573124 70.6419171,76.1738112 C72.8435899,69.3223036 74.2661511,62.2522197 74.8835766,55.0928981 L74.8835766,55.0928981 Z" id="Path" fill="#000000"></path>
                        <path d="M80.5480454,143 C80.388047,143 80.2562829,142.866047 80.2485736,142.695802 C79.8905351,135.192342 79.4841732,126.68894 82.423178,119.196401 C82.4870698,119.033568 82.6627783,118.95674 82.8156339,119.024803 C82.9684894,119.092866 83.0406087,119.280044 82.9767169,119.442877 C80.0904174,126.801257 80.4923972,135.228223 80.8475091,142.664607 C80.8516218,142.749225 80.8239933,142.832114 80.7707081,142.895021 C80.7174229,142.957928 80.642851,142.995693 80.5634147,143 L80.5480454,143 Z" id="Path" fill="#000000"></path>
                        <ellipse id="Oval" fill="#FFFFFF" cx="59" cy="13" rx="1" ry="1"></ellipse>
                        <path d="M59.504526,12.9999447 C59.2363551,13.002524 59.0139636,12.7930045 59.0006283,12.5252126 C58.987293,12.2574206 59.1877693,12.0268528 59.4548703,12.0027889 L59.4548703,12.0027889 C59.5877969,11.9883862 59.7206925,12.0302044 59.8214062,12.1181265 C59.9228137,12.2025829 59.9863972,12.3239437 59.9980994,12.4553777 C60.0218766,12.7299489 59.8198276,12.9723544 59.5454099,12.9984858 C59.5318169,12.9996875 59.5181701,13.0001745 59.504526,12.9999447 L59.504526,12.9999447 Z M59.5015994,12.4028232 L59.494303,12.4028232 C59.467866,12.4044963 59.4432152,12.4167375 59.4259078,12.4367872 C59.4086004,12.4568369 59.4000933,12.4830075 59.4023042,12.5093991 C59.406682,12.55615 59.465827,12.6101553 59.5103389,12.5984595 L59.5103389,12.5984595 C59.562926,12.5924164 59.601495,12.546146 59.5979599,12.4933426 C59.59431,12.4426895 59.5523927,12.4033131 59.5015994,12.4028232 L59.5015994,12.4028232 Z" id="Shape" fill="#000000"></path>
                        <circle id="Oval" fill="#000000" cx="153.5" cy="187.5" r="1.5"></circle>
                        <path d="M152.994055,189 C151.961025,188.997337 151.100094,188.207593 151.007748,187.177934 C150.91156,186.078496 151.722098,185.10831 152.820385,185.008269 L152.820385,185.008269 C153.532125,184.943379 154.224309,185.263818 154.63571,185.848655 C155.047112,186.433492 155.115089,187.193678 154.813988,187.842322 C154.512887,188.490967 153.888554,188.929306 153.176609,188.991913 C153.115226,188.996769 153.054636,189 152.994055,189 Z M152.880163,185.667905 C152.245354,185.72486 151.739152,186.222644 151.671133,186.856828 C151.603114,187.491012 151.992222,188.084965 152.600493,188.275443 C153.208763,188.465922 153.86678,188.199874 154.172122,187.640007 C154.477464,187.08014 154.345088,186.382387 153.85595,185.97347 C153.582404,185.749182 153.23267,185.639664 152.880163,185.667905 L152.880163,185.667905 Z" id="Shape" fill="#FFFFFF"></path>
                        <circle id="Oval" fill="#FFFFFF" cx="58" cy="203" r="3"></circle>
                        <path d="M57.4943757,206 C55.6239307,205.998197 54.0859232,204.524277 54.0034575,202.654546 C53.9209919,200.784814 55.3232567,199.181059 57.1862713,199.014394 L57.1862713,199.014394 C58.4318024,198.901154 59.6429631,199.462046 60.3627438,200.485427 C61.0825245,201.508808 61.2013511,202.838886 60.6743865,203.97378 C60.1474219,205.108674 59.0548873,205.875617 57.8090309,205.985216 C57.7033315,205.995078 57.5984465,206 57.4943757,206 Z M57.2469114,199.683441 C56.1080877,199.785033 55.1425901,200.563101 54.8007031,201.654774 C54.4588162,202.746446 54.8078826,203.936693 55.6851062,204.670411 C56.5623298,205.404129 57.794921,205.536797 58.8080293,205.00654 C59.8211376,204.476284 60.4152078,203.38755 60.3131799,202.248098 C60.1716229,200.694034 58.8005442,199.54725 57.2469114,199.683441 L57.2469114,199.683441 Z" id="Shape" fill="#000000"></path>
                        <polygon id="Path" fill="#FFFFFF" points="151.764506 250 100 198.359446 128.234644 184 180 235.639706"></polygon>
                        <path d="M152.194955,251 L152.032561,250.838084 L100,198.711383 L128.805036,184 L128.967431,184.161916 L181,236.288617 L152.194955,251 Z M101.059009,198.877914 L152.316592,250.229006 L179.941025,236.12212 L128.683442,184.771028 L101.059009,198.877914 Z" id="Shape" fill="#000000"></path>
                        <polygon id="Path" fill="#000000" points="146.793774 111 155.856736 128.508072 175 123.793774 157.491928 132.856736 162.206226 152 153.143264 134.491082 134 139.20538 151.508072 130.142418"></polygon>
                        <polygon id="Path" fill="#000000" points="55.6013654 175 40.8974624 208.473233 70 230.601365 36.5276175 215.897462 14.3986346 245 29.1025376 211.527617 0 189.398635 33.4723825 204.102538"></polygon>
                        <path d="M101.327522,288 C101.320342,288 101.313159,287.999664 101.306051,287.99841 C101.237661,287.991635 101.174303,287.952004 101.129981,287.888276 C101.085658,287.824547 101.06402,287.741968 101.069847,287.658788 C101.642494,279.233669 101.619463,270.764286 101.001011,262.343962 C100.988517,262.171121 101.093302,262.018556 101.235324,262.002803 C101.304409,261.991258 101.374292,262.015697 101.427793,262.070111 C101.481295,262.124525 101.513452,262.203868 101.516361,262.288635 C102.137341,270.744751 102.160373,279.250124 101.585205,287.711035 C101.57401,287.874139 101.46205,287.999667 101.327522,288 Z" id="Path" fill="#070607"></path>
                        <path d="M94.5962199,294 C94.4561712,294 94.3355235,293.894621 94.3076982,293.74808 C92.528239,284.339362 92.5652075,274.641982 94.4163427,265.24904 C94.4505168,265.078918 94.6073942,264.970584 94.7667381,265.00707 C94.926082,265.043555 95.0275522,265.211044 94.9933781,265.381166 C93.1584315,274.688941 93.1214627,284.298551 94.8847336,293.622104 C94.9170629,293.792343 94.8144995,293.958484 94.6552176,293.993893 C94.635711,293.99741 94.615996,293.99945 94.5962199,294 L94.5962199,294 Z" id="Path" fill="#070607"></path>
                        <path d="M107.543108,293 C107.523438,293 107.503854,292.996784 107.484812,292.990684 C107.418407,292.971706 107.360843,292.920753 107.32485,292.849094 C107.288858,292.777434 107.277402,292.690972 107.293016,292.608829 C108.975568,283.643811 108.877924,274.307349 107.008451,265.39929 C106.991091,265.317665 107.000707,265.23084 107.035171,265.158015 C107.069634,265.085189 107.126107,265.032364 107.1921,265.011221 C107.25788,264.98882 107.328178,265 107.387059,265.042914 C107.445941,265.08558 107.48842,265.155871 107.504869,265.237856 C109.395638,274.246482 109.494571,283.688405 107.793192,292.754742 C107.765705,292.898302 107.662258,293 107.543108,293 L107.543108,293 Z" id="Path" fill="#070607"></path>
                        <path d="M115.021005,291 C114.988643,291 114.956474,290.995202 114.92556,290.985997 C114.750529,290.935192 114.651351,290.75764 114.703928,290.589222 C117.358151,281.956657 116.764731,272.700589 113.027917,264.447066 C112.954673,264.286117 113.030498,264.098502 113.19753,264.027386 C113.364563,263.956269 113.559942,264.028415 113.634577,264.188771 C117.434068,272.58195 118.037221,281.994399 115.33809,290.772812 C115.296285,290.907668 115.167315,291 115.021005,291 L115.021005,291 Z" id="Path" fill="#070607"></path>
                        <path d="M123.488292,293 C123.457967,293 123.427765,292.996552 123.398546,292.989297 C123.211983,292.945043 123.100709,292.774132 123.149817,292.607263 C125.418011,284.817954 124.307853,276.550047 120.042006,269.461845 C119.950481,269.310033 120.013464,269.120643 120.182898,269.038182 C120.352332,268.955721 120.564458,269.01122 120.657421,269.162333 C125.007371,276.391044 126.139494,284.822583 123.826767,292.766198 C123.786295,292.903723 123.647367,292.999685 123.488292,293 L123.488292,293 Z" id="Path" fill="#070607"></path>
                        <path d="M83.4233234,288 C83.2815896,288 83.1635221,287.876517 83.1521766,287.71596 C82.6388378,280.443248 83.4273735,273.127732 85.470199,266.210872 C85.5010654,266.106179 85.5787338,266.028153 85.6739473,266.006186 C85.7691607,265.984218 85.8674539,266.021646 85.9318009,266.104371 C85.9961478,266.187096 86.0167727,266.30255 85.9859062,266.407243 C83.9672221,273.244583 83.1877442,280.475677 83.6944628,287.664605 C83.7005739,287.746481 83.6777091,287.827747 83.6309325,287.890405 C83.584156,287.953063 83.5173281,287.991941 83.44525,287.998429 C83.4379962,287.999683 83.4306574,288 83.4233234,288 L83.4233234,288 Z" id="Path" fill="#070607"></path>
                        <path d="M77.0840239,289 C76.8958149,288.999665 76.7373545,288.883525 76.7144461,288.729102 C75.973451,283.669388 75.0513158,277.372574 78.2956356,272.16688 C78.3901502,272.015606 78.6151205,271.95631 78.7981209,272.034439 C78.9811213,272.112567 79.0528532,272.298535 78.9583386,272.449809 C75.819611,277.486956 76.7262768,283.678412 77.4554311,288.653856 C77.4660289,288.741289 77.4319391,288.828405 77.3614027,288.894144 C77.2908664,288.959882 77.1903032,288.99826 77.0840239,289 L77.0840239,289 Z" id="Path" fill="#070607"></path>
                        <path d="M76.4895828,259.979292 L76.3660773,259.979292 C74.2746714,260.082237 72.1820702,259.800699 70.1970938,259.14932 C68.1189152,258.445953 66.5546565,256.751932 66.0524713,254.660882 C65.8635363,253.468282 66.1896385,252.252581 66.9530427,251.303574 C67.5457123,250.516698 68.4540802,250.014181 69.4499366,249.922271 C69.5334851,249.914254 69.6167531,249.939982 69.6803709,249.993472 C69.7439888,250.046962 69.7824107,250.123551 69.786699,250.205422 C69.7995918,250.373997 69.6701252,250.520872 69.4974973,250.53351 C68.6783358,250.6143 67.9330502,251.031573 67.4478187,251.681091 C66.7986247,252.496025 66.518479,253.534539 66.6722859,254.556027 C67.0305206,256.586004 68.8477655,257.965792 70.4287567,258.58 C72.3410004,259.199589 74.3547318,259.465808 76.3668481,259.365026 L76.4895828,259.365026 C80.9668797,259.469452 85.4377704,258.975492 89.7779943,257.896876 C93.4078419,256.966555 96.7579601,255.203867 99.5500344,252.755248 C99.6551255,252.65787 99.7586834,252.561989 99.8607083,252.466109 C99.8001117,252.472097 99.7379735,252.476597 99.675073,252.481088 C97.4462187,252.644185 95.2070591,252.617616 92.9829211,252.401684 C92.147729,252.367734 91.3299537,252.157683 90.5857482,251.785954 C89.7475142,251.41637 89.239076,250.570769 89.3170233,249.675894 C89.3949706,248.781019 90.0423573,248.031419 90.9324717,247.805389 C94.9558672,246.313252 98.5543414,247.321519 101.638092,250.797182 C103.197111,249.239969 105.181613,248.153118 107.355269,247.666059 C108.386606,247.369303 109.483484,247.367744 110.515702,247.661568 C111.653845,248.019196 112.379096,249.107305 112.253173,250.268333 C111.93253,251.86535 110.66682,253.00394 108.688479,253.472863 C106.239908,254.05564 103.411622,253.454881 101.961048,252.10056 C102.919426,253.966136 104.524929,255.438882 106.491518,256.25641 C108.769672,257.009878 111.169873,257.349566 113.573347,257.258665 L113.59099,257.258665 C119.243725,257.258665 123.940654,256.424201 127.951802,254.707325 C132.513648,252.890618 136.232188,249.499402 138.399654,245.179145 C138.47192,245.025247 138.658119,244.95751 138.815885,245.027724 C138.973652,245.097938 139.043448,245.279605 138.971908,245.433825 C136.73985,249.891543 132.907576,253.392497 128.204175,255.270632 C123.56561,257.122129 118.582541,258.00843 113.573347,257.872906 C111.092129,257.964724 108.614739,257.610784 106.264455,256.828699 C104.029798,255.89921 102.233173,254.18543 101.22923,252.025655 C101.148686,252.102057 101.06738,252.179964 100.985285,252.257863 C100.663109,252.563487 100.331725,252.878101 99.981156,253.201698 C97.1157883,255.71797 93.6767164,257.529997 89.9498399,258.487139 C85.5538652,259.582129 81.0250496,260.084176 76.4895828,259.979292 L76.4895828,259.979292 Z M102.040796,251.267594 C102.06458,251.29756 102.088357,251.326022 102.112133,251.355989 C103.255878,252.765736 106.139391,253.447388 108.540401,252.876595 C109.539897,252.639888 111.27127,251.970221 111.636408,250.151477 C111.696895,249.288593 111.144694,248.497401 110.300124,248.236851 C109.380495,247.987672 108.407449,247.997542 107.493318,248.265321 C105.41607,248.728451 103.521615,249.771578 102.040796,251.267594 Z M94.4542133,247.740964 C93.3239553,247.755533 92.2058978,247.971302 91.1549358,248.377678 C90.491989,248.51923 90.000697,249.065845 89.9429816,249.726108 C89.8852661,250.38637 90.2745795,251.006387 90.9033677,251.255608 C91.570475,251.580593 92.3008825,251.762927 93.045864,251.790445 C95.2331583,252.004867 97.435503,252.031437 99.6275546,251.86985 C100.201474,251.914294 100.750099,251.631254 101.035946,251.143252 L101.073529,251.096808 C99.0544876,248.854087 96.8659637,247.740964 94.4542133,247.740964 Z" id="Shape" fill="#070607"></path>
                        <path d="M100.398737,173 C99.3547482,172.999704 98.311539,172.956946 97.2736486,172.871911 C97.1051615,172.857373 96.983765,172.742987 97.0017698,172.615734 C97.0243358,172.489829 97.1734304,172.399222 97.3412451,172.409429 C100.443732,172.667809 103.581695,172.531014 106.624119,172.004755 C106.788832,171.979634 106.950707,172.056417 106.99213,172.179318 C107.01049,172.239446 106.996429,172.302616 106.953043,172.354917 C106.909658,172.407218 106.840505,172.444362 106.760813,172.458169 C104.673694,172.817976 102.539623,172.999725 100.398737,173 L100.398737,173 Z" id="Path" fill="#070607"></path>
                        <path d="M86.8511485,19.5519438 C85.6140457,18.0453055 84.5628243,16.3920512 83.7206581,14.6286261 C82.6341833,12.4314234 82.6289678,8.32577814 84.7321975,6.75131117 C86.4275476,5.48219903 89.7498485,5.14084995 91.7618819,5.69063142 C92.4923745,5.8902458 92.4847921,6.22920143 93.1087575,5.82687376 C93.5670646,5.5313531 93.9628606,4.28666262 94.2349049,3.81793959 C95.2634529,2.04568902 96.1805571,1.0373882 98.1819518,0.429466699 C99.4755348,0.0365365002 101.462188,-0.337733126 102.606274,0.520560866 C103.640238,1.34985303 104.156101,2.675386 103.958374,3.99483712 C103.831259,6.15345899 101.236419,7.77709682 99.624251,9.00438644 C97.9895102,10.2488754 92.5999482,11.1412488 92.6389315,13.7333553 C92.6748586,16.0335943 95.4562516,17.0592372 92.852667,19.1845606 C91.8696911,20.0317087 90.7094028,20.6422151 89.4592261,20.9700801 C88.6246147,21.14901 87.7091715,20.5063372 86.8511485,19.5519438 Z" id="Path" fill="#000000"></path>
                        <path d="M24.5,181 C23.663304,181.027994 23,181.691298 23,182.5 C23,183.308702 23.663304,183.972006 24.5,184 C25.336696,183.972006 26,183.308702 26,182.5 C26,181.691298 25.336696,181.027994 24.5,181 L24.5,181 Z" id="Path" fill="#070607"></path>
                        <path d="M128.5,109 C127.663304,109.027994 127,109.691298 127,110.5 C127,111.308702 127.663304,111.972006 128.5,112 C129.336696,111.972006 130,111.308702 130,110.5 C130,109.691298 129.336696,109.027994 128.5,109 Z" id="Path" fill="#070607"></path>
                        <path d="M37.5,60 C36.663322,60.0279331 36,60.6912551 36,61.5 C36,62.3087449 36.663322,62.9720669 37.5,63 C38.336678,62.9720669 39,62.3087449 39,61.5 C39,60.6912551 38.336678,60.0279331 37.5,60 L37.5,60 Z" id="Path" fill="#070607"></path>
                        <path d="M128.5,174 C127.663304,174.027994 127,174.691298 127,175.5 C127,176.308702 127.663304,176.972006 128.5,177 C129.336696,176.972006 130,176.308702 130,175.5 C130,174.691298 129.336696,174.027994 128.5,174 L128.5,174 Z" id="Path" fill="#070607"></path>
                        <path d="M88.4490144,21.1059778 C86.8135345,22.0012024 85.4400931,23.3165962 84.4670062,24.9196887 C84.0239158,25.8121537 83.5947122,27.2227128 84.6961512,27.8295852 C86.4627586,28.8029544 86.1958916,25.2789326 87.7691153,25.5064752 C88.2767124,25.5800143 88.2385301,26.1034038 88.6095012,26.4428377 C89.0267019,26.8245908 89.6065718,27.0042774 90.0143783,26.5397744 C90.7829347,25.6644804 90.8355409,23.3040014 92.4283032,23.5562526 C92.835334,23.620719 93.0190677,24.0525705 93.424743,24.1722236 C93.9997766,24.3156853 94.6078514,24.2122693 95.1049095,23.8864757 C97.2066074,22.8906662 95.1145766,21.051826 93.8467432,20.431931 C92.0429509,19.5499876 90.1231454,20.1412673 88.4490144,21.1059778 Z" id="Path" fill="#000000"></path>
                    </g>
                </g>
            </g>
        </g>
    </g>
</svg>