<svg width="32" height="32" viewBox="0 0 32 32" fill="none" xmlns="http://www.w3.org/2000/svg">
<path fill-rule="evenodd" clip-rule="evenodd" d="M26.5729 8.82526C19.7431 11.3088 12.257 11.3088 5.42723 8.82526L4.57288 11.1747C11.9545 13.859 20.0456 13.859 27.4272 11.1747L26.5729 8.82526Z" fill="black"/>
<path fill-rule="evenodd" clip-rule="evenodd" d="M16 27.25C11 20.5833 11 11.4167 16 4.75L14 3.25C8.33333 10.8056 8.33333 21.1944 14 28.75L16 27.25Z" fill="black"/>
<path fill-rule="evenodd" clip-rule="evenodd" d="M24.5376 24.5376L30.6536 21.5447L17.9011 17.9011L21.5447 30.6536L24.5376 24.5376ZM22.1603 23.708C22.4899 23.0345 23.0345 22.4899 23.708 22.1603L21.5412 21.5412L22.1603 23.708Z" fill="black"/>
<path fill-rule="evenodd" clip-rule="evenodd" d="M24.5376 24.5376L30.6536 21.5447L17.9011 17.9011L21.5447 30.6536L24.5376 24.5376ZM22.1603 23.708C22.4899 23.0345 23.0345 22.4899 23.708 22.1603L21.5412 21.5412L22.1603 23.708Z" fill="white"/>
<path fill-rule="evenodd" clip-rule="evenodd" d="M23.5444 22.246C23.598 22.216 23.6526 22.1874 23.708 22.1603L21.5412 21.5412L21.6229 21.8273C20.7249 21.6613 19.8214 21.5354 18.915 21.4497L18.1817 18.8833C21.3172 19.0883 24.4307 19.7356 27.4272 20.8253L26.5729 23.1747C25.576 22.8122 24.5651 22.5026 23.5444 22.246ZM16.7986 21.3224L16.0814 18.8122C12.1861 18.8027 8.28958 19.4737 4.57288 20.8253L5.42723 23.1747C9.09612 21.8406 12.9544 21.2231 16.7986 21.3224Z" fill="black"/>
<path fill-rule="evenodd" clip-rule="evenodd" d="M24.5376 24.5376L30.6536 21.5447L17.9011 17.9011L21.5447 30.6536L24.5376 24.5376ZM22.1603 23.708C22.4899 23.0345 23.0345 22.4899 23.708 22.1603L21.5412 21.5412L22.1603 23.708Z" fill="black"/>
<path fill-rule="evenodd" clip-rule="evenodd" d="M26.389 18.2462C26.4617 17.5591 26.5 16.8122 26.5 16C26.5 11.6236 25.4824 9.1761 24.0186 7.77085C22.5347 6.34624 20.0838 5.5 16.0949 5.5C11.9986 5.5 9.49966 6.35164 7.9952 7.78026C6.51753 9.18345 5.5 11.6233 5.5 16C5.5 20.57 6.42007 22.9768 7.78768 24.319C9.16466 25.6705 11.5591 26.5 15.9051 26.5C16.7487 26.5 17.527 26.46 18.2444 26.3829L18.94 28.8174C17.9923 28.9403 16.9803 29 15.9051 29C6.79568 29 3 25.6087 3 16C3 6.57972 7.36496 3 16.0949 3C24.635 3 29 6.57972 29 16C29 17.0506 28.941 18.0304 28.8239 18.9419L26.389 18.2462Z" fill="black"/>
<path fill-rule="evenodd" clip-rule="evenodd" d="M17.7092 24.5094C17.2254 25.4584 16.6557 26.3757 16 27.25L18 28.75C18.228 28.446 18.4468 28.1375 18.6564 27.8247L17.7092 24.5094ZM19.7468 16.3484L22.2238 17.0562C22.4637 12.2226 21.0558 7.32434 18 3.25L16 4.75C18.5734 8.18114 19.8223 12.2745 19.7468 16.3484Z" fill="black"/>
<path d="M24 24L27 27" stroke="black" stroke-width="2.5" stroke-linecap="round"/>
</svg>
