<svg width="32" height="32" viewBox="0 0 32 32" fill="none" xmlns="http://www.w3.org/2000/svg">
<mask id="mask0" mask-type="alpha" maskUnits="userSpaceOnUse" x="0" y="0" width="32" height="32">
<path d="M32 0H0V32H32V0Z" fill="#C4C4C4"/>
</mask>
<g mask="url(#mask0)">
<path fill-rule="evenodd" clip-rule="evenodd" d="M28.5 23.4L25.9 22.8C25.9 22.8 23.9 23.3 22 23.7C22 23.1 22.1 22.5 22.1 21.9C22.1 21.7 22.1 21.4 22.1 21.2C22.3 21.2 22.5 21.1 22.7 21.1C23.4 20.9 24.1 20.8 24.6 20.7C24.8 20.6 25 20.6 25.2 20.6C25.3 20.6 25.3 20.6 25.4 20.6L26 20.5L26.6 20.6L28.7 21.1V14.1C28.7 10.1 27.8 8 26.5 6.8C25.2 5.6 23 4.8 19.3 4.8C15.5 4.8 13.3 5.6 11.9 6.8C11.1 7.6 10.4 8.6 10.1 10.3C9.2 10.3 8.3 10.5 7.5 10.6C8.5 4.6 12.5 2.2 19.3 2.2C27 2 31 5.3 31 13.8V21.4V24L28.5 23.4Z" fill="black"/>
<path d="M2 29V21.5C2 18.1 2.7 15.7 4.3 14.2C5.8 12.7 8 12 11.1 12C14.2 12 16.3 12.7 17.8 14.2C19.3 15.7 20 18.1 20 21.5C20 24.8 19.3 26.7 17.8 27.8C17.1 28.3 16.2 28.6 15 28.8C14 29 12.9 29 11.1 29H10.9C10.8 29 10.8 29 10.6 29C10.4 29 10.2 28.9 9.9 28.9C9.4 28.8 8.8 28.7 8.2 28.6C7.8 28.5 7.5 28.4 7.2 28.4L6 28L2 29ZM6.5 25.6L7.2 25.8C7.6 25.9 8.2 26 8.7 26.1C9.3 26.2 9.9 26.3 10.3 26.4C10.5 26.4 10.7 26.5 10.9 26.5H11C12.5 26.5 13.6 26.4 14.4 26.3C15.2 26.2 15.8 26 16.2 25.7C16.5 25.5 17.4 24.9 17.4 21.5C17.4 18.8 16.9 16.9 15.9 15.9C15 14.9 13.4 14.5 11 14.5C8.6 14.5 6.9 15 6 15.9C5 16.9 4.5 18.8 4.5 21.5V25.8L5.3 25.6V25.5H5.7L6 25.4L6.5 25.6Z" fill="black"/>
<path d="M11 24.2C8.69999 24.2 6.79999 22.3 6.79999 20H9.29999C9.29999 21 10.1 21.8 11.1 21.8C12.1 21.8 12.9 21 12.9 20H15.4C15.2 22.3 13.3 24.2 11 24.2Z" fill="black"/>
</g>
</svg>
