<svg width="32" height="32" viewBox="0 0 32 32" fill="none" xmlns="http://www.w3.org/2000/svg">
<g clip-path="url(#clip0)">
<path fill-rule="evenodd" clip-rule="evenodd" d="M22.336 5.51687C20.3322 4.41387 17.4883 4.22852 13.318 5.34596C9.03701 6.49305 6.6182 8.09412 5.41386 10.0609C4.51786 11.5241 4.08908 13.5293 4.46335 16.3989C5.90109 14.842 8.1393 14.3061 10.1034 14.9724C13.1248 12.6603 16.9451 11.6366 20.7177 12.1283C22.0857 10.5691 24.2922 9.91414 26.3159 10.5438C25.2052 7.86853 23.8327 6.34076 22.336 5.51687ZM26.8209 13.6335L26.3435 13.3066C24.7371 12.2068 22.5315 13.013 22.0053 14.8765C22.0005 14.8934 21.9958 14.9105 21.9913 14.9276C21.9225 14.9089 21.8537 14.8908 21.7848 14.8733C17.7724 13.8555 13.5178 14.9956 10.5519 17.8831C10.5009 17.9327 10.4504 17.9828 10.4002 18.0335C10.3877 18.0209 10.3752 18.0084 10.3625 17.9962C8.97505 16.6454 6.66182 17.0501 5.8206 18.8057L5.57056 19.3276L2.67278 20.104C2.44499 19.2539 2.26362 18.4403 2.12826 17.6617C0.703496 9.46643 4.37772 5.15331 12.671 2.93115C20.7839 0.757291 26.1068 2.65962 28.9693 10.4697C29.2412 11.2117 29.4909 12.0069 29.7187 12.8571L26.8209 13.6335Z" fill="black"/>
<path fill-rule="evenodd" clip-rule="evenodd" d="M9.26487 9.61366C8.97379 11.5268 9.50789 13.6552 10.2884 15.0707C11.4204 16.0991 12.3306 16.9608 13.1861 17.7707C14.5714 19.0821 15.8133 20.2579 17.6213 21.786C16.6063 22.06 15.4604 22.5834 14.7706 23.7097C14.7388 23.7617 14.7086 23.8139 14.6799 23.8664C14.6613 23.8593 14.6426 23.852 14.6238 23.8448C12.3843 22.9796 8.77149 21.5766 3.27609 19.4247L4.18764 17.0968C7.45635 18.3768 10.058 19.3914 12.1001 20.1852C11.8654 19.964 11.6308 19.7421 11.3934 19.5175C10.5092 18.6809 9.58489 17.8065 8.46177 16.7891L8.31995 16.6606L8.22306 16.4956C7.14789 14.6647 6.39247 11.8721 6.79331 9.23761C6.99688 7.89969 7.5054 6.56567 8.46159 5.4344C9.42355 4.29627 10.7822 3.43068 12.5707 2.95145L13.2177 5.36626C11.867 5.72819 10.9688 6.34082 10.3709 7.04822C9.76724 7.76246 9.41282 8.64125 9.26487 9.61366Z" fill="black"/>
<path fill-rule="evenodd" clip-rule="evenodd" d="M19.4117 28.5533C20.9981 28.1282 21.6566 27.2016 21.1971 25.4867C20.7283 23.7368 19.7393 23.2891 18.1529 23.7142C16.5313 24.1487 15.8986 25.0309 16.3675 26.7808C16.8458 28.5656 17.7196 29.0067 19.4117 28.5533Z" fill="black"/>
<path fill-rule="evenodd" clip-rule="evenodd" d="M18.7648 7.06821C19.9734 8.57947 20.5751 10.6898 20.6069 12.306C20.1408 13.7626 19.7833 14.9639 19.4474 16.0931C18.9034 17.9214 18.4157 19.5606 17.614 21.7881C17.6211 21.7861 17.6283 21.7842 17.6354 21.7823C18.6457 21.5116 19.8989 21.3943 21.0586 22.0327C21.1079 22.0599 21.1562 22.0879 21.2034 22.1167C21.2153 22.102 21.2273 22.0871 21.2393 22.0722C22.7462 20.2031 25.1735 17.1817 28.8567 12.5704L26.9033 11.0102C24.7125 13.753 22.9667 15.9325 21.5952 17.641C21.6878 17.3322 21.78 17.0229 21.8732 16.7097L21.8733 16.7095C22.2208 15.5429 22.584 14.3234 23.048 12.8808L23.1066 12.6986L23.108 12.5073C23.1236 10.384 22.3816 7.5879 20.7172 5.50676C19.8719 4.44987 18.7645 3.54885 17.3708 3.04722C15.9686 2.54256 14.3592 2.47225 12.5707 2.95149L13.2178 5.3663C14.5685 5.00437 15.6527 5.08583 16.5242 5.3995C17.4041 5.71621 18.1504 6.30006 18.7648 7.06821ZM19.922 23.7027C19.446 23.5087 18.8586 23.5251 18.153 23.7142C18.0046 23.7539 17.8646 23.7974 17.7329 23.845L19.1437 24.6608L19.2598 24.5184C19.3387 24.4216 19.4594 24.2733 19.6271 24.0666C19.7128 23.9609 19.8109 23.8399 19.922 23.7027Z" fill="black"/>
</g>
<defs>
<clipPath id="clip0">
<rect width="32" height="32" fill="white"/>
</clipPath>
</defs>
</svg>
