<svg xmlns="http://www.w3.org/2000/svg" width="64" height="20" viewBox="0 0 64 20">
    <g fill="none" fill-rule="evenodd">
        <path fill="#F90" d="M39.704 15.083c-3.719 2.741-9.11 4.204-13.75 4.204-6.509 0-12.367-2.407-16.8-6.41-.348-.315-.036-.744.382-.5 4.783 2.784 10.698 4.458 16.807 4.458 4.12 0 8.653-.852 12.82-2.621.63-.268 1.157.412.541.869"/>
        <path fill="#F90" d="M41.25 13.314c-.473-.608-3.142-.287-4.34-.145-.365.044-.42-.273-.092-.502 2.126-1.496 5.614-1.064 6.02-.562.407.504-.105 4-2.103 5.669-.306.256-.599.12-.462-.22.448-1.12 1.454-3.63.978-4.24"/>
        <path fill="#000" d="M36.994 2.106V.652c0-.22.167-.368.367-.368h6.511c.209 0 .376.15.376.368v1.245c-.003.21-.178.482-.49.914l-3.374 4.817c1.254-.03 2.577.156 3.714.797.256.144.326.356.345.565v1.552c0 .212-.234.46-.479.331-2.003-1.05-4.664-1.164-6.878.011-.226.123-.463-.122-.463-.334V9.076c0-.236.003-.64.24-1l3.908-5.605H37.37c-.21 0-.376-.148-.376-.365M13.244 11.18h-1.98c-.19-.014-.34-.156-.354-.337V.677c0-.203.17-.365.381-.365h1.847c.192.008.346.156.36.34V1.98h.036C14.016.696 14.92.098 16.14.098c1.24 0 2.015.598 2.572 1.883C19.192.696 20.28.098 21.448.098c.83 0 1.739.342 2.293 1.111.627.855.499 2.098.499 3.187l-.003 6.416c0 .203-.17.368-.382.368h-1.977c-.198-.014-.357-.173-.357-.368V5.424c0-.429.039-1.499-.056-1.905-.147-.683-.59-.875-1.164-.875-.48 0-.98.32-1.184.833-.204.512-.184 1.37-.184 1.947v5.388c0 .203-.17.368-.382.368h-1.978c-.2-.014-.356-.173-.356-.368l-.003-5.388c0-1.134.186-2.802-1.22-2.802-1.424 0-1.368 1.626-1.368 2.802v5.388c0 .203-.17.368-.382.368M49.853.098c2.94 0 4.53 2.524 4.53 5.733 0 3.1-1.758 5.56-4.53 5.56-2.886 0-4.457-2.524-4.457-5.669 0-3.165 1.59-5.624 4.457-5.624m.017 2.075c-1.46 0-1.552 1.99-1.552 3.229 0 1.242-.02 3.894 1.535 3.894 1.535 0 1.608-2.14 1.608-3.443 0-.858-.036-1.883-.296-2.697-.222-.707-.665-.983-1.295-.983M58.194 11.18h-1.972c-.198-.014-.357-.173-.357-.368L55.862.644c.017-.187.182-.332.382-.332h1.836c.173.008.315.125.354.284v1.555h.036C59.024.76 59.802.098 61.17.098c.888 0 1.755.32 2.312 1.197C64 2.11 64 3.477 64 4.46v6.4c-.022.178-.187.32-.382.32h-1.986c-.181-.014-.332-.148-.351-.32V5.337c0-1.112.128-2.739-1.24-2.739-.482 0-.925.323-1.145.814-.278.621-.315 1.24-.315 1.925v5.474c-.002.203-.175.368-.387.368M31.804 6.324c0 .772.02 1.415-.37 2.1-.316.558-.817.9-1.372.9-.76 0-1.206-.58-1.206-1.434 0-1.689 1.513-1.995 2.948-1.995v.429m1.997 4.828c-.13.117-.32.125-.468.047-.657-.546-.777-.8-1.137-1.32-1.086 1.109-1.858 1.44-3.265 1.44-1.668 0-2.964-1.028-2.964-3.087 0-1.607.87-2.702 2.112-3.237 1.075-.474 2.577-.557 3.725-.688v-.256c0-.471.036-1.028-.243-1.435-.24-.365-.702-.515-1.111-.515-.755 0-1.427.387-1.591 1.19-.034.177-.164.353-.346.361l-1.919-.206c-.162-.036-.343-.167-.295-.415C26.739.702 28.845 0 30.729 0c.963 0 2.222.256 2.983.986.964.9.872 2.1.872 3.407V7.48c0 .928.384 1.335.747 1.836.125.178.153.393-.009.527-.404.337-1.123.963-1.518 1.314l-.003-.005M5.836 6.324c0 .772.02 1.415-.37 2.1-.315.558-.814.9-1.37.9-.761 0-1.204-.58-1.204-1.434 0-1.689 1.512-1.995 2.944-1.995v.429m1.998 4.828c-.131.117-.32.125-.468.047-.658-.546-.775-.8-1.137-1.32-1.086 1.109-1.855 1.44-3.265 1.44C1.298 11.319 0 10.291 0 8.232 0 6.625.872 5.53 2.112 4.995c1.075-.474 2.577-.557 3.724-.688v-.256c0-.471.037-1.028-.24-1.435-.242-.365-.704-.515-1.11-.515-.756 0-1.43.387-1.594 1.19-.034.177-.165.353-.343.361L.627 3.446C.465 3.41.287 3.28.332 3.031.774.702 2.878 0 4.762 0c.963 0 2.222.256 2.983.986.964.9.872 2.1.872 3.407V7.48c0 .928.384 1.335.746 1.836.128.178.156.393-.005.527-.404.337-1.123.963-1.519 1.314l-.005-.005"/>
    </g>
</svg>
