<svg width="32" height="32" viewBox="0 0 32 32" fill="none" xmlns="http://www.w3.org/2000/svg">
<path d="M18.25 25.7647L19 24H22L22.75 25.7647C27.25 25.7647 28 27.5294 28 30H13C13 27.5294 13.75 25.7647 18.25 25.7647Z" fill="#EBEDF9"/>
<path fill-rule="evenodd" clip-rule="evenodd" d="M12 5.95884L6.43076 11L3 7.27345L4.87759 5.48095L6.59417 7.34553L10.2901 4L12 5.95884Z" fill="#2A32C5"/>
<path fill-rule="evenodd" clip-rule="evenodd" d="M12 15.9588L6.43076 21L3 17.2735L4.87759 15.481L6.59417 17.3455L10.2901 14L12 15.9588Z" fill="#2A32C5"/>
<path fill-rule="evenodd" clip-rule="evenodd" d="M18 9.25H14V6.75H18V9.25Z" fill="#2A32C5"/>
<path fill-rule="evenodd" clip-rule="evenodd" d="M28 9.25L20 9.25L20 6.75L28 6.75L28 9.25Z" fill="#2A32C5"/>
<path d="M22 23L22.875 25.0588C28.125 25.0588 29 27.1176 29 30" stroke="#2A32C5" stroke-width="2.5"/>
<path d="M19 23L18.125 25.0588C12.875 25.0588 12 27.1176 12 30" stroke="#2A32C5" stroke-width="2.5"/>
<path d="M25.25 18C25.25 19.9427 24.7716 21.049 24.0952 21.6916C23.4063 22.3462 22.2715 22.75 20.4562 22.75C18.4584 22.75 17.3852 22.3679 16.7771 21.7709C16.1735 21.1786 15.75 20.1002 15.75 18C15.75 15.9928 16.2168 14.8979 16.8717 14.276C17.54 13.6414 18.6635 13.25 20.5438 13.25C22.374 13.25 23.4754 13.6387 24.1343 14.2713C24.7832 14.8942 25.25 15.993 25.25 18Z" stroke="#2A32C5" stroke-width="2.5"/>
</svg>
