<svg xmlns="http://www.w3.org/2000/svg" xmlns:xlink="http://www.w3.org/1999/xlink" width="120" height="26" viewBox="0 0 120 26">
    <defs>
        <path id="prefix__a" d="M0.655 0.125L12.472 0.125 12.472 13.38 0.655 13.38z"/>
        <path id="prefix__c" d="M0.585 0.316L4.698 0.316 4.698 7.425 0.585 7.425z"/>
        <path id="prefix__e" d="M0.106 0.316L4.219 0.316 4.219 7.425 0.106 7.425z"/>
        <path id="prefix__g" d="M0 25.246L119.337 25.246 119.337 0.125 0 0.125z"/>
    </defs>
    <g fill="none" fill-rule="evenodd">
        <path fill="#FFF" d="M0 .743L0 3.393 4.704 3.393 4.704 13.96 7.863 13.96 7.863 3.393 12.788 3.393 12.788.743zM25.597.743L25.597 5.874 17.97 5.874 17.97.743 14.886.743 14.886 13.96 17.97 13.96 17.97 8.844 25.597 8.844 25.597 13.96 28.653 13.96 28.653.743zM31.001.743L31.001 3.506 34.601 3.506 34.601 11.064 31.001 11.064 31.001 13.96 41.058 13.96 41.058 11.064 37.495 11.064 37.495 3.506 41.058 3.506 41.058.743zM54.589.743L54.589 9.883 54.479 9.713 46.528.743 43.436.743 43.436 13.96 46.38 13.96 46.38 4.708 46.513 4.893 54.589 13.96 57.534 13.96 57.534.743zM70.719.743L63.534 7.099 63.534.743 60.45.743 60.45 13.96 63.534 13.96 63.534 10.292 66.912 7.426 71.411 13.96 75.092 13.96 69.158 5.733 74.871.743zM76.491.743L76.491 13.96 79.51 13.96 79.51 9.215 88.343 9.215 88.343 6.453 79.51 6.453 79.51 3.483 88.638 3.483 88.638.743z"/>
        <g transform="translate(0 .617)">
            <path fill="#FFF" d="M93.784 12.95c-2.113-1.018-3.195-3.171-3.195-6.884V.126h3.232v5.821c-.037.965.113 1.93.441 2.837.59 1.388 1.746 1.945 3.438 1.945.73.026 1.455-.127 2.113-.446 1.134-.571 1.671-1.908 1.671-4.336V.125h3.233v5.94c.064 1.532-.227 3.057-.847 4.456-1.134 2.265-3.247 3.208-6.206 3.208-1.334.033-2.66-.233-3.88-.78"/>
            <g transform="translate(106.748)">
                <mask id="prefix__b" fill="#fff">
                    <use xlink:href="#prefix__a"/>
                </mask>
                <path fill="#FFF" d="M0.655 0.125L3.776 0.125 3.776 10.41 12.472 10.41 12.472 13.38 0.655 13.38z" mask="url(#prefix__b)"/>
            </g>
            <path fill="#FFF" d="M57.189 22.338c.294-.312.456-.683.456-1.039v-.312c-.184.156-.537.237-1 .319-.64.096-.913.17-1.149.327-.198.126-.3.311-.3.564 0 .4.264.645.816.645.486 0 .89-.193 1.177-.504m-1.398 1.076c-.905 0-1.376-.446-1.376-1.128 0-.446.206-.801.545-1.01.117-.082.235-.133.36-.186.257-.089.61-.162 1.17-.245.743-.11 1.147-.177 1.147-.578 0-.46-.3-.75-1.089-.75-.83 0-1.236.408-1.272 1.002h-.729c.023-.311.118-.579.273-.816.323-.474.897-.756 1.699-.756 1.31 0 1.81.556 1.81 1.431v2.924h-.581l-.081-1.053c-.294.653-.942 1.165-1.876 1.165M63.867 23.414c-1.457 0-2.267-.853-2.267-2.523v-.386c0-1.663.854-2.568 2.296-2.568 1.265 0 2.023.631 2.164 1.907h-.751c-.096-.809-.544-1.254-1.413-1.254-.994 0-1.56.675-1.56 1.952v.32c0 1.208.545 1.861 1.56 1.861.89 0 1.346-.504 1.435-1.32h.765c-.125 1.254-.831 2.011-2.23 2.011M66.989 23.302v-5.677h.685v2.293c.256-.586.772-.971 1.523-.971 1.081 0 1.61.682 1.61 1.765v2.59h-.713v-2.411c0-.78-.324-1.314-1.156-1.314-.808 0-1.264.616-1.264 1.5v2.225h-.685zM72.4 20.854h2.722c-.059-.81-.5-1.321-1.31-1.321s-1.324.497-1.412 1.32m1.383 2.56c-1.398 0-2.098-.83-2.098-2.151v-.09c0-.445.089-.83.258-1.172.346-.668.993-1.053 1.862-1.053.464 0 .847.096 1.14.296.603.401.89 1.076.89 1.84v.342h-3.443c.052.875.552 1.38 1.42 1.38.61 0 1.038-.267 1.192-.764h.773c-.243.875-.95 1.373-1.994 1.373"/>
            <g transform="translate(75.828 17.821)">
                <mask id="prefix__d" fill="#fff">
                    <use xlink:href="#prefix__c"/>
                </mask>
                <path fill="#FFF" d="M3.712 2.617v-.016c0-.236-.059-.422-.155-.563-.198-.282-.537-.378-.934-.378-.066 0-.111.007-.163.014-.603.037-.993.371-.985.935v.015c0 .579.39.898 1.088.898.751 0 1.149-.327 1.149-.905m.323 3.428c0-.37-.257-.616-.979-.616h-.779c-.67.052-.994.327-.994.735v.008c0 .37.339.652 1.149.652h.131c1.053 0 1.472-.31 1.472-.779M1.35 7.3c-.56-.17-.764-.482-.764-.912 0-.468.287-.81.948-.98C.99 5.325.74 5.05.74 4.65c0-.415.317-.713.934-.823C1.063 3.648.76 3.247.76 2.6v-.006c0-.787.545-1.284 1.524-1.381.08-.022.28-.03.375-.03.28-.022.471-.051.611-.103.28-.12.338-.327.338-.683V.316h.81v.126c0 .2-.037.365-.103.49-.14.26-.47.379-1.089.401h.015c.257.03.47.112.647.23.353.245.537.608.537 1.016v.03c0 .898-.692 1.447-1.862 1.447h-.14c-.287 0-.507.015-.655.053-.308.06-.396.185-.396.355 0 .238.198.364.728.357h.985c1.134 0 1.613.452 1.613 1.187 0 .846-.64 1.418-2.141 1.418H2.49c-.485 0-.86-.045-1.14-.127" mask="url(#prefix__d)"/>
            </g>
            <g transform="translate(80.982 17.821)">
                <mask id="prefix__f" fill="#fff">
                    <use xlink:href="#prefix__e"/>
                </mask>
                <path fill="#FFF" d="M3.233 2.617v-.016c0-.236-.059-.422-.155-.563-.198-.282-.536-.378-.934-.378-.066 0-.11.007-.162.014-.603.037-.994.371-.986.935v.015c0 .579.39.898 1.089.898.75 0 1.148-.327 1.148-.905m.323 3.428c0-.37-.257-.616-.978-.616h-.78c-.669.052-.994.327-.994.735v.008c0 .37.339.652 1.149.652h.132c1.052 0 1.471-.31 1.471-.779M.871 7.3c-.56-.17-.765-.482-.765-.912 0-.468.287-.81.949-.98C.51 5.325.26 5.05.26 4.65c0-.415.317-.713.935-.823C.584 3.648.282 3.247.282 2.6v-.006c0-.787.544-1.284 1.524-1.381.08-.022.279-.03.374-.03.28-.022.471-.051.611-.103.28-.12.338-.327.338-.683V.316h.81v.126c0 .2-.037.365-.103.49-.14.26-.47.379-1.089.401h.015c.258.03.471.112.647.23.353.245.537.608.537 1.016v.03c0 .898-.692 1.447-1.861 1.447h-.14c-.287 0-.508.015-.655.053-.309.06-.397.185-.397.355 0 .238.198.364.729.357h.985c1.133 0 1.612.452 1.612 1.187 0 .846-.64 1.418-2.141 1.418h-.066c-.486 0-.862-.045-1.141-.127" mask="url(#prefix__f)"/>
            </g>
            <path fill="#FFF" d="M86.888 19.355h.235c.229 0 .317-.082.317-.238 0-.156-.097-.2-.302-.2h-.25v.438zm0 .808h-.317v-1.529h.604c.427 0 .588.2.588.468 0 .207-.095.334-.294.393.17.037.243.15.243.379v.208c0 .036.007.074.029.081h-.323c-.023-.007-.03-.037-.03-.089v-.2c0-.178-.03-.238-.257-.238h-.243v.527zm1.302-.698v-.073c0-.728-.442-1.129-1.074-1.129-.633 0-1.06.423-1.06 1.136v.066c0 .728.427 1.107 1.075 1.107.632 0 1.06-.379 1.06-1.107zm-1.788 1.27c-.434-.2-.699-.609-.699-1.247v-.112c0-.296.066-.556.19-.771.251-.431.693-.668 1.223-.668.265 0 .5.051.713.17.435.23.706.661.706 1.255v.126c0 .297-.066.556-.19.764-.258.416-.692.638-1.214.638-.265 0-.516-.044-.73-.156zM91.475 21.914h.773c.088.609.573.883 1.236.883.78 0 1.067-.318 1.067-.72 0-.17-.059-.289-.177-.37-.243-.171-.655-.23-1.097-.29-.382-.059-.78-.134-1.096-.29-.316-.17-.522-.436-.522-.897 0-.238.058-.453.176-.638.25-.401.736-.645 1.495-.645 1.14 0 1.728.519 1.839 1.343h-.73c-.065-.505-.44-.758-1.117-.758-.722 0-.957.312-.957.661 0 .156.06.282.184.372.25.155.656.214 1.097.28.382.06.78.135 1.096.29.316.171.515.43.515.898 0 .26-.066.49-.191.698-.258.415-.765.683-1.597.683-1.192 0-1.877-.513-1.994-1.5M96.635 20.854h2.722c-.058-.81-.5-1.321-1.31-1.321-.809 0-1.324.497-1.412 1.32m1.383 2.56c-1.398 0-2.097-.83-2.097-2.151v-.09c0-.445.088-.83.258-1.172.346-.668.993-1.053 1.862-1.053.463 0 .845.096 1.14.296.603.401.89 1.076.89 1.84v.342h-3.443c.051.875.551 1.38 1.42 1.38.61 0 1.037-.267 1.192-.764h.772c-.242.875-.949 1.373-1.994 1.373M100.942 19.065h.581l.096 1.053c.177-.704.655-1.083 1.523-1.083h.258v.727h-.354c-.353 0-.64.053-.838.163-.412.231-.56.669-.56 1.395v1.982h-.706v-4.237zM103.879 19.065L104.63 19.065 105.932 22.449 107.278 19.065 108.029 19.065 106.241 23.302 105.594 23.302z"/>
            <mask id="prefix__h" fill="#fff">
                <use xlink:href="#prefix__g"/>
            </mask>
            <path fill="#FFF" d="M108.73 23.302h.728v-4.237h-.728v4.237zm-.131-5.29c0-.38.168-.513.507-.513.338 0 .5.133.5.512 0 .371-.162.512-.5.512-.368 0-.507-.133-.507-.512zM110.358 21.254v-.097c0-.475.095-.86.28-1.202.367-.653 1.022-1.008 1.824-1.008 1.11 0 1.89.548 2.016 1.728v.015h-.743v-.015c-.118-.757-.574-1.106-1.266-1.106-.81 0-1.376.564-1.376 1.588v.082c0 .965.508 1.529 1.369 1.529.728 0 1.155-.371 1.28-1.106v-.007h.743v.015c-.125 1.202-.904 1.744-2.03 1.744-1.333 0-2.097-.795-2.097-2.16M115.901 20.854h2.722c-.058-.81-.5-1.321-1.309-1.321-.81 0-1.324.497-1.413 1.32m1.384 2.56c-1.4 0-2.098-.83-2.098-2.151v-.09c0-.445.089-.83.258-1.172.346-.668.993-1.053 1.862-1.053.463 0 .846.096 1.14.296.603.401.89 1.076.89 1.84v.342h-3.443c.051.875.551 1.38 1.42 1.38.61 0 1.037-.267 1.192-.764h.772c-.242.875-.949 1.373-1.993 1.373" mask="url(#prefix__h)"/>
        </g>
    </g>
</svg>
