<svg xmlns="http://www.w3.org/2000/svg" width="64" height="22" viewBox="0 0 64 22">
    <g fill="none">
        <path fill="#EA4335" d="M27.437 11.183c0 3.027-2.368 5.258-5.274 5.258s-5.274-2.23-5.274-5.258c0-3.048 2.368-5.257 5.274-5.257s5.274 2.21 5.274 5.257zm-2.309 0c0-1.891-1.372-3.185-2.965-3.185-1.593 0-2.965 1.294-2.965 3.185 0 1.873 1.372 3.186 2.965 3.186 1.593 0 2.965-1.315 2.965-3.186z"/>
        <path fill="#FBBC05" d="M38.815 11.183c0 3.027-2.368 5.258-5.274 5.258s-5.274-2.23-5.274-5.258c0-3.046 2.368-5.257 5.274-5.257s5.274 2.21 5.274 5.257zm-2.309 0c0-1.891-1.372-3.185-2.965-3.185-1.593 0-2.966 1.294-2.966 3.185 0 1.873 1.373 3.186 2.966 3.186 1.593 0 2.965-1.315 2.965-3.186z"/>
        <path fill="#4285F4" d="M49.719 6.244v9.438c0 3.883-2.29 5.469-4.997 5.469-2.548 0-4.082-1.704-4.66-3.098l2.01-.837c.358.856 1.235 1.865 2.647 1.865 1.733 0 2.807-1.069 2.807-3.081v-.756h-.08c-.517.637-1.513 1.195-2.77 1.195-2.628 0-5.036-2.29-5.036-5.237 0-2.967 2.408-5.276 5.037-5.276 1.254 0 2.25.557 2.768 1.176h.08v-.856h2.194v-.002zm-2.03 4.958c0-1.85-1.234-3.204-2.806-3.204-1.593 0-2.927 1.353-2.927 3.204 0 1.833 1.334 3.167 2.927 3.167 1.572 0 2.806-1.334 2.806-3.167z"/>
        <path fill="#34A853" d="M53.333 0.711L53.333 16.119 51.081 16.119 51.081 0.711z"/>
        <path fill="#EA4335" d="M62.108 12.914l1.792 1.194c-.578.856-1.972 2.33-4.38 2.33-2.987 0-5.217-2.308-5.217-5.257 0-3.126 2.25-5.257 4.959-5.257 2.728 0 4.062 2.17 4.499 3.344l.239.597-7.028 2.911c.538 1.055 1.375 1.593 2.548 1.593 1.176 0 1.991-.578 2.588-1.455zm-5.515-1.892l4.698-1.95c-.259-.657-1.036-1.115-1.951-1.115-1.173 0-2.807 1.036-2.747 3.065z"/>
        <path fill="#4285F4" d="M8.365 9.816v-2.23h7.516c.074.388.112.848.112 1.346 0 1.673-.458 3.742-1.932 5.217-1.434 1.493-3.266 2.29-5.694 2.29-4.499 0-8.282-3.665-8.282-8.164S3.868.111 8.367.111c2.49 0 4.262.977 5.594 2.25l-1.573 1.574c-.956-.896-2.25-1.593-4.023-1.593-3.285 0-5.855 2.648-5.855 5.933 0 3.285 2.57 5.933 5.855 5.933 2.131 0 3.345-.856 4.122-1.633.63-.63 1.045-1.531 1.209-2.762l-5.331.003z"/>
    </g>
</svg>
