<svg xmlns="http://www.w3.org/2000/svg" width="51" height="19" viewBox="0 0 51 19">
    <path fill="#43619E" fill-rule="evenodd" d="M50.031 17.942c.081 0 .126-.035.126-.11v-.076c0-.076-.045-.111-.126-.111h-.191v.297h.191zm-.191.554h-.258v-1.052h.48c.237 0 .358.14.358.332 0 .166-.076.272-.192.317l.237.403h-.282l-.197-.362h-.146v.362zm.923-.468v-.131c0-.423-.333-.756-.772-.756s-.772.333-.772.756v.13c0 .424.333.756.772.756s.772-.332.772-.755zm-1.781-.066c0-.589.449-1.037 1.01-1.037.559 0 1.008.448 1.008 1.037 0 .59-.449 1.038-1.009 1.038-.56 0-1.009-.448-1.009-1.038zM34.447 1.32L33.987 0h-7.566v1.319h8.026zm.877 2.518l-.46-1.319h-8.443v1.32h8.903zm5.63 15.11h6.605v-1.32h-6.606v1.32zm0-2.519h6.605v-1.319h-6.606v1.319zm0-2.518h3.963v-1.32h-3.964v1.32zm0-2.518h3.963v-1.32h-3.964v1.32zm0-2.518h3.963v-1.32H37.36l-.37 1.067-.372-1.067h-7.555v1.32h3.963V7.66l.426 1.213h7.074l.426-1.213v1.213zm3.963-3.838h-6.679l-.459 1.32h7.138v-1.32zm-15.853 6.356h3.963v-1.32h-3.963v1.32zm0 2.518h3.963v-1.32h-3.963v1.32zm-2.643 2.518h6.606v-1.319H26.42v1.319zm0 2.518h6.606v-1.319H26.42v1.32zM39.992 0l-.459 1.319h8.026V0h-7.567zm-1.336 3.837h8.903V2.518h-8.443l-.46 1.32zm-9.592 2.518H36.2l-.46-1.319h-6.677v1.32zm5.275 5.037h5.303l.463-1.32h-6.23l.464 1.32zm.885 2.518h3.532l.464-1.32h-4.46l.464 1.32zm.885 2.518h1.762l.464-1.319h-2.69l.464 1.319zm.879 2.518l.461-1.319h-.918l.457 1.32zm-26.42 0h9.728c1.322 0 2.506-.5 3.403-1.319H10.57v1.32zm10.329-6.355v1.319h4.444c0-.457-.063-.899-.177-1.32h-4.267zm-7.686 1.319h3.963v-1.32H13.21v1.32zm7.686-7.555h4.267c.114-.42.177-.862.177-1.319h-4.444v1.32zm-7.686 0h3.963V5.036H13.21v1.32zM20.296 0H10.57v1.319h13.13C22.802.499 21.608 0 20.296 0zm4.368 2.518H10.57v1.32h14.627c-.115-.47-.296-.913-.532-1.32zM13.211 7.554v1.32h10.35c.438-.373.811-.819 1.102-1.32H13.21zm10.35 2.519H13.21v1.319h11.452c-.29-.5-.664-.947-1.102-1.32zm-12.992 6.355h14.095c.236-.407.417-.85.532-1.319H10.569v1.319zM0 1.319h9.248V0H0v1.319zm0 2.518h9.248V2.518H0v1.32zm2.642 2.518h3.963V5.036H2.642v1.32zm0 2.519h3.963v-1.32H2.642v1.32zm0 2.518h3.963v-1.32H2.642v1.32zm0 2.518h3.963v-1.32H2.642v1.32zM0 16.428h9.248v-1.319H0v1.319zm0 2.518h9.248v-1.319H0v1.32z"/>
</svg>
