<svg width="18" height="18" viewBox="0 0 18 18" fill="none" xmlns="http://www.w3.org/2000/svg">
<path d="M3.05132 13.6838C2.87667 14.2077 3.15983 14.774 3.68377 14.9487C4.20772 15.1233 4.77404 14.8402 4.94868 14.3162L3.05132 13.6838ZM13.0513 14.3162C13.226 14.8402 13.7923 15.1233 14.3162 14.9487C14.8402 14.774 15.1233 14.2077 14.9487 13.6838L13.0513 14.3162ZM9 17L8.29289 17.7071C8.48043 17.8946 8.73478 18 9 18C9.26522 18 9.51957 17.8946 9.70711 17.7071L9 17ZM12.1808 14.0276L11.9473 13.0553L12.1808 14.0276ZM11.8917 14.1474L11.3692 13.2947L11.8917 14.1474ZM5.81923 14.0276L6.05268 13.0553L5.81923 14.0276ZM6.46863 14.4686L7.17574 13.7615H7.17574L6.46863 14.4686ZM6.10828 14.1474L6.63078 13.2947L6.10828 14.1474ZM1.21799 12.908L2.10899 12.454L1.21799 12.908ZM2.09202 13.782L2.54601 12.891L2.09202 13.782ZM16.782 12.908L15.891 12.454L16.782 12.908ZM15.908 13.782L15.454 12.891L15.908 13.782ZM15.908 1.21799L15.454 2.10899L15.908 1.21799ZM16.782 2.09202L15.891 2.54601L16.782 2.09202ZM2.09202 1.21799L2.54601 2.10899L2.09202 1.21799ZM1.21799 2.09202L2.10899 2.54601L1.21799 2.09202ZM10 6C10 6.55228 9.55229 7 9 7V9C10.6569 9 12 7.65685 12 6H10ZM9 7C8.44772 7 8 6.55228 8 6H6C6 7.65685 7.34315 9 9 9V7ZM8 6C8 5.44772 8.44772 5 9 5V3C7.34315 3 6 4.34315 6 6H8ZM9 5C9.55229 5 10 5.44772 10 6H12C12 4.34315 10.6569 3 9 3V5ZM4 14C4.94868 14.3162 4.9485 14.3168 4.94832 14.3173C4.94827 14.3175 4.94809 14.318 4.94798 14.3183C4.94776 14.319 4.94756 14.3196 4.94737 14.3202C4.94698 14.3213 4.94665 14.3223 4.94638 14.323C4.94583 14.3246 4.94551 14.3255 4.94542 14.3258C4.94524 14.3263 4.94597 14.3242 4.94768 14.3197C4.9511 14.3107 4.95838 14.292 4.96993 14.265C4.99309 14.211 5.03301 14.1247 5.09291 14.0169C5.21328 13.8002 5.41004 13.5042 5.70711 13.2071C6.2822 12.632 7.28255 12 9 12V10C6.71745 10 5.2178 10.868 4.29289 11.7929C3.83996 12.2458 3.53672 12.6998 3.34459 13.0456C3.24824 13.219 3.17878 13.3672 3.13164 13.4772C3.10803 13.5323 3.08991 13.578 3.07674 13.6129C3.07014 13.6304 3.06477 13.6451 3.06056 13.657C3.05846 13.6629 3.05664 13.6681 3.0551 13.6726C3.05433 13.6748 3.05363 13.6769 3.053 13.6788C3.05269 13.6797 3.05239 13.6806 3.05211 13.6814C3.05197 13.6818 3.05177 13.6824 3.0517 13.6826C3.05151 13.6832 3.05132 13.6838 4 14ZM9 12C10.7174 12 11.7178 12.632 12.2929 13.2071C12.59 13.5042 12.7867 13.8002 12.9071 14.0169C12.967 14.1247 13.0069 14.211 13.0301 14.265C13.0416 14.292 13.0489 14.3107 13.0523 14.3197C13.054 14.3242 13.0548 14.3263 13.0546 14.3258C13.0545 14.3255 13.0542 14.3246 13.0536 14.323C13.0533 14.3223 13.053 14.3213 13.0526 14.3202C13.0524 14.3196 13.0522 14.319 13.052 14.3183C13.0519 14.318 13.0517 14.3175 13.0517 14.3173C13.0515 14.3168 13.0513 14.3162 14 14C14.9487 13.6838 14.9485 13.6832 14.9483 13.6826C14.9482 13.6824 14.948 13.6818 14.9479 13.6814C14.9476 13.6806 14.9473 13.6797 14.947 13.6788C14.9464 13.6769 14.9457 13.6748 14.9449 13.6726C14.9434 13.6681 14.9415 13.6629 14.9394 13.657C14.9352 13.6451 14.9299 13.6304 14.9233 13.6129C14.9101 13.578 14.892 13.5323 14.8684 13.4772C14.8212 13.3672 14.7518 13.219 14.6554 13.0456C14.4633 12.6998 14.16 12.2458 13.7071 11.7929C12.7822 10.868 11.2826 10 9 10V12ZM4.2 2H13.8V0H4.2V2ZM16 4.2V10.8H18V4.2H16ZM2 10.8V4.2H0V10.8H2ZM5.33726 13H4.2V15H5.33726V13ZM13.8 13H12.6627V15H13.8V13ZM10.8243 13.7615L8.29289 16.2929L9.70711 17.7071L12.2385 15.1757L10.8243 13.7615ZM9.70711 16.2929L7.17574 13.7615L5.76152 15.1757L8.29289 17.7071L9.70711 16.2929ZM12.6627 13C12.4658 13 12.2043 12.9936 11.9473 13.0553L12.4142 15C12.3891 15.006 12.3806 15.0042 12.4189 15.0024C12.4664 15.0002 12.5317 15 12.6627 15V13ZM12.2385 15.1757C12.3311 15.0831 12.3775 15.037 12.4126 15.005C12.441 14.9791 12.4362 14.9865 12.4142 15L11.3692 13.2947C11.1439 13.4328 10.9636 13.6222 10.8243 13.7615L12.2385 15.1757ZM11.9473 13.0553C11.7432 13.1043 11.5482 13.1851 11.3692 13.2947L12.4142 15L11.9473 13.0553ZM5.33726 15C5.46826 15 5.53364 15.0002 5.58113 15.0024C5.61944 15.0042 5.61088 15.006 5.58579 15L6.05268 13.0553C5.79573 12.9936 5.53425 13 5.33726 13V15ZM7.17574 13.7615C7.03644 13.6222 6.85609 13.4328 6.63078 13.2947L5.58579 15C5.56378 14.9865 5.55905 14.9791 5.58737 15.005C5.62249 15.037 5.66889 15.0831 5.76152 15.1757L7.17574 13.7615ZM5.58579 15H5.58579L6.63078 13.2947C6.45184 13.1851 6.25675 13.1043 6.05268 13.0553L5.58579 15ZM0 10.8C0 11.3436 -0.000777721 11.8114 0.0305695 12.195C0.0628704 12.5904 0.134186 12.9836 0.32698 13.362L2.10899 12.454C2.0838 12.4045 2.04612 12.3038 2.02393 12.0322C2.00078 11.7488 2 11.3766 2 10.8H0ZM4.2 13C3.62345 13 3.25117 12.9992 2.96784 12.9761C2.69617 12.9539 2.59545 12.9162 2.54601 12.891L1.63803 14.673C2.01641 14.8658 2.40963 14.9371 2.80497 14.9694C3.18864 15.0008 3.65645 15 4.2 15V13ZM0.32698 13.362C0.614601 13.9265 1.07354 14.3854 1.63803 14.673L2.54601 12.891C2.35785 12.7951 2.20487 12.6422 2.10899 12.454L0.32698 13.362ZM16 10.8C16 11.3766 15.9992 11.7488 15.9761 12.0322C15.9539 12.3038 15.9162 12.4045 15.891 12.454L17.673 13.362C17.8658 12.9836 17.9371 12.5904 17.9694 12.195C18.0008 11.8114 18 11.3436 18 10.8H16ZM13.8 15C14.3436 15 14.8114 15.0008 15.195 14.9694C15.5904 14.9371 15.9836 14.8658 16.362 14.673L15.454 12.891C15.4045 12.9162 15.3038 12.9539 15.0322 12.9761C14.7488 12.9992 14.3766 13 13.8 13V15ZM15.891 12.454C15.7951 12.6422 15.6422 12.7951 15.454 12.891L16.362 14.673C16.9265 14.3854 17.3854 13.9265 17.673 13.362L15.891 12.454ZM13.8 2C14.3766 2 14.7488 2.00078 15.0322 2.02393C15.3038 2.04612 15.4045 2.0838 15.454 2.10899L16.362 0.32698C15.9836 0.134186 15.5904 0.0628704 15.195 0.0305694C14.8114 -0.000777721 14.3436 0 13.8 0V2ZM18 4.2C18 3.65645 18.0008 3.18864 17.9694 2.80497C17.9371 2.40963 17.8658 2.01641 17.673 1.63803L15.891 2.54601C15.9162 2.59545 15.9539 2.69617 15.9761 2.96784C15.9992 3.25117 16 3.62345 16 4.2H18ZM15.454 2.10899C15.6422 2.20487 15.7951 2.35785 15.891 2.54601L17.673 1.63803C17.3854 1.07354 16.9265 0.614601 16.362 0.32698L15.454 2.10899ZM4.2 0C3.65645 0 3.18864 -0.000777721 2.80497 0.0305694C2.40963 0.0628704 2.01641 0.134186 1.63803 0.32698L2.54601 2.10899C2.59545 2.0838 2.69617 2.04612 2.96784 2.02393C3.25117 2.00078 3.62345 2 4.2 2V0ZM2 4.2C2 3.62345 2.00078 3.25117 2.02393 2.96784C2.04612 2.69617 2.0838 2.59545 2.10899 2.54601L0.32698 1.63803C0.134186 2.01641 0.0628704 2.40963 0.0305694 2.80497C-0.000777721 3.18864 0 3.65645 0 4.2H2ZM1.63803 0.32698C1.07354 0.614601 0.614601 1.07354 0.32698 1.63803L2.10899 2.54601C2.20487 2.35785 2.35785 2.20487 2.54601 2.10899L1.63803 0.32698Z" fill="#006B61"/>
</svg>
