<svg width="20" height="20" viewBox="0 0 20 20" fill="none" xmlns="http://www.w3.org/2000/svg">
<path d="M9.6 5.00383L9.56956 4.00428L9.56423 4.00447L9.6 5.00383ZM8 6.50882L7 6.50732L8 6.50882ZM11.7263 6.10794C12.2574 6.25912 12.8106 5.95107 12.9618 5.41988C13.113 4.8887 12.8049 4.33552 12.2737 4.18433L11.7263 6.10794ZM10 5.00383L10.0076 6.0038L10 5.00383ZM10.1861 10.9974V11.9974C10.2307 11.9974 10.2752 11.9945 10.3193 11.9885L10.1861 10.9974ZM8.14199 9.8939C7.5953 9.81549 7.08855 10.1951 7.01013 10.7418C6.93171 11.2885 7.31132 11.7952 7.85801 11.8736L8.14199 9.8939ZM11 11C11 10.4477 10.5523 10 10 10C9.44771 10 9 10.4477 9 11H11ZM9 12C9 12.5523 9.44771 13 10 13C10.5523 13 11 12.5523 11 12H9ZM11 4C11 3.44772 10.5523 3 10 3C9.44771 3 9 3.44772 9 4H11ZM9 5C9 5.55228 9.44771 6 10 6C10.5523 6 11 5.55228 11 5H9ZM20 15C20 14.4477 19.5523 14 19 14C18.4477 14 18 14.4477 18 15H20ZM2 15C2 14.4477 1.55228 14 1 14C0.447715 14 0 14.4477 0 15H2ZM2.09202 18.782L2.54601 17.891H2.54601L2.09202 18.782ZM1.21799 17.908L2.10899 17.454H2.10899L1.21799 17.908ZM18.782 17.908L17.891 17.454L17.891 17.454L18.782 17.908ZM17.908 18.782L18.362 19.673L17.908 18.782ZM16 8C16 11.3137 13.3137 14 10 14V16C14.4183 16 18 12.4183 18 8H16ZM10 14C6.68629 14 4 11.3137 4 8H2C2 12.4183 5.58172 16 10 16V14ZM4 8C4 4.68629 6.68629 2 10 2V0C5.58172 0 2 3.58172 2 8H4ZM10 2C13.3137 2 16 4.68629 16 8H18C18 3.58172 14.4183 0 10 0V2ZM9.56423 4.00447C9.03387 4.02345 8.40033 4.16039 7.87768 4.57355C7.31407 5.0191 7.00124 5.69023 7 6.50732L9 6.51033C9.00023 6.35952 9.02723 6.27558 9.04635 6.23382C9.06442 6.19437 9.08677 6.1672 9.11799 6.14252C9.19307 6.08316 9.35871 6.0131 9.63578 6.00319L9.56423 4.00447ZM7 6.50732C6.9986 7.43735 7.42973 8.13615 8.09968 8.54904C8.69999 8.91902 9.41416 9.01495 10 9.01495V7.01495C9.58583 7.01495 9.29913 6.93895 9.14901 6.84643C9.08627 6.80776 9.05934 6.77398 9.04419 6.74686C9.02921 6.72003 8.99979 6.65331 9 6.51033L7 6.50732ZM10 9.01495C10.4479 9.01495 10.7268 9.08127 10.8665 9.1638C10.9191 9.19481 10.9388 9.22028 10.9514 9.24327C10.9657 9.26932 11 9.34678 11 9.52108H13C13 8.57326 12.5851 7.85594 11.8835 7.44162C11.2732 7.08129 10.5521 7.01495 10 7.01495V9.01495ZM12.2737 4.18433C11.6062 3.99434 10.6297 3.99898 9.99235 4.00385L10.0076 6.0038C10.7404 5.99819 11.3938 6.01331 11.7263 6.10794L12.2737 4.18433ZM9.99235 4.00385C9.94173 4.00424 9.91992 4.00384 9.91154 4.00361C9.89594 4.00318 9.91389 4.00362 9.87283 4.00186C9.79982 3.99874 9.7244 3.99957 9.56956 4.00429L9.63045 6.00336C9.70542 6.00108 9.74639 6.00027 9.76976 6.00006C9.78077 5.99996 9.78587 6.00001 9.78726 6.00004C9.78787 6.00004 9.78732 6.00003 9.78742 6.00004C9.79363 6.0003 9.78879 6.00013 9.80696 6.00099C9.82028 6.00162 9.83673 6.00231 9.85719 6.00287C9.89694 6.00395 9.94372 6.00429 10.0076 6.0038L9.99235 4.00385ZM11 9.52108C11 9.60473 10.9833 9.64135 10.9756 9.6558C10.9667 9.67243 10.9455 9.70397 10.8867 9.74631C10.7501 9.84449 10.483 9.94852 10.0529 10.0064L10.3193 11.9885C10.8956 11.9111 11.5354 11.7432 12.0543 11.3701C12.6235 10.9608 13 10.3327 13 9.52108H11ZM10.1861 9.99744C9.36801 9.99744 9.05769 10.0253 8.14199 9.8939L7.85801 11.8736C8.94231 12.0292 9.40419 11.9974 10.1861 11.9974V9.99744ZM9 11V12H11V11H9ZM9 4V5H11V4H9ZM18 15V15.8H20V15H18ZM15.8 18H4.2V20H15.8V18ZM2 15.8V15H0V15.8H2ZM4.2 18C3.62345 18 3.25117 17.9992 2.96784 17.9761C2.69617 17.9539 2.59545 17.9162 2.54601 17.891L1.63803 19.673C2.01641 19.8658 2.40963 19.9371 2.80497 19.9694C3.18864 20.0008 3.65645 20 4.2 20V18ZM0 15.8C0 16.3436 -0.000777721 16.8114 0.0305694 17.195C0.0628704 17.5904 0.134186 17.9836 0.326981 18.362L2.10899 17.454C2.0838 17.4045 2.04612 17.3038 2.02393 17.0322C2.00078 16.7488 2 16.3766 2 15.8H0ZM2.54601 17.891C2.35785 17.7951 2.20487 17.6422 2.10899 17.454L0.32698 18.362C0.614601 18.9265 1.07354 19.3854 1.63803 19.673L2.54601 17.891ZM18 15.8C18 16.3766 17.9992 16.7488 17.9761 17.0322C17.9539 17.3038 17.9162 17.4045 17.891 17.454L19.673 18.362C19.8658 17.9836 19.9371 17.5904 19.9694 17.195C20.0008 16.8114 20 16.3436 20 15.8H18ZM15.8 20C16.3436 20 16.8114 20.0008 17.195 19.9694C17.5904 19.9371 17.9836 19.8658 18.362 19.673L17.454 17.891C17.4045 17.9162 17.3038 17.9539 17.0322 17.9761C16.7488 17.9992 16.3766 18 15.8 18V20ZM17.891 17.454C17.7951 17.6422 17.6422 17.7951 17.454 17.891L18.362 19.673C18.9265 19.3854 19.3854 18.9265 19.673 18.362L17.891 17.454Z" fill="#006B61"/>
</svg>
