<svg width="32" height="32" viewBox="0 0 32 32" fill="none" xmlns="http://www.w3.org/2000/svg">
<mask id="mask0" mask-type="alpha" maskUnits="userSpaceOnUse" x="0" y="0" width="32" height="32">
<rect width="32" height="32" fill="#C4C4C4"/>
</mask>
<g mask="url(#mask0)">
<path stroke="grenn" fill-rule="evenodd" clip-rule="evenodd" d="M10.6899 14.9332C9.43884 15.0896 8.5 16.1531 8.5 17.4139V25.168L25.3101 23.0668C26.5612 22.9104 27.5 21.8469 27.5 20.5861V12.832L10.6899 14.9332ZM6 13V28L30 25V10L6 13Z" fill="#EBEDF9"/>
<path stroke="grenn" d="M8.5 25.168V17.4139C8.5 16.1531 9.43884 15.0896 10.6899 14.9332L27.5 12.832V20.5861C27.5 21.8469 26.5612 22.9104 25.3101 23.0668L8.5 25.168Z" fill="#EBEDF9"/>
<path stroke="grenn" fill-rule="evenodd" clip-rule="evenodd" d="M10.6899 14.9332C9.43884 15.0896 8.5 16.1531 8.5 17.4139V25.168L25.3101 23.0668C26.5612 22.9104 27.5 21.8469 27.5 20.5861V12.832L10.6899 14.9332ZM6 13V28L30 25V10L6 13Z" fill="#2A32C5"/>
<path stroke="grenn" fill-rule="evenodd" clip-rule="evenodd" d="M26.25 3.57874V11.25H23.75V6.42135L6.43067 8.65187C5.18371 8.81247 4.25 9.87413 4.25 11.1314V20.5787L7.52238 20.1573L7.84172 22.6368L1.75 23.4214V6.73404L26.25 3.57874Z" fill="#2A32C5"/>
<path d="M17.9854 22C18.7668 22 19.5713 21.8303 20.1742 21.2576C20.7871 20.6753 21 19.8603 21 19C21 18.1419 20.8027 17.3209 20.1925 16.7351C19.5905 16.1572 18.784 16 18.0146 16C17.2356 16 16.422 16.155 15.8151 16.7314C15.1974 17.3179 15 18.142 15 19C15 19.8329 15.1575 20.6702 15.7667 21.268C16.3721 21.8622 17.2012 22 17.9854 22Z" stroke="#2A32C5" stroke-width="2"/>
<path d="M9 3.08081L26.8937 30" stroke="white" stroke-width="2.5"/>
<path d="M10.1062 2L27.9999 28.9192" stroke="#2A32C5" stroke-width="2.5"/>
</g>
</svg>
