<svg width="32" height="32" viewBox="0 0 32 32" fill="none" xmlns="http://www.w3.org/2000/svg">
<mask id="mask0" mask-type="alpha" maskUnits="userSpaceOnUse" x="0" y="0" width="32" height="32">
<rect width="32" height="32" fill="#C4C4C4"/>
</mask>
<g mask="url(#mask0)">
<path fill-rule="evenodd" clip-rule="evenodd" d="M16.0949 5.5C20.0838 5.5 22.5347 6.34624 24.0186 7.77085C24.4576 8.19224 24.8564 8.70735 25.1997 9.34008C25.4364 9.24027 25.5907 9.1374 25.6617 9.06255L26.9898 7.46365C24.9252 4.31927 21.2794 3 16.0949 3C10.7908 3 7.09807 4.32143 5.01661 7.47135L6.33833 9.06254C6.40995 9.1381 6.56646 9.2422 6.80701 9.34289C7.1519 8.71306 7.55294 8.20023 7.9952 7.78026C9.49966 6.35164 11.9986 5.5 16.0949 5.5ZM5.93646 11.6876C5.38298 11.4682 4.84966 11.1533 4.45729 10.7096L4.44447 10.6951L3.83098 9.95657C3.27699 11.6245 3 13.6269 3 16C3 25.6087 6.79568 29 15.9051 29L29 29L29 16C29 13.6257 28.7227 11.6224 28.1712 9.95397L27.5555 10.6951L27.5427 10.7096C27.1506 11.153 26.6178 11.4677 26.0648 11.6871C26.3434 12.8636 26.5 14.2834 26.5 16L26.5 26.5L15.9051 26.5C11.5591 26.5 9.16466 25.6705 7.78768 24.319C6.42007 22.9768 5.5 20.57 5.5 16C5.5 14.2824 5.65672 12.863 5.93646 11.6876Z" fill="black"/>
<path d="M16.4162 19.5547L17.3391 18.1704C17.5606 17.8381 17.3224 17.393 16.9231 17.393H16.0002H15.0773C14.678 17.393 14.4398 17.8381 14.6613 18.1704L15.5842 19.5547C15.7821 19.8515 16.2183 19.8515 16.4162 19.5547Z" fill="black"/>
<path d="M13.4466 16.0002C13.4466 14.4616 12.4072 13.6787 11.1251 13.6787C9.84305 13.6787 8.80371 14.4616 8.80371 16.0002" stroke="black" stroke-width="2.5"/>
<path d="M23.1966 16.0002C23.1966 14.4616 22.1572 13.6787 20.8751 13.6787C19.593 13.6787 18.5537 14.4616 18.5537 16.0002" stroke="black" stroke-width="2.5"/>
<path d="M26.0587 17.4695L27.75 16.8195V27.0857L25.8526 26.2523C21.9683 24.5463 22.0987 18.9914 26.0587 17.4695Z" stroke="black" stroke-width="2.5"/>
</g>
<path d="M16 12L15.1745 10.6829C14.0292 8.85564 11.7117 8.035 9.59988 8.70887C8.41956 9.0855 7.11873 8.73126 6.32223 7.81631L3 4" stroke="black" stroke-width="2.5" stroke-linecap="round"/>
<path d="M16 12L16.8255 10.6829C17.9708 8.85564 20.2883 8.035 22.4001 8.70887C23.5804 9.0855 24.8813 8.73126 25.6778 7.81631L29 4" stroke="black" stroke-width="2.5" stroke-linecap="round"/>
</svg>
