<svg xmlns="http://www.w3.org/2000/svg" width="24" height="19" viewBox="0 0 24 19">
    <path fill="#1DA1F2" d="M7.548 19c9.056 0 14.01-7.31 14.01-13.65 0-.208 0-.414-.015-.62.964-.68 1.796-1.52 2.457-2.483-.899.388-1.852.642-2.828.754 1.028-.6 1.797-1.542 2.165-2.653-.967.559-2.024.953-3.127 1.164-1.526-1.58-3.952-1.968-5.916-.944-1.964 1.025-2.98 3.205-2.475 5.32C7.859 5.694 4.17 3.872 1.67.875.363 3.067 1.031 5.872 3.195 7.28c-.784-.023-1.55-.229-2.235-.6v.06c0 2.284 1.653 4.25 3.95 4.703-.725.192-1.485.22-2.223.082.645 1.954 2.494 3.293 4.6 3.332-1.743 1.335-3.897 2.06-6.115 2.057-.392 0-.783-.024-1.172-.069C2.252 18.253 4.872 19 7.548 18.996"/>
</svg>
