<?xml version="1.0" encoding="UTF-8"?>
<svg width="176px" height="33px" viewBox="0 0 176 33" version="1.1" xmlns="http://www.w3.org/2000/svg" xmlns:xlink="http://www.w3.org/1999/xlink">
    <title>Walmart_Labs_logo</title>
    <g id="Desktop" stroke="none" stroke-width="1" fill="none" fill-rule="evenodd">
        <g id="Walmart_Labs_logo" fill="#2F2951">
            <path d="M97.8768374,16.9504835 C97.8768374,17.1953934 97.8576333,17.4479324 97.7851379,17.6694203 C97.4965964,18.5902133 96.5166596,19.3697945 95.2905263,19.3697945 C94.2605148,19.3697945 93.4507262,18.8053841 93.4507262,17.6110598 C93.4507262,15.7842947 95.5152621,15.2787307 97.8770775,15.2916079 L97.8768374,16.9504835 Z M101.786022,13.7669955 C101.786022,10.7542155 100.45998,8.10369794 95.9846102,8.10369794 C93.6866485,8.10369794 91.8612034,8.73021041 90.8673917,9.28849798 L91.5928262,11.7113562 C92.501948,11.1530687 93.9546416,10.6909471 95.3295586,10.6909471 C97.5989062,10.6860878 97.9722337,11.940036 97.9722337,12.7442539 L97.9722337,12.9352252 C93.0171458,12.9255066 89.8865906,14.5922056 89.8865906,17.985908 C89.8865906,20.0582633 91.4800982,22 94.2575861,22 C95.9565722,22 97.3871811,21.3392293 98.2403709,20.2808203 L98.3248689,20.2808203 C98.3248689,20.2808203 98.888701,22.5799116 102.004565,21.6999368 C101.84181,20.7434764 101.786119,19.7238933 101.786119,18.496234 L101.786022,13.7669955 Z M120,11.572331 L120,8.18616065 L116.778273,8.18616065 L116.778273,4 L113.127191,4 L113.127191,17.0577288 C113.127191,18.8584479 113.479586,20.1195393 114.226674,20.8891103 C114.882061,21.5630983 115.953842,21.999757 117.236819,21.999757 C118.329436,21.999757 119.407218,21.7985811 119.915502,21.6139268 L119.865091,18.8059187 C119.492052,18.8963021 119.054775,18.9672482 118.462904,18.9672482 C117.2011,18.9672482 116.778225,18.1843141 116.778225,16.5679576 L116.778225,11.572331 L120,11.572331 Z M107.0297,10.9110258 L106.931279,10.9110258 L106.931279,8.40327518 L103.575652,8.40327518 L103.575652,21.6996939 L107.395778,21.6996939 L107.395778,14.8918315 C107.395778,14.5244667 107.414982,14.2036542 107.480756,13.9099082 C107.762576,12.4835998 108.883183,11.572331 110.498007,11.572331 C110.941141,11.572331 111.251864,11.6209242 111.597489,11.6670878 L111.597489,8.18601487 C111.308468,8.12964673 111.11129,8.10340639 110.758415,8.10340639 C109.334287,8.10340639 107.713126,8.99625832 107.02946,10.9107342 L107.0297,10.9110258 Z M84.0436015,8.10369794 C82.9658198,8.10369794 82.112966,8.36561543 81.3439381,8.82516157 C80.6953679,9.21099179 80.1177568,9.76014384 79.6096646,10.4808786 L79.5534926,10.4808786 C78.9682959,9.04927353 77.5876177,8.10369794 75.7829611,8.10369794 C73.4707403,8.10369794 72.4278621,9.24335488 71.8001283,10.2101657 L71.7439563,10.2101657 L71.7439563,8.40327518 L68.2122757,8.40327518 L68.2122757,21.6996939 L71.9341249,21.6996939 L71.9341249,13.9011128 C71.9341249,13.5361777 71.9773341,13.1501531 72.1103224,12.8132076 C72.413267,12.0290102 73.1674597,11.1094805 74.3661311,11.1094805 C75.867123,11.1094805 76.5722973,12.3426308 76.5722973,14.1220662 L76.5722973,21.6996939 L80.2867529,21.6996939 L80.2867529,13.8077652 C80.2867529,13.457894 80.3362034,13.0394091 80.4418259,12.7298703 C80.7447705,11.836338 81.5557593,11.1094805 82.6766061,11.1094805 C84.1919051,11.1094805 84.9245892,12.3210069 84.9245892,14.4149376 L84.9245892,21.6996939 L88.6396209,21.6996939 L88.6396209,13.8686039 C88.6396209,9.73871422 86.4822812,8.10369794 84.0435535,8.10369794 L84.0436015,8.10369794 Z M56.4441999,16.9504835 C56.4441999,17.1953934 56.4249958,17.4479324 56.3529804,17.6694203 C56.0639588,18.5902133 55.0843101,19.3697945 53.8507352,19.3697945 C52.8286934,19.3697945 52.0178486,18.8053841 52.0178486,17.6110598 C52.0178486,15.7842947 54.0836328,15.2787307 56.4443919,15.2916079 L56.4441999,16.9504835 Z M60.3533369,13.7669955 C60.3533369,10.7542155 59.0282065,8.10369794 54.5517326,8.10369794 C52.2540109,8.10369794 50.4285179,8.73021041 49.4332658,9.28849798 L50.1610529,11.7113562 C51.0699826,11.1530687 52.521812,10.6909471 53.896681,10.6909471 C56.1660286,10.6860878 56.5393561,11.940036 56.5393561,12.7442539 L56.5393561,12.9352252 C51.5844602,12.9255066 48.4579379,14.5922056 48.4579379,17.985908 C48.4579379,20.0582633 50.0508694,22 52.817651,22 C54.5238866,22 55.9480141,21.3392293 56.8004838,20.2808203 L56.8854619,20.2808203 C56.8854619,20.2808203 57.4556794,22.5799116 60.5713514,21.6999368 C60.4095569,20.7434764 60.3533849,19.7238933 60.3533849,18.496234 L60.3533369,13.7669955 Z M45.6478511,4 L44.0040768,11.6517809 C43.5619026,13.8791486 43.1624574,15.6211672 42.8521193,17.6585354 L42.7973876,17.6585354 C42.517488,15.6405073 42.1598598,13.9694835 41.710388,11.7996015 L40.0007436,4 L35.9500244,4 L34.1204025,11.602556 C33.6032363,13.9127266 33.1164606,15.7785121 32.8083309,17.7469751 L32.7535992,17.7469751 C32.4376919,15.8940182 32.0162101,13.548326 31.560545,11.3130376 C31.560545,11.3130376 30.4748416,5.87511541 30.0930162,4 L26,4 C26,4 29.2347373,16.8775451 29.7515195,18.9672482 C30.3533757,21.407357 31.438599,22.305943 34.5694422,21.6996939 L36.5898088,13.714612 C37.1019339,11.7319112 37.4457352,10.3189659 37.7743652,8.30079207 L37.8324576,8.30079207 C38.0633868,10.3386462 38.3932651,11.7380825 38.8130665,13.7225327 C38.8130665,13.7225327 39.636586,17.3472472 40.0567716,19.250984 C40.4802218,21.1538462 41.654072,22.352884 44.7215897,21.6996939 L49.5338952,4 L45.6478511,4 Z M62.3689985,21.7001798 L66.069339,21.7001798 L66.069339,4.00087468 L62.3689985,4.00087468 L62.3689985,21.7001798 Z" id="Fill-1"></path>
            <polygon id="Fill-3" points="138 19.1566647 130.506181 19.1566647 130.506181 4 127 4 127 22 138 22"></polygon>
            <path d="M146.912869,16.9128079 C146.912869,17.1595722 146.892711,17.4139847 146.821656,17.6371308 C146.535924,18.5647816 145.564888,19.3501943 144.351307,19.3501943 C143.331086,19.3501943 142.528567,18.7815301 142.528567,17.5783018 C142.528567,15.7379117 144.573694,15.2286057 146.912667,15.2414971 L146.912869,16.9128079 Z M150.784264,13.7055458 C150.784264,10.6702972 149.471004,8 145.038929,8 C142.763149,8 140.955326,8.63119702 139.971137,9.19380031 L140.689398,11.6345539 C141.590085,11.0720949 143.028371,10.6065137 144.389455,10.6065137 C146.637417,10.6017035 147.007307,11.8649634 147.007307,12.6751968 L147.007307,12.8676056 C142.100119,12.8579851 139,14.5368961 139,17.9559521 C139,20.0437799 140.577373,22 143.328567,22 C145.010607,22 146.42793,21.3342656 147.27273,20.2679842 L147.356384,20.2679842 C147.356384,20.2679842 147.914796,22.5842493 151,21.6976777 C150.839243,20.7340945 150.784314,19.7067278 150.784314,18.4700684 L150.784264,13.7055458 Z" id="Fill-5"></path>
            <path d="M158.901577,19.3694674 C157.390944,19.3694674 156.164593,18.3661495 155.793921,17.0367667 C155.737162,16.7928254 155.708782,16.5218173 155.708782,16.2509064 L155.708782,14.1081592 C155.708782,13.7830661 155.766023,13.4840194 155.822782,13.240321 C156.222507,11.7759444 157.504993,10.799256 158.930053,10.799256 C161.267986,10.799256 162.436759,12.6976246 162.436759,15.0303739 C162.436759,17.6881191 161.097321,19.3694674 158.901817,19.3694674 M160.213213,8.19579015 C158.132095,8.19579015 156.62127,9.03675587 155.765974,10.3115192 L155.708733,10.3115192 L155.708733,4 L152.202027,4 L152.202027,17.9863883 C152.202027,18.3887457 152.206837,18.6972682 152.211647,18.9637571 C152.197217,19.9669292 152.139014,20.8423479 152,21.6624669 C154.775561,22.4506111 155.591798,20.707014 155.737306,20.3155903 C156.734357,21.5078412 158.141138,22 159.699054,22 C162.835666,22 165.999745,19.6403783 165.999745,14.8945054 C166.028606,10.8806993 163.605389,8.19579015 160.212491,8.19579015" id="Fill-7"></path>
            <path d="M171.866672,13.704778 C169.895189,13.0987761 169.164353,12.685042 169.164353,11.8304918 C169.164353,11.0037452 169.927513,10.4252101 171.326198,10.4252101 C172.693182,10.4252101 173.933674,10.8658338 174.6009,11.1971674 L175.363852,8.79942414 C174.473576,8.38621917 172.979581,8 171.262848,8 C167.670202,8 165.412735,9.84662695 165.412735,12.216711 C165.381554,13.7875633 166.65276,15.2203118 169.673594,16.1299881 C171.580688,16.7087156 172.216681,17.1768542 172.216681,18.0867229 C172.216681,18.9687399 171.453937,19.5747899 169.736372,19.5747899 C168.338103,19.5747899 166.65276,19.0786553 165.762069,18.6103243 L165,21.0630012 C166.144142,21.6144543 167.82907,22 169.704879,22 C173.806091,22 176,20.2364951 176,17.811285 C175.968819,15.826891 174.665081,14.5866507 171.866672,13.704778" id="Fill-9"></path>
            <path d="M3.80004854,17.769262 L8.0734405,1.26920902 L8.70878572,1.26920902 L4.59764113,17.1312516 L13.6263797,17.1312516 C13.7958562,17.1312516 13.9337353,17.2742043 13.9337353,17.4502568 C13.9337353,17.6263093 13.7963349,17.769262 13.6263797,17.769262 L3.80004854,17.769262 Z M18.6665808,14.3095186 L8.33651201,14.3095186 L12.0644196,0 L4.47541701,0 L0.14740001,16.631061 C-0.499435136,19.1326376 1.04385387,21.1794518 3.57666516,21.1794518 L8.2848552,21.1795957 L5.27324898,32.8271237 C5.23494921,32.9724749 5.42118182,33.0645787 5.50975002,32.9451316 L18.9318546,14.8556171 C19.0979798,14.6315939 18.9414295,14.3097584 18.6666287,14.3097584 L18.6665808,14.3095186 Z" id="Fill-12"></path>
        </g>
    </g>
</svg>