<svg xmlns="http://www.w3.org/2000/svg" width="77" height="20" viewBox="0 0 77 20">
    <path fill="#4353FF" d="M24.777 7.547c0-1.376-1.338-2.838-3.655-2.838-2.6 0-5.458 1.908-5.895 5.715-.446 3.844 1.946 5.553 4.357 5.553 2.412 0 3.674-.94 4.965-2.193-1.11-1.395-2.544-.75-2.82-.607-.303.151-.692.36-1.49.36-.93 0-1.88-.417-1.88-2.155 5.963-.588 6.418-2.458 6.418-3.835zm-2.952.228c-.038.427-.209 1.158-3.228 1.566.636-2.26 1.851-2.43 2.411-2.43.523 0 .855.408.817.864zm-10.1.37l-1.387 4.358c-.038-.342-.978-7.567-.978-7.567-2.183 0-3.35 1.557-3.968 3.2l-1.69 4.376c-.01-.313-.237-4.329-.237-4.329C3.332 6.171 1.49 4.946 0 4.946l1.804 10.946c2.288-.01 3.522-1.557 4.167-3.2 0 0 1.377-3.56 1.434-3.72.01.151.987 6.92.987 6.92 2.297 0 3.531-1.453 4.196-3.038l3.218-7.908c-2.269 0-3.465 1.547-4.082 3.2zM33.206 4.69c-1.414 0-2.496.769-3.408 1.898v-.01L30.616 0c-1.88 0-3.408 1.633-3.703 4.063L25.49 15.806c1.082 0 2.231-.313 2.848-1.11.55.711 1.377 1.281 2.601 1.281 3.171 0 5.345-3.683 5.345-7.139-.019-3.152-1.547-4.148-3.076-4.148zm-.294 5.648c-.332 1.927-1.405 3.237-2.44 3.237-1.044 0-1.49-.465-1.49-.465.2-1.69.323-2.724.702-3.617.38-.892 1.282-2.316 2.222-2.316.92 0 1.338 1.224 1.006 3.161zM44.2 4.946h-2.212l.01-.114c.152-1.443.494-2.202 1.623-2.326.77-.076 1.111-.474 1.196-.911.067-.342.276-1.529.276-1.529-4.443-.028-5.839 1.89-6.2 4.814l-.009.066h-.047c-.722 0-1.52.816-1.652 1.851l-.048.38h1.481l-1.243 10.272-.38 1.841c.047 0 .104.01.152.01 2.079-.076 3.408-1.719 3.702-4.101l.969-8.022h.693c.683 0 1.48-.684 1.623-1.823l.066-.408zm11.506-.19c-2.554 0-4.965 1.88-5.705 4.832-.74 2.953.38 6.446 4.139 6.446 3.75 0 5.914-3.636 5.914-6.664 0-3.01-2.041-4.614-4.348-4.614zm1.035 5.487c-.133 1.339-.722 3.37-2.335 3.37-1.624 0-1.396-2.373-1.235-3.503.171-1.205.845-2.924 2.298-2.924 1.3 0 1.424 1.548 1.272 3.057zm15.93-2.098l-1.387 4.358c-.038-.342-.977-7.567-.977-7.567-2.184 0-3.351 1.557-3.969 3.2 0 0-1.556 4.034-1.69 4.376-.009-.313-.237-4.329-.237-4.329-.133-2.012-1.974-3.237-3.465-3.237l1.795 10.946c2.287-.01 3.522-1.557 4.167-3.2 0 0 1.377-3.56 1.424-3.72.02.151.987 6.92.987 6.92 2.298 0 3.532-1.453 4.196-3.038l3.219-7.908c-2.26 0-3.456 1.547-4.064 3.2zM46.288.066l-1.86 15.01-.38 1.85c.047 0 .104.01.151.01 2.003-.029 3.427-1.785 3.693-3.997l1.073-8.61c.323-2.63-1.244-4.263-2.677-4.263z"/>
</svg>
